%TF.GenerationSoftware,KiCad,Pcbnew,(6.0.8)*%
%TF.CreationDate,2022-11-26T12:48:52+01:00*%
%TF.ProjectId,50x70_tiny,35307837-305f-4746-996e-792e6b696361,rev?*%
%TF.SameCoordinates,Original*%
%TF.FileFunction,Copper,L2,Bot*%
%TF.FilePolarity,Positive*%
%FSLAX46Y46*%
G04 Gerber Fmt 4.6, Leading zero omitted, Abs format (unit mm)*
G04 Created by KiCad (PCBNEW (6.0.8)) date 2022-11-26 12:48:52*
%MOMM*%
%LPD*%
G01*
G04 APERTURE LIST*
G04 Aperture macros list*
%AMRoundRect*
0 Rectangle with rounded corners*
0 $1 Rounding radius*
0 $2 $3 $4 $5 $6 $7 $8 $9 X,Y pos of 4 corners*
0 Add a 4 corners polygon primitive as box body*
4,1,4,$2,$3,$4,$5,$6,$7,$8,$9,$2,$3,0*
0 Add four circle primitives for the rounded corners*
1,1,$1+$1,$2,$3*
1,1,$1+$1,$4,$5*
1,1,$1+$1,$6,$7*
1,1,$1+$1,$8,$9*
0 Add four rect primitives between the rounded corners*
20,1,$1+$1,$2,$3,$4,$5,0*
20,1,$1+$1,$4,$5,$6,$7,0*
20,1,$1+$1,$6,$7,$8,$9,0*
20,1,$1+$1,$8,$9,$2,$3,0*%
G04 Aperture macros list end*
%TA.AperFunction,ComponentPad*%
%ADD10C,1.600000*%
%TD*%
%TA.AperFunction,ComponentPad*%
%ADD11O,1.700000X1.700000*%
%TD*%
%TA.AperFunction,ComponentPad*%
%ADD12C,1.700000*%
%TD*%
%TA.AperFunction,ComponentPad*%
%ADD13O,1.600000X1.600000*%
%TD*%
%TA.AperFunction,ComponentPad*%
%ADD14R,1.500000X1.500000*%
%TD*%
%TA.AperFunction,ComponentPad*%
%ADD15C,1.500000*%
%TD*%
%TA.AperFunction,ComponentPad*%
%ADD16C,2.000000*%
%TD*%
%TA.AperFunction,ComponentPad*%
%ADD17C,1.400000*%
%TD*%
%TA.AperFunction,ComponentPad*%
%ADD18O,1.400000X1.400000*%
%TD*%
%TA.AperFunction,ComponentPad*%
%ADD19R,1.800000X1.800000*%
%TD*%
%TA.AperFunction,ComponentPad*%
%ADD20C,1.800000*%
%TD*%
%TA.AperFunction,ComponentPad*%
%ADD21R,1.600000X1.600000*%
%TD*%
%TA.AperFunction,ComponentPad*%
%ADD22R,1.905000X2.000000*%
%TD*%
%TA.AperFunction,ComponentPad*%
%ADD23O,1.905000X2.000000*%
%TD*%
%TA.AperFunction,ComponentPad*%
%ADD24RoundRect,0.875000X-0.875000X0.875000X-0.875000X-0.875000X0.875000X-0.875000X0.875000X0.875000X0*%
%TD*%
%TA.AperFunction,Conductor*%
%ADD25C,0.750000*%
%TD*%
G04 APERTURE END LIST*
D10*
%TO.P,C2,1*%
%TO.N,+5V*%
X144750000Y-87250000D03*
%TO.P,C2,2*%
%TO.N,GND*%
X144750000Y-89750000D03*
%TD*%
D11*
%TO.P,J3,1,Pin_1*%
%TO.N,+5V*%
X178025000Y-75765000D03*
D12*
%TO.P,J3,2,Pin_2*%
%TO.N,Net-(D1-Pad2)*%
X178025000Y-73225000D03*
D11*
%TO.P,J3,3,Pin_3*%
%TO.N,Net-(J2-Pad1)*%
X175485000Y-75765000D03*
%TO.P,J3,4,Pin_4*%
%TO.N,Net-(J2-Pad2)*%
X175485000Y-73225000D03*
%TO.P,J3,5,Pin_5*%
%TO.N,GND*%
X172945000Y-75765000D03*
%TO.P,J3,6,Pin_6*%
%TO.N,Net-(J3-Pad6)*%
X172945000Y-73225000D03*
%TD*%
D10*
%TO.P,R8,1*%
%TO.N,Net-(J3-Pad6)*%
X152060000Y-84000000D03*
D13*
%TO.P,R8,2*%
%TO.N,+5V*%
X144440000Y-84000000D03*
%TD*%
D14*
%TO.P,U2,1,VO*%
%TO.N,+5V*%
X139480000Y-84460000D03*
D15*
%TO.P,U2,2,GND*%
%TO.N,GND*%
X142020000Y-87000000D03*
%TO.P,U2,3,VI*%
%TO.N,VCC*%
X139480000Y-89540000D03*
%TD*%
D16*
%TO.P,SW3,1,1*%
%TO.N,Net-(J3-Pad6)*%
X154750000Y-84000000D03*
X154750000Y-90500000D03*
%TO.P,SW3,2,2*%
%TO.N,GND*%
X159250000Y-84000000D03*
X159250000Y-90500000D03*
%TD*%
D12*
%TO.P,J2,1,Pin_1*%
%TO.N,Net-(J2-Pad1)*%
X135500000Y-73700000D03*
D11*
%TO.P,J2,2,Pin_2*%
%TO.N,Net-(J2-Pad2)*%
X135500000Y-76240000D03*
%TO.P,J2,3,Pin_3*%
%TO.N,+5V*%
X135500000Y-78780000D03*
%TO.P,J2,4,Pin_4*%
%TO.N,GND*%
X135500000Y-81320000D03*
%TD*%
D17*
%TO.P,TH1,1*%
%TO.N,+5V*%
X148280000Y-91500000D03*
D18*
%TO.P,TH1,2*%
%TO.N,Net-(R2-Pad1)*%
X150820000Y-91500000D03*
%TD*%
D10*
%TO.P,R4,1*%
%TO.N,Net-(R3-Pad2)*%
X165750000Y-78440000D03*
D13*
%TO.P,R4,2*%
%TO.N,Net-(R4-Pad2)*%
X165750000Y-86060000D03*
%TD*%
D10*
%TO.P,R1,1*%
%TO.N,Net-(D1-Pad2)*%
X131810000Y-82750000D03*
D13*
%TO.P,R1,2*%
%TO.N,GND*%
X124190000Y-82750000D03*
%TD*%
D10*
%TO.P,R6,1*%
%TO.N,Net-(R4-Pad2)*%
X162500000Y-86060000D03*
D13*
%TO.P,R6,2*%
%TO.N,GND*%
X162500000Y-78440000D03*
%TD*%
D19*
%TO.P,D1,1,K*%
%TO.N,Net-(D1-Pad1)*%
X125000000Y-77000000D03*
D20*
%TO.P,D1,2,A*%
%TO.N,Net-(D1-Pad2)*%
X125000000Y-79540000D03*
%TD*%
D16*
%TO.P,,1,1*%
%TO.N,N/C*%
X149500000Y-103650000D03*
%TD*%
D21*
%TO.P,U1,1,~{RESET}/PB5*%
%TO.N,Net-(J3-Pad6)*%
X149800000Y-80800000D03*
D13*
%TO.P,U1,2,XTAL1/PB3*%
%TO.N,Net-(R2-Pad1)*%
X149800000Y-78260000D03*
%TO.P,U1,3,XTAL2/PB4*%
%TO.N,Net-(R7-Pad1)*%
X149800000Y-75720000D03*
%TO.P,U1,4,GND*%
%TO.N,GND*%
X149800000Y-73180000D03*
%TO.P,U1,5,AREF/PB0*%
%TO.N,Net-(J2-Pad1)*%
X142180000Y-73180000D03*
%TO.P,U1,6,PB1*%
%TO.N,Net-(D1-Pad2)*%
X142180000Y-75720000D03*
%TO.P,U1,7,PB2*%
%TO.N,Net-(J2-Pad2)*%
X142180000Y-78260000D03*
%TO.P,U1,8,VCC*%
%TO.N,+5V*%
X142180000Y-80800000D03*
%TD*%
D22*
%TO.P,Q1,1,G*%
%TO.N,Net-(D1-Pad2)*%
X131290000Y-88805000D03*
D23*
%TO.P,Q1,2,D*%
%TO.N,VCC*%
X128750000Y-88805000D03*
%TO.P,Q1,3,S*%
%TO.N,GND*%
X126210000Y-88805000D03*
%TD*%
D16*
%TO.P,SW1,1,1*%
%TO.N,Net-(R7-Pad1)*%
X173750000Y-84000000D03*
X180250000Y-84000000D03*
%TO.P,SW1,2,2*%
%TO.N,Net-(R3-Pad2)*%
X173750000Y-79500000D03*
X180250000Y-79500000D03*
%TD*%
D21*
%TO.P,C3,1*%
%TO.N,VCC*%
X114500000Y-88817621D03*
D10*
%TO.P,C3,2*%
%TO.N,GND*%
X114500000Y-91317621D03*
%TD*%
D24*
%TO.P,J1,1*%
%TO.N,VCC*%
X117500000Y-84500000D03*
%TO.P,J1,2*%
%TO.N,GND*%
X117500000Y-78500000D03*
%TO.P,J1,3*%
%TO.N,N/C*%
X112800000Y-81500000D03*
%TD*%
D10*
%TO.P,R3,1*%
%TO.N,+5V*%
X169000000Y-86060000D03*
D13*
%TO.P,R3,2*%
%TO.N,Net-(R3-Pad2)*%
X169000000Y-78440000D03*
%TD*%
D10*
%TO.P,R5,1*%
%TO.N,GND*%
X132310000Y-73500000D03*
D13*
%TO.P,R5,2*%
%TO.N,Net-(D1-Pad1)*%
X124690000Y-73500000D03*
%TD*%
D16*
%TO.P,SW2,1,1*%
%TO.N,Net-(R7-Pad1)*%
X173750000Y-91500000D03*
X180250000Y-91500000D03*
%TO.P,SW2,2,2*%
%TO.N,Net-(R4-Pad2)*%
X180250000Y-87000000D03*
X173750000Y-87000000D03*
%TD*%
D10*
%TO.P,R7,1*%
%TO.N,Net-(R7-Pad1)*%
X155190000Y-75750000D03*
D13*
%TO.P,R7,2*%
%TO.N,GND*%
X162810000Y-75750000D03*
%TD*%
D10*
%TO.P,C1,1*%
%TO.N,VCC*%
X135750000Y-86000000D03*
%TO.P,C1,2*%
%TO.N,GND*%
X135750000Y-88500000D03*
%TD*%
%TO.P,R2,1*%
%TO.N,Net-(R2-Pad1)*%
X162690000Y-89250000D03*
D13*
%TO.P,R2,2*%
%TO.N,GND*%
X170310000Y-89250000D03*
%TD*%
D25*
%TO.N,VCC*%
X135000000Y-86750000D02*
X135750000Y-86000000D01*
X120750000Y-84500000D02*
X123000000Y-86750000D01*
X117500000Y-84500000D02*
X120750000Y-84500000D01*
X123000000Y-86750000D02*
X135000000Y-86750000D01*
%TO.N,Net-(D1-Pad2)*%
X136750000Y-84250000D02*
X139500000Y-81500000D01*
X139530000Y-75720000D02*
X142180000Y-75720000D01*
X131810000Y-82750000D02*
X133310000Y-84250000D01*
X139500000Y-81500000D02*
X139500000Y-75750000D01*
X133310000Y-84250000D02*
X136750000Y-84250000D01*
X139500000Y-75750000D02*
X139530000Y-75720000D01*
%TO.N,Net-(J2-Pad1)*%
X171750000Y-77500000D02*
X173775000Y-77500000D01*
X142180000Y-73180000D02*
X146320000Y-73180000D01*
X148000000Y-71500000D02*
X165750000Y-71500000D01*
X173775000Y-77500000D02*
X175485000Y-75790000D01*
X165750000Y-71500000D02*
X171750000Y-77500000D01*
X146320000Y-73180000D02*
X148000000Y-71500000D01*
%TO.N,Net-(R7-Pad1)*%
X171250000Y-81500000D02*
X173750000Y-84000000D01*
X149800000Y-75720000D02*
X155160000Y-75720000D01*
X155160000Y-75720000D02*
X155190000Y-75750000D01*
X155190000Y-75750000D02*
X160940000Y-81500000D01*
X160940000Y-81500000D02*
X171250000Y-81500000D01*
%TD*%
%TA.AperFunction,Conductor*%
%TO.N,GND*%
G36*
X147252531Y-70519454D02*
G01*
X147333313Y-70573430D01*
X147387289Y-70654212D01*
X147406243Y-70749500D01*
X147387289Y-70844788D01*
X147346864Y-70910884D01*
X147339140Y-70919960D01*
X147329342Y-70929225D01*
X147323672Y-70937568D01*
X147316321Y-70945535D01*
X146030286Y-72231570D01*
X145949504Y-72285546D01*
X145854216Y-72304500D01*
X143246826Y-72304500D01*
X143151538Y-72285546D01*
X143070756Y-72231570D01*
X143019139Y-72179953D01*
X142832734Y-72049432D01*
X142626496Y-71953261D01*
X142406692Y-71894365D01*
X142395864Y-71893418D01*
X142395860Y-71893417D01*
X142190836Y-71875480D01*
X142180000Y-71874532D01*
X142169164Y-71875480D01*
X141964140Y-71893417D01*
X141964136Y-71893418D01*
X141953308Y-71894365D01*
X141733504Y-71953261D01*
X141527266Y-72049432D01*
X141340861Y-72179953D01*
X141179953Y-72340861D01*
X141049432Y-72527266D01*
X140953261Y-72733504D01*
X140950448Y-72744001D01*
X140950448Y-72744002D01*
X140926174Y-72834594D01*
X140894365Y-72953308D01*
X140893418Y-72964136D01*
X140893417Y-72964140D01*
X140878816Y-73131037D01*
X140874532Y-73180000D01*
X140875480Y-73190836D01*
X140887436Y-73327489D01*
X140894365Y-73406692D01*
X140953261Y-73626496D01*
X141049432Y-73832734D01*
X141055670Y-73841642D01*
X141055670Y-73841643D01*
X141058299Y-73845397D01*
X141179953Y-74019139D01*
X141340861Y-74180047D01*
X141435097Y-74246031D01*
X141502281Y-74316211D01*
X141537494Y-74406760D01*
X141535375Y-74503892D01*
X141496247Y-74592819D01*
X141435098Y-74653968D01*
X141340861Y-74719953D01*
X141289244Y-74771570D01*
X141208462Y-74825546D01*
X141113174Y-74844500D01*
X139577263Y-74844500D01*
X139556430Y-74843627D01*
X139546567Y-74842799D01*
X139521920Y-74840729D01*
X139521917Y-74840729D01*
X139508483Y-74839601D01*
X139478311Y-74843627D01*
X139427817Y-74850364D01*
X139421777Y-74851095D01*
X139354293Y-74858426D01*
X139354292Y-74858426D01*
X139340891Y-74859882D01*
X139330648Y-74863329D01*
X139319932Y-74864759D01*
X139307265Y-74869370D01*
X139307263Y-74869370D01*
X139275693Y-74880861D01*
X139251219Y-74889769D01*
X139243482Y-74892585D01*
X139237750Y-74894593D01*
X139160604Y-74920555D01*
X139151338Y-74926122D01*
X139141182Y-74929819D01*
X139072423Y-74973454D01*
X139067337Y-74976595D01*
X139052219Y-74985679D01*
X139009109Y-75011582D01*
X139009107Y-75011584D01*
X138997553Y-75018526D01*
X138990024Y-75025646D01*
X138989197Y-75026271D01*
X138980572Y-75031745D01*
X138976218Y-75035638D01*
X138922304Y-75089552D01*
X138917314Y-75094404D01*
X138905053Y-75105998D01*
X138894700Y-75115255D01*
X138862249Y-75142678D01*
X138812784Y-75207375D01*
X138809085Y-75212092D01*
X138766540Y-75265007D01*
X138766537Y-75265011D01*
X138758084Y-75275525D01*
X138753278Y-75285206D01*
X138746713Y-75293793D01*
X138741015Y-75306012D01*
X138741011Y-75306019D01*
X138712317Y-75367554D01*
X138709685Y-75373024D01*
X138673505Y-75445909D01*
X138670890Y-75456397D01*
X138666322Y-75466193D01*
X138650293Y-75537905D01*
X138648577Y-75545580D01*
X138647177Y-75551503D01*
X138632084Y-75612038D01*
X138627486Y-75630480D01*
X138627196Y-75640845D01*
X138627056Y-75641859D01*
X138624826Y-75651834D01*
X138624500Y-75657665D01*
X138624500Y-75733886D01*
X138624403Y-75740839D01*
X138622174Y-75820628D01*
X138624065Y-75830540D01*
X138624500Y-75841376D01*
X138624500Y-81034217D01*
X138605546Y-81129505D01*
X138551570Y-81210287D01*
X136460286Y-83301570D01*
X136379504Y-83355546D01*
X136284216Y-83374500D01*
X133775784Y-83374500D01*
X133680496Y-83355546D01*
X133599714Y-83301570D01*
X133186006Y-82887862D01*
X133132030Y-82807080D01*
X133114024Y-82733494D01*
X133096583Y-82534140D01*
X133096582Y-82534136D01*
X133095635Y-82523308D01*
X133054356Y-82369251D01*
X133039552Y-82314002D01*
X133039552Y-82314001D01*
X133036739Y-82303504D01*
X132940568Y-82097266D01*
X132932435Y-82085650D01*
X132887967Y-82022144D01*
X132810047Y-81910861D01*
X132649139Y-81749953D01*
X132490879Y-81639139D01*
X132471643Y-81625670D01*
X132471642Y-81625670D01*
X132462734Y-81619432D01*
X132388410Y-81584774D01*
X134167846Y-81584774D01*
X134168146Y-81587471D01*
X134197456Y-81717529D01*
X134203542Y-81736949D01*
X134279867Y-81924917D01*
X134289057Y-81943110D01*
X134395053Y-82116079D01*
X134407081Y-82132513D01*
X134539909Y-82285853D01*
X134554468Y-82300110D01*
X134710549Y-82429691D01*
X134727241Y-82441379D01*
X134902394Y-82543730D01*
X134920762Y-82552531D01*
X135110279Y-82624900D01*
X135129853Y-82630587D01*
X135221965Y-82649327D01*
X135242824Y-82649418D01*
X135245982Y-82641886D01*
X135246000Y-82641712D01*
X135246000Y-82632105D01*
X135754000Y-82632105D01*
X135758069Y-82652563D01*
X135768919Y-82654721D01*
X135773176Y-82654175D01*
X135793099Y-82649941D01*
X135987412Y-82591644D01*
X136006379Y-82584211D01*
X136188567Y-82494957D01*
X136206053Y-82484533D01*
X136371212Y-82366727D01*
X136386776Y-82353575D01*
X136530477Y-82210374D01*
X136543674Y-82194867D01*
X136662064Y-82030110D01*
X136672547Y-82012664D01*
X136762438Y-81830784D01*
X136769933Y-81811854D01*
X136828912Y-81617732D01*
X136833141Y-81598172D01*
X136831786Y-81577503D01*
X136821466Y-81574000D01*
X135778527Y-81574000D01*
X135758069Y-81578069D01*
X135754000Y-81598527D01*
X135754000Y-82632105D01*
X135246000Y-82632105D01*
X135246000Y-81598527D01*
X135241931Y-81578069D01*
X135221473Y-81574000D01*
X134189637Y-81574000D01*
X134169179Y-81578069D01*
X134167846Y-81584774D01*
X132388410Y-81584774D01*
X132256496Y-81523261D01*
X132203796Y-81509140D01*
X132058711Y-81470265D01*
X132036692Y-81464365D01*
X132025864Y-81463418D01*
X132025860Y-81463417D01*
X131820836Y-81445480D01*
X131810000Y-81444532D01*
X131799164Y-81445480D01*
X131594140Y-81463417D01*
X131594136Y-81463418D01*
X131583308Y-81464365D01*
X131561289Y-81470265D01*
X131416205Y-81509140D01*
X131363504Y-81523261D01*
X131157266Y-81619432D01*
X131148358Y-81625670D01*
X131148357Y-81625670D01*
X131129121Y-81639139D01*
X130970861Y-81749953D01*
X130809953Y-81910861D01*
X130732033Y-82022144D01*
X130687566Y-82085650D01*
X130679432Y-82097266D01*
X130583261Y-82303504D01*
X130580448Y-82314001D01*
X130580448Y-82314002D01*
X130565644Y-82369251D01*
X130524365Y-82523308D01*
X130523418Y-82534136D01*
X130523417Y-82534140D01*
X130507050Y-82721216D01*
X130504532Y-82750000D01*
X130505480Y-82760836D01*
X130507528Y-82784239D01*
X130524365Y-82976692D01*
X130527178Y-82987190D01*
X130576100Y-83169769D01*
X130583261Y-83196496D01*
X130679432Y-83402734D01*
X130809953Y-83589139D01*
X130970861Y-83750047D01*
X131060541Y-83812841D01*
X131131104Y-83862249D01*
X131157266Y-83880568D01*
X131363504Y-83976739D01*
X131374001Y-83979552D01*
X131374002Y-83979552D01*
X131450316Y-84000000D01*
X131583308Y-84035635D01*
X131594136Y-84036582D01*
X131594140Y-84036583D01*
X131793494Y-84054024D01*
X131886768Y-84081210D01*
X131947862Y-84126006D01*
X132657506Y-84835650D01*
X132671622Y-84851002D01*
X132693975Y-84877453D01*
X132693978Y-84877456D01*
X132702678Y-84887751D01*
X132765354Y-84935670D01*
X132767312Y-84937167D01*
X132772098Y-84940920D01*
X132825013Y-84983464D01*
X132825018Y-84983467D01*
X132835525Y-84991915D01*
X132845202Y-84996719D01*
X132853793Y-85003287D01*
X132927612Y-85037710D01*
X132933047Y-85040326D01*
X132993827Y-85070498D01*
X132993831Y-85070500D01*
X133005909Y-85076495D01*
X133016397Y-85079110D01*
X133026193Y-85083678D01*
X133039353Y-85086620D01*
X133039354Y-85086620D01*
X133059402Y-85091101D01*
X133105604Y-85101429D01*
X133111503Y-85102823D01*
X133177392Y-85119251D01*
X133177394Y-85119251D01*
X133190480Y-85122514D01*
X133200845Y-85122804D01*
X133201859Y-85122944D01*
X133211834Y-85125174D01*
X133217665Y-85125500D01*
X133293908Y-85125500D01*
X133300860Y-85125597D01*
X133380628Y-85127825D01*
X133390537Y-85125935D01*
X133401363Y-85125500D01*
X134331991Y-85125500D01*
X134427279Y-85144454D01*
X134508061Y-85198430D01*
X134562037Y-85279212D01*
X134580991Y-85374500D01*
X134562037Y-85469788D01*
X134557667Y-85479720D01*
X134523261Y-85553504D01*
X134520449Y-85563998D01*
X134520447Y-85564004D01*
X134486702Y-85689945D01*
X134443732Y-85777081D01*
X134370687Y-85841140D01*
X134278688Y-85872370D01*
X134246186Y-85874500D01*
X123465784Y-85874500D01*
X123370496Y-85855546D01*
X123289714Y-85801570D01*
X121402494Y-83914350D01*
X121388378Y-83898998D01*
X121366025Y-83872547D01*
X121366022Y-83872544D01*
X121357322Y-83862249D01*
X121292625Y-83812784D01*
X121287908Y-83809085D01*
X121234993Y-83766540D01*
X121234989Y-83766537D01*
X121224475Y-83758084D01*
X121214794Y-83753278D01*
X121206207Y-83746713D01*
X121193988Y-83741015D01*
X121193981Y-83741011D01*
X121132446Y-83712317D01*
X121126965Y-83709680D01*
X121112820Y-83702658D01*
X121054091Y-83673505D01*
X121043603Y-83670890D01*
X121033807Y-83666322D01*
X121020647Y-83663380D01*
X121020646Y-83663380D01*
X121000598Y-83658899D01*
X120954396Y-83648571D01*
X120948497Y-83647177D01*
X120882608Y-83630749D01*
X120882606Y-83630749D01*
X120869520Y-83627486D01*
X120859155Y-83627196D01*
X120858141Y-83627056D01*
X120848166Y-83624826D01*
X120842335Y-83624500D01*
X120766114Y-83624500D01*
X120759161Y-83624403D01*
X120758121Y-83624374D01*
X120679372Y-83622174D01*
X120669460Y-83624065D01*
X120658624Y-83624500D01*
X119981494Y-83624500D01*
X119886206Y-83605546D01*
X119805424Y-83551570D01*
X119751448Y-83470788D01*
X119737110Y-83423225D01*
X119735582Y-83415397D01*
X119702658Y-83246807D01*
X119698922Y-83236946D01*
X119623688Y-83038369D01*
X119623686Y-83038365D01*
X119619955Y-83028517D01*
X119610398Y-83012260D01*
X122907154Y-83012260D01*
X122908141Y-83019761D01*
X122953375Y-83188576D01*
X122960779Y-83208919D01*
X123048320Y-83396651D01*
X123059143Y-83415397D01*
X123177954Y-83585077D01*
X123191870Y-83601661D01*
X123338339Y-83748130D01*
X123354923Y-83762046D01*
X123524603Y-83880857D01*
X123543349Y-83891680D01*
X123731081Y-83979221D01*
X123751424Y-83986625D01*
X123912313Y-84029735D01*
X123933123Y-84031099D01*
X123935012Y-84027268D01*
X123936000Y-84019763D01*
X123936000Y-84011555D01*
X124444000Y-84011555D01*
X124448069Y-84032013D01*
X124452260Y-84032846D01*
X124459761Y-84031859D01*
X124628576Y-83986625D01*
X124648919Y-83979221D01*
X124836651Y-83891680D01*
X124855397Y-83880857D01*
X125025077Y-83762046D01*
X125041661Y-83748130D01*
X125188130Y-83601661D01*
X125202046Y-83585077D01*
X125320857Y-83415397D01*
X125331680Y-83396651D01*
X125419221Y-83208919D01*
X125426625Y-83188576D01*
X125469735Y-83027687D01*
X125471099Y-83006877D01*
X125467268Y-83004988D01*
X125459763Y-83004000D01*
X124468527Y-83004000D01*
X124448069Y-83008069D01*
X124444000Y-83028527D01*
X124444000Y-84011555D01*
X123936000Y-84011555D01*
X123936000Y-83028527D01*
X123931931Y-83008069D01*
X123911473Y-83004000D01*
X122928445Y-83004000D01*
X122907987Y-83008069D01*
X122907154Y-83012260D01*
X119610398Y-83012260D01*
X119506999Y-82836371D01*
X119506996Y-82836367D01*
X119501656Y-82827283D01*
X119375689Y-82677957D01*
X119357948Y-82656926D01*
X119351142Y-82648858D01*
X119172717Y-82498344D01*
X119163835Y-82493123D01*
X122908901Y-82493123D01*
X122912732Y-82495012D01*
X122920237Y-82496000D01*
X123911473Y-82496000D01*
X123931931Y-82491931D01*
X123936000Y-82471473D01*
X124444000Y-82471473D01*
X124448069Y-82491931D01*
X124468527Y-82496000D01*
X125451555Y-82496000D01*
X125472013Y-82491931D01*
X125472846Y-82487740D01*
X125471859Y-82480239D01*
X125426625Y-82311424D01*
X125419221Y-82291081D01*
X125331680Y-82103349D01*
X125320857Y-82084603D01*
X125202046Y-81914923D01*
X125188130Y-81898339D01*
X125041661Y-81751870D01*
X125025077Y-81737954D01*
X124855397Y-81619143D01*
X124836651Y-81608320D01*
X124648919Y-81520779D01*
X124628576Y-81513375D01*
X124467687Y-81470265D01*
X124446877Y-81468901D01*
X124444988Y-81472732D01*
X124444000Y-81480237D01*
X124444000Y-82471473D01*
X123936000Y-82471473D01*
X123936000Y-81488445D01*
X123931931Y-81467987D01*
X123927740Y-81467154D01*
X123920239Y-81468141D01*
X123751424Y-81513375D01*
X123731081Y-81520779D01*
X123543349Y-81608320D01*
X123524603Y-81619143D01*
X123354923Y-81737954D01*
X123338339Y-81751870D01*
X123191870Y-81898339D01*
X123177954Y-81914923D01*
X123059143Y-82084603D01*
X123048320Y-82103349D01*
X122960779Y-82291081D01*
X122953375Y-82311424D01*
X122910265Y-82472313D01*
X122908901Y-82493123D01*
X119163835Y-82493123D01*
X119163633Y-82493004D01*
X119163629Y-82493001D01*
X118980569Y-82385386D01*
X118980566Y-82385384D01*
X118971483Y-82380045D01*
X118961635Y-82376314D01*
X118961631Y-82376312D01*
X118763054Y-82301078D01*
X118753193Y-82297342D01*
X118524090Y-82252601D01*
X118515471Y-82252134D01*
X118515469Y-82252134D01*
X118505956Y-82251619D01*
X118466829Y-82249500D01*
X117500432Y-82249500D01*
X116533172Y-82249501D01*
X116475910Y-82252601D01*
X116467434Y-82254256D01*
X116467428Y-82254257D01*
X116329934Y-82281108D01*
X116246807Y-82297342D01*
X116236946Y-82301078D01*
X116038369Y-82376312D01*
X116038365Y-82376314D01*
X116028517Y-82380045D01*
X116019434Y-82385384D01*
X116019431Y-82385386D01*
X115836371Y-82493001D01*
X115836367Y-82493004D01*
X115827283Y-82498344D01*
X115648858Y-82648858D01*
X115642052Y-82656926D01*
X115624311Y-82677957D01*
X115498344Y-82827283D01*
X115476268Y-82864836D01*
X115472659Y-82870975D01*
X115408028Y-82943514D01*
X115320557Y-82985798D01*
X115223563Y-82991390D01*
X115131812Y-82959438D01*
X115059273Y-82894807D01*
X115016989Y-82807336D01*
X115011397Y-82710342D01*
X115013621Y-82697057D01*
X115045743Y-82532574D01*
X115045744Y-82532562D01*
X115047399Y-82524090D01*
X115047867Y-82515458D01*
X115048804Y-82498150D01*
X115050500Y-82466829D01*
X115050499Y-80533172D01*
X115047399Y-80475910D01*
X115045742Y-80467425D01*
X115045741Y-80467417D01*
X115017949Y-80325105D01*
X115018287Y-80227950D01*
X115055780Y-80138321D01*
X115124718Y-80069862D01*
X115214606Y-80032996D01*
X115311761Y-80033334D01*
X115401390Y-80070827D01*
X115469849Y-80139765D01*
X115476985Y-80151185D01*
X115486855Y-80167973D01*
X115498998Y-80185124D01*
X115636730Y-80348396D01*
X115651604Y-80363270D01*
X115814876Y-80501002D01*
X115832019Y-80513140D01*
X116016172Y-80621398D01*
X116035130Y-80630481D01*
X116234889Y-80706163D01*
X116255087Y-80711917D01*
X116466624Y-80753227D01*
X116483718Y-80755349D01*
X116529320Y-80757818D01*
X116536035Y-80758000D01*
X117221473Y-80758000D01*
X117241931Y-80753931D01*
X117246000Y-80733473D01*
X117754000Y-80733473D01*
X117758069Y-80753931D01*
X117778527Y-80758000D01*
X118463965Y-80758000D01*
X118470680Y-80757818D01*
X118516282Y-80755349D01*
X118533376Y-80753227D01*
X118744913Y-80711917D01*
X118765111Y-80706163D01*
X118964870Y-80630481D01*
X118983828Y-80621398D01*
X119167981Y-80513140D01*
X119185124Y-80501002D01*
X119348396Y-80363270D01*
X119363270Y-80348396D01*
X119501002Y-80185124D01*
X119513140Y-80167981D01*
X119621398Y-79983828D01*
X119630481Y-79964870D01*
X119706163Y-79765111D01*
X119711917Y-79744913D01*
X119753227Y-79533376D01*
X119755349Y-79516282D01*
X119755924Y-79505665D01*
X123595119Y-79505665D01*
X123608376Y-79735580D01*
X123610623Y-79745548D01*
X123610623Y-79745552D01*
X123656754Y-79950249D01*
X123659006Y-79960242D01*
X123662850Y-79969708D01*
X123662851Y-79969712D01*
X123690730Y-80038369D01*
X123745649Y-80173618D01*
X123750992Y-80182337D01*
X123813143Y-80283757D01*
X123865979Y-80369978D01*
X123872663Y-80377695D01*
X123872668Y-80377701D01*
X123950491Y-80467541D01*
X124016763Y-80544048D01*
X124193953Y-80691154D01*
X124392790Y-80807345D01*
X124607934Y-80889501D01*
X124833607Y-80935414D01*
X124944329Y-80939474D01*
X125053537Y-80943479D01*
X125053543Y-80943479D01*
X125063749Y-80943853D01*
X125073880Y-80942555D01*
X125073885Y-80942555D01*
X125196058Y-80926904D01*
X125292178Y-80914591D01*
X125301962Y-80911656D01*
X125301965Y-80911655D01*
X125502972Y-80851350D01*
X125502974Y-80851349D01*
X125512761Y-80848413D01*
X125521936Y-80843918D01*
X125521939Y-80843917D01*
X125633703Y-80789164D01*
X125719574Y-80747096D01*
X125907062Y-80613363D01*
X126037832Y-80483048D01*
X126062948Y-80458020D01*
X126062949Y-80458019D01*
X126070190Y-80450803D01*
X126128269Y-80369978D01*
X126172516Y-80308401D01*
X126204577Y-80263783D01*
X126306615Y-80057325D01*
X126344438Y-79932835D01*
X126370591Y-79846758D01*
X126370592Y-79846754D01*
X126373563Y-79836975D01*
X126395648Y-79669221D01*
X126402758Y-79615214D01*
X126402758Y-79615209D01*
X126403622Y-79608649D01*
X126404320Y-79580114D01*
X126405138Y-79546626D01*
X126405300Y-79540000D01*
X126404756Y-79533376D01*
X126387267Y-79320659D01*
X126386430Y-79310478D01*
X126383131Y-79297342D01*
X126332817Y-79097036D01*
X126332816Y-79097033D01*
X126330326Y-79087120D01*
X126288073Y-78989943D01*
X126242571Y-78885295D01*
X126242569Y-78885291D01*
X126238496Y-78875924D01*
X126213589Y-78837423D01*
X126176440Y-78780000D01*
X134144341Y-78780000D01*
X134164937Y-79015408D01*
X134226097Y-79243663D01*
X134230691Y-79253516D01*
X134230693Y-79253520D01*
X134266898Y-79331160D01*
X134325965Y-79457829D01*
X134332202Y-79466737D01*
X134332203Y-79466738D01*
X134338764Y-79476108D01*
X134461505Y-79651401D01*
X134628599Y-79818495D01*
X134637497Y-79824725D01*
X134637500Y-79824728D01*
X134662646Y-79842335D01*
X134729830Y-79912517D01*
X134765042Y-80003066D01*
X134762923Y-80100198D01*
X134723794Y-80189125D01*
X134669330Y-80245425D01*
X134603476Y-80294870D01*
X134588235Y-80308401D01*
X134448080Y-80455065D01*
X134435257Y-80470901D01*
X134320937Y-80638487D01*
X134310877Y-80656196D01*
X134225463Y-80840205D01*
X134218428Y-80859327D01*
X134164911Y-81052301D01*
X134165818Y-81062388D01*
X134177374Y-81066000D01*
X136811932Y-81066000D01*
X136832390Y-81061931D01*
X136833419Y-81056755D01*
X136832723Y-81051127D01*
X136792444Y-80890773D01*
X136785880Y-80871492D01*
X136704986Y-80685446D01*
X136695364Y-80667502D01*
X136585168Y-80497164D01*
X136572737Y-80481022D01*
X136436209Y-80330980D01*
X136421305Y-80317082D01*
X136325862Y-80241706D01*
X136262829Y-80167774D01*
X136232887Y-80075348D01*
X136240594Y-79978499D01*
X136284776Y-79891972D01*
X136337367Y-79842326D01*
X136362497Y-79824730D01*
X136362499Y-79824728D01*
X136371401Y-79818495D01*
X136538495Y-79651401D01*
X136661236Y-79476108D01*
X136667797Y-79466738D01*
X136667798Y-79466737D01*
X136674035Y-79457829D01*
X136733102Y-79331160D01*
X136769307Y-79253520D01*
X136769309Y-79253516D01*
X136773903Y-79243663D01*
X136835063Y-79015408D01*
X136855659Y-78780000D01*
X136835063Y-78544592D01*
X136773903Y-78316337D01*
X136760544Y-78287687D01*
X136678631Y-78112027D01*
X136674035Y-78102171D01*
X136667635Y-78093030D01*
X136629467Y-78038521D01*
X136538495Y-77908599D01*
X136371401Y-77741505D01*
X136362497Y-77735270D01*
X136332075Y-77713968D01*
X136264892Y-77643786D01*
X136229680Y-77553237D01*
X136231800Y-77456105D01*
X136270929Y-77367178D01*
X136332075Y-77306032D01*
X136362497Y-77284730D01*
X136362499Y-77284728D01*
X136371401Y-77278495D01*
X136538495Y-77111401D01*
X136655971Y-76943627D01*
X136667797Y-76926738D01*
X136667798Y-76926737D01*
X136674035Y-76917829D01*
X136678631Y-76907973D01*
X136769307Y-76713520D01*
X136769309Y-76713516D01*
X136773903Y-76703663D01*
X136835063Y-76475408D01*
X136855659Y-76240000D01*
X136835063Y-76004592D01*
X136773903Y-75776337D01*
X136768617Y-75765000D01*
X136678631Y-75572027D01*
X136674035Y-75562171D01*
X136538495Y-75368599D01*
X136371401Y-75201505D01*
X136362497Y-75195270D01*
X136332075Y-75173968D01*
X136264892Y-75103786D01*
X136229680Y-75013237D01*
X136231800Y-74916105D01*
X136270929Y-74827178D01*
X136332075Y-74766032D01*
X136362497Y-74744730D01*
X136362499Y-74744728D01*
X136371401Y-74738495D01*
X136538495Y-74571401D01*
X136653792Y-74406739D01*
X136667797Y-74386738D01*
X136667798Y-74386737D01*
X136674035Y-74377829D01*
X136693087Y-74336972D01*
X136769307Y-74173520D01*
X136769309Y-74173516D01*
X136773903Y-74163663D01*
X136835063Y-73935408D01*
X136840213Y-73876551D01*
X136854711Y-73710835D01*
X136855659Y-73700000D01*
X136835063Y-73464592D01*
X136773903Y-73236337D01*
X136768617Y-73225000D01*
X136678631Y-73032027D01*
X136674035Y-73022171D01*
X136538495Y-72828599D01*
X136371401Y-72661505D01*
X136362503Y-72655275D01*
X136362500Y-72655272D01*
X136186729Y-72532196D01*
X136186728Y-72532195D01*
X136177830Y-72525965D01*
X136167985Y-72521374D01*
X136167983Y-72521373D01*
X136091055Y-72485501D01*
X135963663Y-72426097D01*
X135953165Y-72423284D01*
X135953162Y-72423283D01*
X135839858Y-72392924D01*
X135735408Y-72364937D01*
X135724575Y-72363989D01*
X135724574Y-72363989D01*
X135561040Y-72349681D01*
X135500000Y-72344341D01*
X135438960Y-72349681D01*
X135275426Y-72363989D01*
X135275425Y-72363989D01*
X135264592Y-72364937D01*
X135036337Y-72426097D01*
X135026484Y-72430691D01*
X135026480Y-72430693D01*
X134877953Y-72499953D01*
X134822171Y-72525965D01*
X134813263Y-72532202D01*
X134813262Y-72532203D01*
X134785659Y-72551531D01*
X134628599Y-72661505D01*
X134461505Y-72828599D01*
X134325965Y-73022171D01*
X134321369Y-73032027D01*
X134231384Y-73225000D01*
X134226097Y-73236337D01*
X134164937Y-73464592D01*
X134144341Y-73700000D01*
X134145289Y-73710835D01*
X134159788Y-73876551D01*
X134164937Y-73935408D01*
X134226097Y-74163663D01*
X134230691Y-74173516D01*
X134230693Y-74173520D01*
X134306913Y-74336972D01*
X134325965Y-74377829D01*
X134332202Y-74386737D01*
X134332203Y-74386738D01*
X134346208Y-74406739D01*
X134461505Y-74571401D01*
X134628599Y-74738495D01*
X134637501Y-74744728D01*
X134637503Y-74744730D01*
X134667923Y-74766030D01*
X134735108Y-74836211D01*
X134770321Y-74926760D01*
X134768202Y-75023892D01*
X134729074Y-75112819D01*
X134667926Y-75173968D01*
X134628599Y-75201505D01*
X134461505Y-75368599D01*
X134325965Y-75562171D01*
X134321369Y-75572027D01*
X134231384Y-75765000D01*
X134226097Y-75776337D01*
X134164937Y-76004592D01*
X134144341Y-76240000D01*
X134164937Y-76475408D01*
X134226097Y-76703663D01*
X134230691Y-76713516D01*
X134230693Y-76713520D01*
X134321369Y-76907973D01*
X134325965Y-76917829D01*
X134332202Y-76926737D01*
X134332203Y-76926738D01*
X134344029Y-76943627D01*
X134461505Y-77111401D01*
X134628599Y-77278495D01*
X134637501Y-77284728D01*
X134637503Y-77284730D01*
X134667923Y-77306030D01*
X134735108Y-77376211D01*
X134770321Y-77466760D01*
X134768202Y-77563892D01*
X134729074Y-77652819D01*
X134667926Y-77713968D01*
X134628599Y-77741505D01*
X134461505Y-77908599D01*
X134370533Y-78038521D01*
X134332366Y-78093030D01*
X134325965Y-78102171D01*
X134321369Y-78112027D01*
X134239457Y-78287687D01*
X134226097Y-78316337D01*
X134164937Y-78544592D01*
X134144341Y-78780000D01*
X126176440Y-78780000D01*
X126118955Y-78691141D01*
X126118951Y-78691136D01*
X126113405Y-78682563D01*
X126110720Y-78679613D01*
X126068759Y-78594895D01*
X126062236Y-78497959D01*
X126093305Y-78405906D01*
X126159829Y-78330782D01*
X126257546Y-78257546D01*
X126343526Y-78142824D01*
X126380457Y-78044309D01*
X126388372Y-78023196D01*
X126388372Y-78023195D01*
X126393851Y-78008580D01*
X126400500Y-77947377D01*
X126400499Y-76052624D01*
X126393851Y-75991420D01*
X126343526Y-75857176D01*
X126257546Y-75742454D01*
X126142824Y-75656474D01*
X126065764Y-75627586D01*
X126023196Y-75611628D01*
X126023195Y-75611628D01*
X126008580Y-75606149D01*
X125947377Y-75599500D01*
X125000633Y-75599500D01*
X124052624Y-75599501D01*
X123991420Y-75606149D01*
X123857176Y-75656474D01*
X123742454Y-75742454D01*
X123656474Y-75857176D01*
X123650247Y-75873787D01*
X123616706Y-75963260D01*
X123606149Y-75991420D01*
X123599500Y-76052623D01*
X123599501Y-77947376D01*
X123606149Y-78008580D01*
X123656474Y-78142824D01*
X123742454Y-78257546D01*
X123756652Y-78268187D01*
X123841024Y-78331421D01*
X123905907Y-78403735D01*
X123938177Y-78495374D01*
X123932923Y-78592387D01*
X123897392Y-78670986D01*
X123778099Y-78845863D01*
X123681136Y-79054752D01*
X123619592Y-79276673D01*
X123614891Y-79320659D01*
X123597142Y-79486739D01*
X123595119Y-79505665D01*
X119755924Y-79505665D01*
X119757818Y-79470680D01*
X119758000Y-79463965D01*
X119758000Y-78778527D01*
X119753931Y-78758069D01*
X119733473Y-78754000D01*
X117778527Y-78754000D01*
X117758069Y-78758069D01*
X117754000Y-78778527D01*
X117754000Y-80733473D01*
X117246000Y-80733473D01*
X117246000Y-78778527D01*
X117241931Y-78758069D01*
X117221473Y-78754000D01*
X115266527Y-78754000D01*
X115246069Y-78758069D01*
X115242000Y-78778527D01*
X115242000Y-79463965D01*
X115242182Y-79470680D01*
X115244651Y-79516282D01*
X115246774Y-79533386D01*
X115274936Y-79677592D01*
X115274598Y-79774746D01*
X115237105Y-79864376D01*
X115168167Y-79932835D01*
X115078279Y-79969701D01*
X114981125Y-79969363D01*
X114891495Y-79931870D01*
X114823036Y-79862932D01*
X114815899Y-79851511D01*
X114806998Y-79836370D01*
X114801656Y-79827283D01*
X114651142Y-79648858D01*
X114472717Y-79498344D01*
X114463633Y-79493004D01*
X114463629Y-79493001D01*
X114280569Y-79385386D01*
X114280566Y-79385384D01*
X114271483Y-79380045D01*
X114261635Y-79376314D01*
X114261631Y-79376312D01*
X114063054Y-79301078D01*
X114053193Y-79297342D01*
X113824090Y-79252601D01*
X113815471Y-79252134D01*
X113815469Y-79252134D01*
X113805956Y-79251619D01*
X113766829Y-79249500D01*
X112800432Y-79249500D01*
X111833172Y-79249501D01*
X111775910Y-79252601D01*
X111767434Y-79254256D01*
X111767428Y-79254257D01*
X111640018Y-79279139D01*
X111546807Y-79297342D01*
X111536946Y-79301078D01*
X111338369Y-79376312D01*
X111338365Y-79376314D01*
X111328517Y-79380045D01*
X111319434Y-79385384D01*
X111319431Y-79385386D01*
X111136371Y-79493001D01*
X111136367Y-79493004D01*
X111127283Y-79498344D01*
X110948858Y-79648858D01*
X110798344Y-79827283D01*
X110793004Y-79836367D01*
X110793001Y-79836371D01*
X110685386Y-80019431D01*
X110680045Y-80028517D01*
X110676314Y-80038365D01*
X110676312Y-80038369D01*
X110620712Y-80185124D01*
X110597342Y-80246807D01*
X110552601Y-80475910D01*
X110552134Y-80484529D01*
X110552134Y-80484531D01*
X110551619Y-80494044D01*
X110549500Y-80533171D01*
X110549501Y-82466828D01*
X110552601Y-82524090D01*
X110554256Y-82532566D01*
X110554257Y-82532572D01*
X110576967Y-82648858D01*
X110597342Y-82753193D01*
X110601078Y-82763054D01*
X110675482Y-82959438D01*
X110680045Y-82971483D01*
X110685384Y-82980566D01*
X110685386Y-82980569D01*
X110786856Y-83153175D01*
X110798344Y-83172717D01*
X110948858Y-83351142D01*
X111127283Y-83501656D01*
X111136367Y-83506996D01*
X111136371Y-83506999D01*
X111319431Y-83614614D01*
X111319434Y-83614616D01*
X111328517Y-83619955D01*
X111338365Y-83623686D01*
X111338369Y-83623688D01*
X111485685Y-83679501D01*
X111546807Y-83702658D01*
X111775910Y-83747399D01*
X111784529Y-83747866D01*
X111784531Y-83747866D01*
X111794044Y-83748381D01*
X111833171Y-83750500D01*
X112799568Y-83750500D01*
X113766828Y-83750499D01*
X113824090Y-83747399D01*
X113832566Y-83745744D01*
X113832572Y-83745743D01*
X113970066Y-83718892D01*
X114053193Y-83702658D01*
X114114315Y-83679501D01*
X114261631Y-83623688D01*
X114261635Y-83623686D01*
X114271483Y-83619955D01*
X114280566Y-83614616D01*
X114280569Y-83614614D01*
X114463629Y-83506999D01*
X114463633Y-83506996D01*
X114472717Y-83501656D01*
X114651142Y-83351142D01*
X114801656Y-83172717D01*
X114827341Y-83129025D01*
X114891972Y-83056486D01*
X114979443Y-83014202D01*
X115076437Y-83008610D01*
X115168188Y-83040562D01*
X115240727Y-83105193D01*
X115283011Y-83192664D01*
X115288603Y-83289658D01*
X115286379Y-83302943D01*
X115254257Y-83467426D01*
X115254256Y-83467438D01*
X115252601Y-83475910D01*
X115249500Y-83533171D01*
X115249501Y-85466828D01*
X115252601Y-85524090D01*
X115254256Y-85532566D01*
X115254257Y-85532572D01*
X115272634Y-85626673D01*
X115297342Y-85753193D01*
X115301078Y-85763054D01*
X115371452Y-85948801D01*
X115380045Y-85971483D01*
X115385384Y-85980566D01*
X115385386Y-85980569D01*
X115470687Y-86125670D01*
X115498344Y-86172717D01*
X115648858Y-86351142D01*
X115827283Y-86501656D01*
X115836367Y-86506996D01*
X115836371Y-86506999D01*
X116019431Y-86614614D01*
X116019434Y-86614616D01*
X116028517Y-86619955D01*
X116038365Y-86623686D01*
X116038369Y-86623688D01*
X116115035Y-86652734D01*
X116246807Y-86702658D01*
X116475910Y-86747399D01*
X116484529Y-86747866D01*
X116484531Y-86747866D01*
X116494044Y-86748381D01*
X116533171Y-86750500D01*
X117499568Y-86750500D01*
X118466828Y-86750499D01*
X118524090Y-86747399D01*
X118532566Y-86745744D01*
X118532572Y-86745743D01*
X118670066Y-86718892D01*
X118753193Y-86702658D01*
X118884965Y-86652734D01*
X118961631Y-86623688D01*
X118961635Y-86623686D01*
X118971483Y-86619955D01*
X118980566Y-86614616D01*
X118980569Y-86614614D01*
X119163629Y-86506999D01*
X119163633Y-86506996D01*
X119172717Y-86501656D01*
X119351142Y-86351142D01*
X119501656Y-86172717D01*
X119529314Y-86125670D01*
X119614614Y-85980569D01*
X119614616Y-85980566D01*
X119619955Y-85971483D01*
X119628549Y-85948801D01*
X119698922Y-85763054D01*
X119702658Y-85753193D01*
X119737111Y-85576774D01*
X119773976Y-85486887D01*
X119842435Y-85417948D01*
X119932064Y-85380456D01*
X119981494Y-85375500D01*
X120284216Y-85375500D01*
X120379504Y-85394454D01*
X120460286Y-85448430D01*
X122347506Y-87335650D01*
X122361622Y-87351002D01*
X122383975Y-87377453D01*
X122383978Y-87377456D01*
X122392678Y-87387751D01*
X122457375Y-87437216D01*
X122462092Y-87440915D01*
X122515007Y-87483460D01*
X122515011Y-87483463D01*
X122525525Y-87491916D01*
X122535206Y-87496722D01*
X122543793Y-87503287D01*
X122617527Y-87537670D01*
X122623005Y-87540307D01*
X122683829Y-87570500D01*
X122683836Y-87570503D01*
X122695910Y-87576496D01*
X122706400Y-87579111D01*
X122716193Y-87583678D01*
X122729353Y-87586620D01*
X122729354Y-87586620D01*
X122795579Y-87601423D01*
X122801497Y-87602822D01*
X122867390Y-87619251D01*
X122867396Y-87619252D01*
X122880480Y-87622514D01*
X122890844Y-87622804D01*
X122891860Y-87622945D01*
X122901834Y-87625174D01*
X122907665Y-87625500D01*
X122983886Y-87625500D01*
X122990839Y-87625597D01*
X123070628Y-87627826D01*
X123080540Y-87625935D01*
X123091376Y-87625500D01*
X124742883Y-87625500D01*
X124838171Y-87644454D01*
X124918953Y-87698430D01*
X124972929Y-87779212D01*
X124991883Y-87874500D01*
X124972929Y-87969788D01*
X124948581Y-88014818D01*
X124941512Y-88025180D01*
X124931448Y-88042897D01*
X124838933Y-88242202D01*
X124831905Y-88261303D01*
X124773185Y-88473041D01*
X124769367Y-88493058D01*
X124765780Y-88526615D01*
X124767652Y-88547386D01*
X124779218Y-88551000D01*
X126215000Y-88551000D01*
X126310288Y-88569954D01*
X126391070Y-88623930D01*
X126445046Y-88704712D01*
X126464000Y-88800000D01*
X126464000Y-90266684D01*
X126468069Y-90287142D01*
X126477863Y-90289090D01*
X126539524Y-90279654D01*
X126559346Y-90274932D01*
X126768186Y-90206672D01*
X126786973Y-90198775D01*
X126981868Y-90097319D01*
X126999108Y-90086462D01*
X127174818Y-89954536D01*
X127190040Y-89941021D01*
X127305655Y-89820036D01*
X127385191Y-89764241D01*
X127480025Y-89743130D01*
X127575718Y-89759917D01*
X127657704Y-89812047D01*
X127669843Y-89824487D01*
X127748783Y-89911242D01*
X127748788Y-89911246D01*
X127755660Y-89918799D01*
X127943166Y-90066883D01*
X127983483Y-90089139D01*
X128143394Y-90177415D01*
X128143398Y-90177417D01*
X128152340Y-90182353D01*
X128161966Y-90185762D01*
X128161971Y-90185764D01*
X128367935Y-90258699D01*
X128377565Y-90262109D01*
X128612792Y-90304009D01*
X128623013Y-90304134D01*
X128623014Y-90304134D01*
X128763903Y-90305855D01*
X128851704Y-90306928D01*
X129045440Y-90277283D01*
X129077781Y-90272334D01*
X129077782Y-90272334D01*
X129087884Y-90270788D01*
X129206332Y-90232073D01*
X129305271Y-90199735D01*
X129305275Y-90199734D01*
X129314990Y-90196558D01*
X129526923Y-90086233D01*
X129580929Y-90045684D01*
X129668510Y-90003628D01*
X129765518Y-89998289D01*
X129857185Y-90030480D01*
X129929685Y-90095473D01*
X129939695Y-90108829D01*
X129979954Y-90162546D01*
X129994152Y-90173187D01*
X130006382Y-90182353D01*
X130094676Y-90248526D01*
X130111287Y-90254753D01*
X130214304Y-90293372D01*
X130214305Y-90293372D01*
X130228920Y-90298851D01*
X130290123Y-90305500D01*
X131289332Y-90305500D01*
X132289876Y-90305499D01*
X132351080Y-90298851D01*
X132485324Y-90248526D01*
X132573618Y-90182353D01*
X132585848Y-90173187D01*
X132600046Y-90162546D01*
X132686026Y-90047824D01*
X132711756Y-89979188D01*
X132730872Y-89928196D01*
X132730872Y-89928195D01*
X132736351Y-89913580D01*
X132743000Y-89852377D01*
X132743000Y-89587099D01*
X135027865Y-89587099D01*
X135032925Y-89594671D01*
X135084594Y-89630851D01*
X135103354Y-89641682D01*
X135291081Y-89729221D01*
X135311424Y-89736625D01*
X135511507Y-89790237D01*
X135532824Y-89793996D01*
X135739176Y-89812049D01*
X135760824Y-89812049D01*
X135967176Y-89793996D01*
X135988493Y-89790237D01*
X136188576Y-89736625D01*
X136208919Y-89729221D01*
X136396646Y-89641682D01*
X136415406Y-89630851D01*
X136457800Y-89601166D01*
X136472222Y-89586100D01*
X136468554Y-89577764D01*
X136430790Y-89540000D01*
X138224723Y-89540000D01*
X138225670Y-89550825D01*
X138229090Y-89589917D01*
X138243793Y-89757977D01*
X138300425Y-89969330D01*
X138317253Y-90005418D01*
X138385560Y-90151901D01*
X138392898Y-90167638D01*
X138518402Y-90346877D01*
X138673123Y-90501598D01*
X138682021Y-90507828D01*
X138682024Y-90507831D01*
X138827681Y-90609821D01*
X138852361Y-90627102D01*
X139050670Y-90719575D01*
X139061173Y-90722389D01*
X139061175Y-90722390D01*
X139141024Y-90743785D01*
X139262023Y-90776207D01*
X139480000Y-90795277D01*
X139697977Y-90776207D01*
X139818976Y-90743785D01*
X139898825Y-90722390D01*
X139898827Y-90722389D01*
X139909330Y-90719575D01*
X140107639Y-90627102D01*
X140132319Y-90609821D01*
X140277976Y-90507831D01*
X140277979Y-90507828D01*
X140286877Y-90501598D01*
X140441598Y-90346877D01*
X140567102Y-90167638D01*
X140574441Y-90151901D01*
X140642747Y-90005418D01*
X140659575Y-89969330D01*
X140715444Y-89760824D01*
X143437951Y-89760824D01*
X143456004Y-89967176D01*
X143459763Y-89988493D01*
X143513375Y-90188576D01*
X143520779Y-90208919D01*
X143608318Y-90396646D01*
X143619149Y-90415406D01*
X143648834Y-90457800D01*
X143663900Y-90472222D01*
X143672236Y-90468554D01*
X144373449Y-89767341D01*
X144385036Y-89750000D01*
X145114964Y-89750000D01*
X145126551Y-89767341D01*
X145819758Y-90460548D01*
X145837099Y-90472135D01*
X145844671Y-90467075D01*
X145880851Y-90415406D01*
X145891682Y-90396646D01*
X145979221Y-90208919D01*
X145986625Y-90188576D01*
X146040237Y-89988493D01*
X146043996Y-89967176D01*
X146062049Y-89760824D01*
X146062049Y-89739176D01*
X146043996Y-89532824D01*
X146040237Y-89511507D01*
X145986625Y-89311424D01*
X145979221Y-89291081D01*
X145891682Y-89103354D01*
X145880851Y-89084594D01*
X145851166Y-89042200D01*
X145836100Y-89027778D01*
X145827764Y-89031446D01*
X145126551Y-89732659D01*
X145114964Y-89750000D01*
X144385036Y-89750000D01*
X144373449Y-89732659D01*
X143680242Y-89039452D01*
X143662901Y-89027865D01*
X143655329Y-89032925D01*
X143619149Y-89084594D01*
X143608318Y-89103354D01*
X143520779Y-89291081D01*
X143513375Y-89311424D01*
X143459763Y-89511507D01*
X143456004Y-89532824D01*
X143437951Y-89739176D01*
X143437951Y-89760824D01*
X140715444Y-89760824D01*
X140716207Y-89757977D01*
X140730910Y-89589917D01*
X140734330Y-89550825D01*
X140735277Y-89540000D01*
X140732484Y-89508069D01*
X140717154Y-89332848D01*
X140716207Y-89322023D01*
X140659575Y-89110670D01*
X140567102Y-88912362D01*
X140441598Y-88733123D01*
X140286877Y-88578402D01*
X140277979Y-88572172D01*
X140277976Y-88572169D01*
X140116538Y-88459129D01*
X140116537Y-88459128D01*
X140107639Y-88452898D01*
X139909330Y-88360425D01*
X139898827Y-88357611D01*
X139898825Y-88357610D01*
X139818976Y-88336215D01*
X139697977Y-88303793D01*
X139480000Y-88284723D01*
X139262023Y-88303793D01*
X139050670Y-88360425D01*
X139040811Y-88365022D01*
X139040812Y-88365022D01*
X138862215Y-88448303D01*
X138862211Y-88448305D01*
X138852362Y-88452898D01*
X138673123Y-88578402D01*
X138518402Y-88733123D01*
X138392898Y-88912362D01*
X138300425Y-89110670D01*
X138243793Y-89322023D01*
X138242846Y-89332848D01*
X138227517Y-89508069D01*
X138224723Y-89540000D01*
X136430790Y-89540000D01*
X135767341Y-88876551D01*
X135750000Y-88864964D01*
X135732659Y-88876551D01*
X135039452Y-89569758D01*
X135027865Y-89587099D01*
X132743000Y-89587099D01*
X132742999Y-87874500D01*
X132761953Y-87779212D01*
X132815929Y-87698431D01*
X132896711Y-87644454D01*
X132991999Y-87625500D01*
X134323716Y-87625500D01*
X134419004Y-87644454D01*
X134499786Y-87698430D01*
X134553762Y-87779212D01*
X134572716Y-87874500D01*
X134553762Y-87969788D01*
X134549386Y-87979733D01*
X134520781Y-88041076D01*
X134513375Y-88061424D01*
X134459763Y-88261507D01*
X134456004Y-88282824D01*
X134437951Y-88489176D01*
X134437951Y-88510824D01*
X134456004Y-88717176D01*
X134459763Y-88738493D01*
X134513375Y-88938576D01*
X134520779Y-88958919D01*
X134608318Y-89146646D01*
X134619149Y-89165406D01*
X134648834Y-89207800D01*
X134663900Y-89222222D01*
X134672236Y-89218554D01*
X135390790Y-88500000D01*
X136114964Y-88500000D01*
X136126551Y-88517341D01*
X136819758Y-89210548D01*
X136837099Y-89222135D01*
X136844671Y-89217075D01*
X136880851Y-89165406D01*
X136891682Y-89146646D01*
X136979221Y-88958919D01*
X136986625Y-88938576D01*
X137040237Y-88738493D01*
X137043996Y-88717176D01*
X137062049Y-88510824D01*
X137062049Y-88489176D01*
X137043996Y-88282824D01*
X137040237Y-88261507D01*
X136986625Y-88061424D01*
X136982904Y-88051199D01*
X141333766Y-88051199D01*
X141338826Y-88058771D01*
X141379693Y-88087386D01*
X141398450Y-88098216D01*
X141578238Y-88182053D01*
X141598596Y-88189463D01*
X141790215Y-88240806D01*
X141811550Y-88244568D01*
X142009164Y-88261857D01*
X142030836Y-88261857D01*
X142228450Y-88244568D01*
X142249785Y-88240806D01*
X142441404Y-88189463D01*
X142461762Y-88182053D01*
X142641550Y-88098216D01*
X142660307Y-88087386D01*
X142691899Y-88065265D01*
X142706322Y-88050200D01*
X142702655Y-88041866D01*
X142037342Y-87376552D01*
X142020000Y-87364965D01*
X142002658Y-87376552D01*
X141345354Y-88033857D01*
X141333766Y-88051199D01*
X136982904Y-88051199D01*
X136979221Y-88041081D01*
X136891682Y-87853354D01*
X136880851Y-87834594D01*
X136851166Y-87792200D01*
X136836100Y-87777778D01*
X136827764Y-87781446D01*
X136126551Y-88482659D01*
X136114964Y-88500000D01*
X135390790Y-88500000D01*
X136460548Y-87430242D01*
X136472135Y-87412900D01*
X136456846Y-87390018D01*
X136419667Y-87300258D01*
X136419668Y-87203103D01*
X136456849Y-87113344D01*
X136521063Y-87047714D01*
X136540449Y-87034140D01*
X136573731Y-87010836D01*
X140758143Y-87010836D01*
X140775432Y-87208450D01*
X140779194Y-87229785D01*
X140830537Y-87421402D01*
X140837947Y-87441762D01*
X140921784Y-87621548D01*
X140932615Y-87640308D01*
X140954735Y-87671900D01*
X140969800Y-87686321D01*
X140978136Y-87682653D01*
X141643448Y-87017342D01*
X141655035Y-87000000D01*
X142384965Y-87000000D01*
X142396552Y-87017342D01*
X143053857Y-87674646D01*
X143071199Y-87686234D01*
X143078772Y-87681173D01*
X143093916Y-87659545D01*
X143164096Y-87592360D01*
X143254645Y-87557146D01*
X143351777Y-87559265D01*
X143440704Y-87598393D01*
X143507889Y-87668573D01*
X143523556Y-87697130D01*
X143606266Y-87874500D01*
X143619432Y-87902734D01*
X143749953Y-88089139D01*
X143910861Y-88250047D01*
X143964140Y-88287353D01*
X143980284Y-88298657D01*
X144047468Y-88368839D01*
X144082680Y-88459388D01*
X144080561Y-88556520D01*
X144041432Y-88645447D01*
X144027368Y-88662583D01*
X144027289Y-88662788D01*
X144031446Y-88672236D01*
X144732659Y-89373449D01*
X144750000Y-89385036D01*
X144767341Y-89373449D01*
X145460548Y-88680242D01*
X145472135Y-88662900D01*
X145456846Y-88640018D01*
X145419667Y-88550258D01*
X145419668Y-88453103D01*
X145456849Y-88363344D01*
X145521063Y-88297714D01*
X145572772Y-88261507D01*
X145589139Y-88250047D01*
X145750047Y-88089139D01*
X145880568Y-87902734D01*
X145976739Y-87696496D01*
X145983330Y-87671900D01*
X146017633Y-87543878D01*
X146035635Y-87476692D01*
X146037842Y-87451474D01*
X146054520Y-87260836D01*
X146055468Y-87250000D01*
X146051036Y-87199340D01*
X146036583Y-87034140D01*
X146036582Y-87034136D01*
X146035635Y-87023308D01*
X145986287Y-86839139D01*
X145979552Y-86814002D01*
X145979552Y-86814001D01*
X145976739Y-86803504D01*
X145880568Y-86597266D01*
X145750047Y-86410861D01*
X145589139Y-86249953D01*
X145402734Y-86119432D01*
X145275283Y-86060000D01*
X161194532Y-86060000D01*
X161195480Y-86070836D01*
X161211151Y-86249953D01*
X161214365Y-86286692D01*
X161273261Y-86506496D01*
X161369432Y-86712734D01*
X161499953Y-86899139D01*
X161660861Y-87060047D01*
X161847266Y-87190568D01*
X162053504Y-87286739D01*
X162273308Y-87345635D01*
X162284136Y-87346582D01*
X162284140Y-87346583D01*
X162489164Y-87364520D01*
X162500000Y-87365468D01*
X162510836Y-87364520D01*
X162715860Y-87346583D01*
X162715864Y-87346582D01*
X162726692Y-87345635D01*
X162946496Y-87286739D01*
X163152734Y-87190568D01*
X163339139Y-87060047D01*
X163500047Y-86899139D01*
X163630568Y-86712734D01*
X163726739Y-86506496D01*
X163785635Y-86286692D01*
X163788850Y-86249953D01*
X163804520Y-86070836D01*
X163805468Y-86060000D01*
X164444532Y-86060000D01*
X164445480Y-86070836D01*
X164461151Y-86249953D01*
X164464365Y-86286692D01*
X164523261Y-86506496D01*
X164619432Y-86712734D01*
X164749953Y-86899139D01*
X164910861Y-87060047D01*
X165097266Y-87190568D01*
X165303504Y-87286739D01*
X165523308Y-87345635D01*
X165534136Y-87346582D01*
X165534140Y-87346583D01*
X165739164Y-87364520D01*
X165750000Y-87365468D01*
X165760836Y-87364520D01*
X165965860Y-87346583D01*
X165965864Y-87346582D01*
X165976692Y-87345635D01*
X166196496Y-87286739D01*
X166402734Y-87190568D01*
X166589139Y-87060047D01*
X166750047Y-86899139D01*
X166880568Y-86712734D01*
X166976739Y-86506496D01*
X167035635Y-86286692D01*
X167038850Y-86249953D01*
X167054520Y-86070836D01*
X167055468Y-86060000D01*
X167694532Y-86060000D01*
X167695480Y-86070836D01*
X167711151Y-86249953D01*
X167714365Y-86286692D01*
X167773261Y-86506496D01*
X167869432Y-86712734D01*
X167999953Y-86899139D01*
X168160861Y-87060047D01*
X168347266Y-87190568D01*
X168553504Y-87286739D01*
X168773308Y-87345635D01*
X168784136Y-87346582D01*
X168784140Y-87346583D01*
X168989164Y-87364520D01*
X169000000Y-87365468D01*
X169010836Y-87364520D01*
X169215860Y-87346583D01*
X169215864Y-87346582D01*
X169226692Y-87345635D01*
X169446496Y-87286739D01*
X169652734Y-87190568D01*
X169839139Y-87060047D01*
X170000047Y-86899139D01*
X170130568Y-86712734D01*
X170226739Y-86506496D01*
X170285635Y-86286692D01*
X170288850Y-86249953D01*
X170304520Y-86070836D01*
X170305468Y-86060000D01*
X170295827Y-85949800D01*
X170286583Y-85844140D01*
X170286582Y-85844136D01*
X170285635Y-85833308D01*
X170226739Y-85613504D01*
X170130568Y-85407266D01*
X170000047Y-85220861D01*
X169839139Y-85059953D01*
X169652734Y-84929432D01*
X169446496Y-84833261D01*
X169399898Y-84820775D01*
X169336594Y-84803813D01*
X169226692Y-84774365D01*
X169215864Y-84773418D01*
X169215860Y-84773417D01*
X169010836Y-84755480D01*
X169000000Y-84754532D01*
X168989164Y-84755480D01*
X168784140Y-84773417D01*
X168784136Y-84773418D01*
X168773308Y-84774365D01*
X168663406Y-84803813D01*
X168600103Y-84820775D01*
X168553504Y-84833261D01*
X168347266Y-84929432D01*
X168160861Y-85059953D01*
X167999953Y-85220861D01*
X167869432Y-85407266D01*
X167773261Y-85613504D01*
X167714365Y-85833308D01*
X167713418Y-85844136D01*
X167713417Y-85844140D01*
X167704173Y-85949800D01*
X167694532Y-86060000D01*
X167055468Y-86060000D01*
X167045827Y-85949800D01*
X167036583Y-85844140D01*
X167036582Y-85844136D01*
X167035635Y-85833308D01*
X166976739Y-85613504D01*
X166880568Y-85407266D01*
X166750047Y-85220861D01*
X166589139Y-85059953D01*
X166402734Y-84929432D01*
X166196496Y-84833261D01*
X166149898Y-84820775D01*
X166086594Y-84803813D01*
X165976692Y-84774365D01*
X165965864Y-84773418D01*
X165965860Y-84773417D01*
X165760836Y-84755480D01*
X165750000Y-84754532D01*
X165739164Y-84755480D01*
X165534140Y-84773417D01*
X165534136Y-84773418D01*
X165523308Y-84774365D01*
X165413406Y-84803813D01*
X165350103Y-84820775D01*
X165303504Y-84833261D01*
X165097266Y-84929432D01*
X164910861Y-85059953D01*
X164749953Y-85220861D01*
X164619432Y-85407266D01*
X164523261Y-85613504D01*
X164464365Y-85833308D01*
X164463418Y-85844136D01*
X164463417Y-85844140D01*
X164454173Y-85949800D01*
X164444532Y-86060000D01*
X163805468Y-86060000D01*
X163795827Y-85949800D01*
X163786583Y-85844140D01*
X163786582Y-85844136D01*
X163785635Y-85833308D01*
X163726739Y-85613504D01*
X163630568Y-85407266D01*
X163500047Y-85220861D01*
X163339139Y-85059953D01*
X163152734Y-84929432D01*
X162946496Y-84833261D01*
X162899898Y-84820775D01*
X162836594Y-84803813D01*
X162726692Y-84774365D01*
X162715864Y-84773418D01*
X162715860Y-84773417D01*
X162510836Y-84755480D01*
X162500000Y-84754532D01*
X162489164Y-84755480D01*
X162284140Y-84773417D01*
X162284136Y-84773418D01*
X162273308Y-84774365D01*
X162163406Y-84803813D01*
X162100103Y-84820775D01*
X162053504Y-84833261D01*
X161847266Y-84929432D01*
X161660861Y-85059953D01*
X161499953Y-85220861D01*
X161369432Y-85407266D01*
X161273261Y-85613504D01*
X161214365Y-85833308D01*
X161213418Y-85844136D01*
X161213417Y-85844140D01*
X161204173Y-85949800D01*
X161194532Y-86060000D01*
X145275283Y-86060000D01*
X145196496Y-86023261D01*
X144976692Y-85964365D01*
X144965864Y-85963418D01*
X144965860Y-85963417D01*
X144760836Y-85945480D01*
X144750000Y-85944532D01*
X144739164Y-85945480D01*
X144534140Y-85963417D01*
X144534136Y-85963418D01*
X144523308Y-85964365D01*
X144303504Y-86023261D01*
X144097266Y-86119432D01*
X143910861Y-86249953D01*
X143749953Y-86410861D01*
X143718102Y-86456349D01*
X143627194Y-86586180D01*
X143557013Y-86653364D01*
X143466464Y-86688577D01*
X143369332Y-86686458D01*
X143280405Y-86647329D01*
X143213221Y-86577148D01*
X143197555Y-86548593D01*
X143118216Y-86378452D01*
X143107385Y-86359692D01*
X143085265Y-86328100D01*
X143070200Y-86313679D01*
X143061864Y-86317347D01*
X142396552Y-86982658D01*
X142384965Y-87000000D01*
X141655035Y-87000000D01*
X141643448Y-86982658D01*
X140986143Y-86325354D01*
X140968801Y-86313766D01*
X140961229Y-86318826D01*
X140932615Y-86359692D01*
X140921784Y-86378452D01*
X140837947Y-86558238D01*
X140830537Y-86578598D01*
X140779194Y-86770215D01*
X140775432Y-86791550D01*
X140758143Y-86989164D01*
X140758143Y-87010836D01*
X136573731Y-87010836D01*
X136589139Y-87000047D01*
X136750047Y-86839139D01*
X136880568Y-86652734D01*
X136976739Y-86446496D01*
X136983901Y-86419769D01*
X137019558Y-86286692D01*
X137035635Y-86226692D01*
X137041153Y-86163629D01*
X137054520Y-86010836D01*
X137055468Y-86000000D01*
X137052973Y-85971483D01*
X137051076Y-85949800D01*
X141333679Y-85949800D01*
X141337347Y-85958136D01*
X142002658Y-86623448D01*
X142020000Y-86635035D01*
X142037342Y-86623448D01*
X142694646Y-85966143D01*
X142706234Y-85948801D01*
X142701174Y-85941229D01*
X142660307Y-85912614D01*
X142641550Y-85901784D01*
X142461762Y-85817947D01*
X142441404Y-85810537D01*
X142249785Y-85759194D01*
X142228450Y-85755432D01*
X142030836Y-85738143D01*
X142009164Y-85738143D01*
X141811550Y-85755432D01*
X141790215Y-85759194D01*
X141598598Y-85810537D01*
X141578238Y-85817947D01*
X141398452Y-85901784D01*
X141379692Y-85912615D01*
X141348100Y-85934735D01*
X141333679Y-85949800D01*
X137051076Y-85949800D01*
X137036583Y-85784140D01*
X137036582Y-85784136D01*
X137035635Y-85773308D01*
X137000689Y-85642887D01*
X136979552Y-85564002D01*
X136979552Y-85564001D01*
X136976739Y-85553504D01*
X136910621Y-85411714D01*
X136887528Y-85317344D01*
X136902307Y-85221320D01*
X136952708Y-85138261D01*
X137031058Y-85080812D01*
X137056869Y-85070488D01*
X137106616Y-85053746D01*
X137119396Y-85049445D01*
X137128662Y-85043878D01*
X137138818Y-85040181D01*
X137207577Y-84996546D01*
X137212663Y-84993405D01*
X137241901Y-84975837D01*
X137270891Y-84958418D01*
X137270893Y-84958416D01*
X137282447Y-84951474D01*
X137289972Y-84944358D01*
X137290810Y-84943724D01*
X137299428Y-84938255D01*
X137303781Y-84934363D01*
X137357698Y-84880446D01*
X137362684Y-84875598D01*
X137410861Y-84830040D01*
X137410863Y-84830038D01*
X137420658Y-84820775D01*
X137426328Y-84812431D01*
X137433679Y-84804465D01*
X137804430Y-84433714D01*
X137885212Y-84379738D01*
X137980500Y-84360784D01*
X138075788Y-84379738D01*
X138156570Y-84433714D01*
X138210546Y-84514496D01*
X138229500Y-84609784D01*
X138229501Y-84931923D01*
X138229501Y-85257376D01*
X138236149Y-85318580D01*
X138286474Y-85452824D01*
X138372454Y-85567546D01*
X138487176Y-85653526D01*
X138503787Y-85659753D01*
X138606804Y-85698372D01*
X138606805Y-85698372D01*
X138621420Y-85703851D01*
X138682623Y-85710500D01*
X139479467Y-85710500D01*
X140277376Y-85710499D01*
X140338580Y-85703851D01*
X140472824Y-85653526D01*
X140587546Y-85567546D01*
X140673526Y-85452824D01*
X140711496Y-85351537D01*
X140718372Y-85333196D01*
X140718372Y-85333195D01*
X140723851Y-85318580D01*
X140730500Y-85257377D01*
X140730499Y-84000000D01*
X143134532Y-84000000D01*
X143135480Y-84010836D01*
X143137404Y-84032822D01*
X143154365Y-84226692D01*
X143213261Y-84446496D01*
X143309432Y-84652734D01*
X143439953Y-84839139D01*
X143600861Y-85000047D01*
X143717710Y-85081865D01*
X143775764Y-85122514D01*
X143787266Y-85130568D01*
X143993504Y-85226739D01*
X144213308Y-85285635D01*
X144224136Y-85286582D01*
X144224140Y-85286583D01*
X144429164Y-85304520D01*
X144440000Y-85305468D01*
X144450836Y-85304520D01*
X144655860Y-85286583D01*
X144655864Y-85286582D01*
X144666692Y-85285635D01*
X144886496Y-85226739D01*
X145092734Y-85130568D01*
X145104237Y-85122514D01*
X145162290Y-85081865D01*
X145279139Y-85000047D01*
X145440047Y-84839139D01*
X145570568Y-84652734D01*
X145666739Y-84446496D01*
X145725635Y-84226692D01*
X145742597Y-84032822D01*
X145744520Y-84010836D01*
X145745468Y-84000000D01*
X150754532Y-84000000D01*
X150755480Y-84010836D01*
X150757404Y-84032822D01*
X150774365Y-84226692D01*
X150833261Y-84446496D01*
X150929432Y-84652734D01*
X151059953Y-84839139D01*
X151220861Y-85000047D01*
X151337710Y-85081865D01*
X151395764Y-85122514D01*
X151407266Y-85130568D01*
X151613504Y-85226739D01*
X151833308Y-85285635D01*
X151844136Y-85286582D01*
X151844140Y-85286583D01*
X152049164Y-85304520D01*
X152060000Y-85305468D01*
X152070836Y-85304520D01*
X152275860Y-85286583D01*
X152275864Y-85286582D01*
X152286692Y-85285635D01*
X152506496Y-85226739D01*
X152712734Y-85130568D01*
X152724237Y-85122514D01*
X152782290Y-85081865D01*
X152899139Y-85000047D01*
X153060047Y-84839139D01*
X153079124Y-84811894D01*
X153149305Y-84744710D01*
X153239854Y-84709497D01*
X153336986Y-84711616D01*
X153425913Y-84750745D01*
X153495399Y-84824610D01*
X153529616Y-84880446D01*
X153535006Y-84889241D01*
X153696557Y-85075741D01*
X153818964Y-85177365D01*
X153871908Y-85221320D01*
X153886399Y-85233351D01*
X154030136Y-85317344D01*
X154057274Y-85333202D01*
X154099433Y-85357838D01*
X154329939Y-85445859D01*
X154339950Y-85447896D01*
X154339954Y-85447897D01*
X154561713Y-85493015D01*
X154561715Y-85493015D01*
X154571726Y-85495052D01*
X154674353Y-85498815D01*
X154808087Y-85503719D01*
X154808093Y-85503719D01*
X154818300Y-85504093D01*
X154828431Y-85502795D01*
X154828436Y-85502795D01*
X154963670Y-85485471D01*
X155063041Y-85472741D01*
X155082114Y-85467019D01*
X155152644Y-85445859D01*
X155299374Y-85401838D01*
X155520954Y-85293287D01*
X155605330Y-85233102D01*
X158381862Y-85233102D01*
X158385165Y-85238044D01*
X158388627Y-85240773D01*
X158554923Y-85342681D01*
X158572305Y-85351537D01*
X158773523Y-85434884D01*
X158792073Y-85440912D01*
X159003849Y-85491755D01*
X159023128Y-85494808D01*
X159240241Y-85511895D01*
X159259759Y-85511895D01*
X159476872Y-85494808D01*
X159496151Y-85491755D01*
X159707927Y-85440912D01*
X159726477Y-85434884D01*
X159927695Y-85351537D01*
X159945077Y-85342681D01*
X160102981Y-85245916D01*
X160118296Y-85231759D01*
X160116239Y-85226181D01*
X160113512Y-85222722D01*
X159267341Y-84376551D01*
X159250000Y-84364964D01*
X159232659Y-84376551D01*
X158393449Y-85215761D01*
X158381862Y-85233102D01*
X155605330Y-85233102D01*
X155615033Y-85226181D01*
X155713512Y-85155937D01*
X155713516Y-85155934D01*
X155721829Y-85150004D01*
X155896605Y-84975837D01*
X156040588Y-84775463D01*
X156149911Y-84554264D01*
X156161994Y-84514496D01*
X156218669Y-84327956D01*
X156218669Y-84327954D01*
X156221639Y-84318180D01*
X156232302Y-84237190D01*
X156252981Y-84080114D01*
X156252981Y-84080111D01*
X156253845Y-84073550D01*
X156254323Y-84054024D01*
X156255404Y-84009759D01*
X157738105Y-84009759D01*
X157755192Y-84226872D01*
X157758245Y-84246151D01*
X157809088Y-84457927D01*
X157815116Y-84476477D01*
X157898463Y-84677695D01*
X157907319Y-84695077D01*
X158004084Y-84852981D01*
X158018241Y-84868296D01*
X158023819Y-84866239D01*
X158027278Y-84863512D01*
X158873449Y-84017341D01*
X158885036Y-84000000D01*
X159614964Y-84000000D01*
X159626551Y-84017341D01*
X160465761Y-84856551D01*
X160483102Y-84868138D01*
X160488044Y-84864835D01*
X160490773Y-84861373D01*
X160592681Y-84695077D01*
X160601537Y-84677695D01*
X160684884Y-84476477D01*
X160690912Y-84457927D01*
X160741755Y-84246151D01*
X160744808Y-84226872D01*
X160761895Y-84009759D01*
X160761895Y-83990241D01*
X160744808Y-83773128D01*
X160741755Y-83753849D01*
X160690912Y-83542073D01*
X160684884Y-83523523D01*
X160601537Y-83322305D01*
X160592681Y-83304923D01*
X160495916Y-83147019D01*
X160481759Y-83131704D01*
X160476181Y-83133761D01*
X160472722Y-83136488D01*
X159626551Y-83982659D01*
X159614964Y-84000000D01*
X158885036Y-84000000D01*
X158873449Y-83982659D01*
X158034239Y-83143449D01*
X158016898Y-83131862D01*
X158011956Y-83135165D01*
X158009227Y-83138627D01*
X157907319Y-83304923D01*
X157898463Y-83322305D01*
X157815116Y-83523523D01*
X157809088Y-83542073D01*
X157758245Y-83753849D01*
X157755192Y-83773128D01*
X157738105Y-83990241D01*
X157738105Y-84009759D01*
X156255404Y-84009759D01*
X156255481Y-84006625D01*
X156255643Y-84000000D01*
X156235425Y-83754089D01*
X156175316Y-83514783D01*
X156076928Y-83288507D01*
X155942905Y-83081339D01*
X155776846Y-82898842D01*
X155611476Y-82768241D01*
X158381704Y-82768241D01*
X158383761Y-82773819D01*
X158386488Y-82777278D01*
X159232659Y-83623449D01*
X159250000Y-83635036D01*
X159267341Y-83623449D01*
X160106551Y-82784239D01*
X160118138Y-82766898D01*
X160114835Y-82761956D01*
X160111373Y-82759227D01*
X159945077Y-82657319D01*
X159927695Y-82648463D01*
X159726477Y-82565116D01*
X159707927Y-82559088D01*
X159496151Y-82508245D01*
X159476872Y-82505192D01*
X159259759Y-82488105D01*
X159240241Y-82488105D01*
X159023128Y-82505192D01*
X159003849Y-82508245D01*
X158792073Y-82559088D01*
X158773523Y-82565116D01*
X158572305Y-82648463D01*
X158554923Y-82657319D01*
X158397019Y-82754084D01*
X158381704Y-82768241D01*
X155611476Y-82768241D01*
X155583210Y-82745918D01*
X155570976Y-82739164D01*
X155409348Y-82649941D01*
X155367198Y-82626673D01*
X155357572Y-82623264D01*
X155357567Y-82623262D01*
X155144240Y-82547719D01*
X155144238Y-82547718D01*
X155134610Y-82544309D01*
X154891694Y-82501039D01*
X154881474Y-82500914D01*
X154881472Y-82500914D01*
X154741179Y-82499200D01*
X154644972Y-82498025D01*
X154455826Y-82526968D01*
X154411166Y-82533802D01*
X154411165Y-82533802D01*
X154401070Y-82535347D01*
X154391359Y-82538521D01*
X154176250Y-82608829D01*
X154176247Y-82608830D01*
X154166540Y-82612003D01*
X153947679Y-82725935D01*
X153750364Y-82874083D01*
X153743312Y-82881463D01*
X153743307Y-82881467D01*
X153616464Y-83014202D01*
X153579896Y-83052468D01*
X153488932Y-83185816D01*
X153419582Y-83253847D01*
X153329470Y-83290163D01*
X153232319Y-83289231D01*
X153142920Y-83251192D01*
X153079269Y-83188313D01*
X153073991Y-83180775D01*
X153060047Y-83160861D01*
X152899139Y-82999953D01*
X152712734Y-82869432D01*
X152506496Y-82773261D01*
X152286692Y-82714365D01*
X152275864Y-82713418D01*
X152275860Y-82713417D01*
X152070836Y-82695480D01*
X152060000Y-82694532D01*
X152049164Y-82695480D01*
X151844140Y-82713417D01*
X151844136Y-82713418D01*
X151833308Y-82714365D01*
X151613504Y-82773261D01*
X151407266Y-82869432D01*
X151220861Y-82999953D01*
X151059953Y-83160861D01*
X150929432Y-83347266D01*
X150833261Y-83553504D01*
X150830448Y-83564001D01*
X150830448Y-83564002D01*
X150824801Y-83585077D01*
X150774365Y-83773308D01*
X150773418Y-83784136D01*
X150773417Y-83784140D01*
X150762671Y-83906970D01*
X150754532Y-84000000D01*
X145745468Y-84000000D01*
X145737329Y-83906970D01*
X145726583Y-83784140D01*
X145726582Y-83784136D01*
X145725635Y-83773308D01*
X145675199Y-83585077D01*
X145669552Y-83564002D01*
X145669552Y-83564001D01*
X145666739Y-83553504D01*
X145570568Y-83347266D01*
X145440047Y-83160861D01*
X145279139Y-82999953D01*
X145092734Y-82869432D01*
X144886496Y-82773261D01*
X144666692Y-82714365D01*
X144655864Y-82713418D01*
X144655860Y-82713417D01*
X144450836Y-82695480D01*
X144440000Y-82694532D01*
X144429164Y-82695480D01*
X144224140Y-82713417D01*
X144224136Y-82713418D01*
X144213308Y-82714365D01*
X143993504Y-82773261D01*
X143787266Y-82869432D01*
X143600861Y-82999953D01*
X143439953Y-83160861D01*
X143309432Y-83347266D01*
X143213261Y-83553504D01*
X143210448Y-83564001D01*
X143210448Y-83564002D01*
X143204801Y-83585077D01*
X143154365Y-83773308D01*
X143153418Y-83784136D01*
X143153417Y-83784140D01*
X143142671Y-83906970D01*
X143134532Y-84000000D01*
X140730499Y-84000000D01*
X140730499Y-83662624D01*
X140723851Y-83601420D01*
X140673526Y-83467176D01*
X140587546Y-83352454D01*
X140472824Y-83266474D01*
X140423154Y-83247854D01*
X140353196Y-83221628D01*
X140353195Y-83221628D01*
X140338580Y-83216149D01*
X140277377Y-83209500D01*
X140263546Y-83209500D01*
X139629781Y-83209501D01*
X139534495Y-83190547D01*
X139453714Y-83136571D01*
X139399737Y-83055790D01*
X139380783Y-82960501D01*
X139399737Y-82865213D01*
X139453713Y-82784431D01*
X140085650Y-82152494D01*
X140101002Y-82138378D01*
X140127453Y-82116025D01*
X140127456Y-82116022D01*
X140137751Y-82107322D01*
X140187182Y-82042669D01*
X140190920Y-82037902D01*
X140233464Y-81984987D01*
X140233467Y-81984982D01*
X140241915Y-81974475D01*
X140246719Y-81964798D01*
X140253287Y-81956207D01*
X140287710Y-81882388D01*
X140290326Y-81876953D01*
X140320498Y-81816173D01*
X140320500Y-81816169D01*
X140326495Y-81804091D01*
X140329110Y-81793603D01*
X140333678Y-81783807D01*
X140351429Y-81704396D01*
X140352823Y-81698497D01*
X140369251Y-81632608D01*
X140369251Y-81632606D01*
X140372514Y-81619520D01*
X140372804Y-81609155D01*
X140372944Y-81608141D01*
X140375174Y-81598166D01*
X140375500Y-81592335D01*
X140375500Y-81516092D01*
X140375597Y-81509140D01*
X140376769Y-81467178D01*
X140377825Y-81429372D01*
X140375935Y-81419463D01*
X140375500Y-81408637D01*
X140375500Y-76844500D01*
X140394454Y-76749212D01*
X140448430Y-76668430D01*
X140529212Y-76614454D01*
X140624500Y-76595500D01*
X141113174Y-76595500D01*
X141208462Y-76614454D01*
X141289244Y-76668430D01*
X141340861Y-76720047D01*
X141435097Y-76786031D01*
X141502281Y-76856211D01*
X141537494Y-76946760D01*
X141535375Y-77043892D01*
X141496247Y-77132819D01*
X141435098Y-77193968D01*
X141340861Y-77259953D01*
X141179953Y-77420861D01*
X141117538Y-77510000D01*
X141059299Y-77593175D01*
X141049432Y-77607266D01*
X140953261Y-77813504D01*
X140950448Y-77824001D01*
X140950448Y-77824002D01*
X140925394Y-77917507D01*
X140894365Y-78033308D01*
X140893418Y-78044136D01*
X140893417Y-78044140D01*
X140881006Y-78186000D01*
X140874532Y-78260000D01*
X140875480Y-78270836D01*
X140891018Y-78448430D01*
X140894365Y-78486692D01*
X140909879Y-78544592D01*
X140946686Y-78681956D01*
X140953261Y-78706496D01*
X141049432Y-78912734D01*
X141179953Y-79099139D01*
X141340861Y-79260047D01*
X141435097Y-79326031D01*
X141502281Y-79396211D01*
X141537494Y-79486760D01*
X141535375Y-79583892D01*
X141496247Y-79672819D01*
X141435098Y-79733968D01*
X141340861Y-79799953D01*
X141179953Y-79960861D01*
X141049432Y-80147266D01*
X140953261Y-80353504D01*
X140894365Y-80573308D01*
X140893418Y-80584136D01*
X140893417Y-80584140D01*
X140878201Y-80758065D01*
X140874532Y-80800000D01*
X140875480Y-80810836D01*
X140891630Y-80995426D01*
X140894365Y-81026692D01*
X140953261Y-81246496D01*
X141049432Y-81452734D01*
X141179953Y-81639139D01*
X141340861Y-81800047D01*
X141527266Y-81930568D01*
X141733504Y-82026739D01*
X141744001Y-82029552D01*
X141744002Y-82029552D01*
X141793027Y-82042688D01*
X141953308Y-82085635D01*
X141964136Y-82086582D01*
X141964140Y-82086583D01*
X142169164Y-82104520D01*
X142180000Y-82105468D01*
X142190836Y-82104520D01*
X142395860Y-82086583D01*
X142395864Y-82086582D01*
X142406692Y-82085635D01*
X142566973Y-82042688D01*
X142615998Y-82029552D01*
X142615999Y-82029552D01*
X142626496Y-82026739D01*
X142832734Y-81930568D01*
X143019139Y-81800047D01*
X143180047Y-81639139D01*
X143310568Y-81452734D01*
X143406739Y-81246496D01*
X143465635Y-81026692D01*
X143468371Y-80995426D01*
X143484520Y-80810836D01*
X143485468Y-80800000D01*
X143481799Y-80758065D01*
X143466583Y-80584140D01*
X143466582Y-80584136D01*
X143465635Y-80573308D01*
X143406739Y-80353504D01*
X143310568Y-80147266D01*
X143180047Y-79960861D01*
X143019139Y-79799953D01*
X142924903Y-79733969D01*
X142857719Y-79663789D01*
X142822506Y-79573240D01*
X142824625Y-79476108D01*
X142863753Y-79387181D01*
X142924902Y-79326032D01*
X143019139Y-79260047D01*
X143180047Y-79099139D01*
X143310568Y-78912734D01*
X143406739Y-78706496D01*
X143413315Y-78681956D01*
X143450121Y-78544592D01*
X143465635Y-78486692D01*
X143468983Y-78448430D01*
X143484520Y-78270836D01*
X143485468Y-78260000D01*
X148494532Y-78260000D01*
X148495480Y-78270836D01*
X148511018Y-78448430D01*
X148514365Y-78486692D01*
X148529879Y-78544592D01*
X148566686Y-78681956D01*
X148573261Y-78706496D01*
X148669432Y-78912734D01*
X148799953Y-79099139D01*
X148847457Y-79146643D01*
X148901433Y-79227425D01*
X148920387Y-79322713D01*
X148901433Y-79418001D01*
X148847457Y-79498783D01*
X148787110Y-79537641D01*
X148789347Y-79541728D01*
X148773787Y-79550247D01*
X148757176Y-79556474D01*
X148642454Y-79642454D01*
X148556474Y-79757176D01*
X148550247Y-79773787D01*
X148531150Y-79824730D01*
X148506149Y-79891420D01*
X148499500Y-79952623D01*
X148499501Y-81647376D01*
X148506149Y-81708580D01*
X148556474Y-81842824D01*
X148642454Y-81957546D01*
X148757176Y-82043526D01*
X148773787Y-82049753D01*
X148876804Y-82088372D01*
X148876805Y-82088372D01*
X148891420Y-82093851D01*
X148952623Y-82100500D01*
X149799434Y-82100500D01*
X150647376Y-82100499D01*
X150708580Y-82093851D01*
X150842824Y-82043526D01*
X150957546Y-81957546D01*
X151043526Y-81842824D01*
X151080679Y-81743716D01*
X151088372Y-81723196D01*
X151088372Y-81723195D01*
X151093851Y-81708580D01*
X151100500Y-81647377D01*
X151100499Y-79952624D01*
X151093851Y-79891420D01*
X151043526Y-79757176D01*
X150957546Y-79642454D01*
X150842824Y-79556474D01*
X150826213Y-79550247D01*
X150810653Y-79541728D01*
X150812616Y-79538143D01*
X150758617Y-79504654D01*
X150701932Y-79425750D01*
X150679756Y-79331160D01*
X150695467Y-79235283D01*
X150752543Y-79146643D01*
X150800047Y-79099139D01*
X150930568Y-78912734D01*
X151026739Y-78706496D01*
X151033315Y-78681956D01*
X151070121Y-78544592D01*
X151085635Y-78486692D01*
X151088983Y-78448430D01*
X151104520Y-78270836D01*
X151105468Y-78260000D01*
X151098994Y-78186000D01*
X151086583Y-78044140D01*
X151086582Y-78044136D01*
X151085635Y-78033308D01*
X151054606Y-77917507D01*
X151029552Y-77824002D01*
X151029552Y-77824001D01*
X151026739Y-77813504D01*
X150930568Y-77607266D01*
X150920702Y-77593175D01*
X150862462Y-77510000D01*
X150800047Y-77420861D01*
X150639139Y-77259953D01*
X150544903Y-77193969D01*
X150477719Y-77123789D01*
X150442506Y-77033240D01*
X150444625Y-76936108D01*
X150483753Y-76847181D01*
X150544902Y-76786032D01*
X150639139Y-76720047D01*
X150690756Y-76668430D01*
X150771538Y-76614454D01*
X150866826Y-76595500D01*
X154093174Y-76595500D01*
X154188462Y-76614454D01*
X154269244Y-76668430D01*
X154350861Y-76750047D01*
X154537266Y-76880568D01*
X154743504Y-76976739D01*
X154963308Y-77035635D01*
X154974136Y-77036582D01*
X154974140Y-77036583D01*
X155173494Y-77054024D01*
X155266768Y-77081210D01*
X155327862Y-77126006D01*
X160287506Y-82085650D01*
X160301622Y-82101002D01*
X160323975Y-82127453D01*
X160323978Y-82127456D01*
X160332678Y-82137751D01*
X160397375Y-82187216D01*
X160402092Y-82190915D01*
X160455007Y-82233460D01*
X160455011Y-82233463D01*
X160465525Y-82241916D01*
X160475206Y-82246722D01*
X160483793Y-82253287D01*
X160496012Y-82258985D01*
X160496019Y-82258989D01*
X160557554Y-82287683D01*
X160563024Y-82290315D01*
X160635909Y-82326495D01*
X160646397Y-82329110D01*
X160656193Y-82333678D01*
X160669353Y-82336620D01*
X160669354Y-82336620D01*
X160689402Y-82341101D01*
X160735604Y-82351429D01*
X160741503Y-82352823D01*
X160807392Y-82369251D01*
X160807394Y-82369251D01*
X160820480Y-82372514D01*
X160830845Y-82372804D01*
X160831859Y-82372944D01*
X160841834Y-82375174D01*
X160847665Y-82375500D01*
X160923886Y-82375500D01*
X160930839Y-82375597D01*
X161010628Y-82377826D01*
X161020540Y-82375935D01*
X161031376Y-82375500D01*
X170784216Y-82375500D01*
X170879504Y-82394454D01*
X170960286Y-82448430D01*
X172182869Y-83671013D01*
X172236845Y-83751795D01*
X172255799Y-83847083D01*
X172254389Y-83873543D01*
X172245892Y-83953047D01*
X172245892Y-83953048D01*
X172244806Y-83963214D01*
X172259010Y-84209545D01*
X172261257Y-84219514D01*
X172261257Y-84219517D01*
X172300682Y-84394459D01*
X172313255Y-84450249D01*
X172406084Y-84678861D01*
X172411421Y-84687571D01*
X172411422Y-84687572D01*
X172459669Y-84766303D01*
X172535006Y-84889241D01*
X172696557Y-85075741D01*
X172818964Y-85177365D01*
X172871908Y-85221320D01*
X172886399Y-85233351D01*
X172895220Y-85238505D01*
X172895222Y-85238507D01*
X172971634Y-85283159D01*
X173044342Y-85347599D01*
X173086856Y-85434959D01*
X173092702Y-85531938D01*
X173060991Y-85623772D01*
X172996551Y-85696480D01*
X172960980Y-85719010D01*
X172956753Y-85721210D01*
X172956740Y-85721218D01*
X172947679Y-85725935D01*
X172750364Y-85874083D01*
X172743312Y-85881463D01*
X172743307Y-85881467D01*
X172648604Y-85980569D01*
X172579896Y-86052468D01*
X172574134Y-86060915D01*
X172497868Y-86172717D01*
X172440851Y-86256300D01*
X172336965Y-86480104D01*
X172334238Y-86489939D01*
X172334236Y-86489943D01*
X172279150Y-86688577D01*
X172271026Y-86717871D01*
X172266067Y-86764271D01*
X172251654Y-86899139D01*
X172244806Y-86963214D01*
X172259010Y-87209545D01*
X172261257Y-87219514D01*
X172261257Y-87219517D01*
X172304838Y-87412900D01*
X172313255Y-87450249D01*
X172406084Y-87678861D01*
X172411421Y-87687571D01*
X172411422Y-87687572D01*
X172422929Y-87706349D01*
X172535006Y-87889241D01*
X172696557Y-88075741D01*
X172886399Y-88233351D01*
X173099433Y-88357838D01*
X173329939Y-88445859D01*
X173339950Y-88447896D01*
X173339954Y-88447897D01*
X173561713Y-88493015D01*
X173561715Y-88493015D01*
X173571726Y-88495052D01*
X173674353Y-88498815D01*
X173808087Y-88503719D01*
X173808093Y-88503719D01*
X173818300Y-88504093D01*
X173828431Y-88502795D01*
X173828436Y-88502795D01*
X173972793Y-88484302D01*
X174063041Y-88472741D01*
X174108413Y-88459129D01*
X174152644Y-88445859D01*
X174299374Y-88401838D01*
X174520954Y-88293287D01*
X174581706Y-88249953D01*
X174713512Y-88155937D01*
X174713516Y-88155934D01*
X174721829Y-88150004D01*
X174896605Y-87975837D01*
X175040588Y-87775463D01*
X175149911Y-87554264D01*
X175154152Y-87540307D01*
X175218669Y-87327956D01*
X175218669Y-87327954D01*
X175221639Y-87318180D01*
X175223999Y-87300258D01*
X175252981Y-87080114D01*
X175252981Y-87080111D01*
X175253845Y-87073550D01*
X175254809Y-87034140D01*
X175255481Y-87006625D01*
X175255643Y-87000000D01*
X175252619Y-86963214D01*
X178744806Y-86963214D01*
X178759010Y-87209545D01*
X178761257Y-87219514D01*
X178761257Y-87219517D01*
X178804838Y-87412900D01*
X178813255Y-87450249D01*
X178906084Y-87678861D01*
X178911421Y-87687571D01*
X178911422Y-87687572D01*
X178922929Y-87706349D01*
X179035006Y-87889241D01*
X179196557Y-88075741D01*
X179386399Y-88233351D01*
X179599433Y-88357838D01*
X179829939Y-88445859D01*
X179839950Y-88447896D01*
X179839954Y-88447897D01*
X180061713Y-88493015D01*
X180061715Y-88493015D01*
X180071726Y-88495052D01*
X180174353Y-88498815D01*
X180308087Y-88503719D01*
X180308093Y-88503719D01*
X180318300Y-88504093D01*
X180328431Y-88502795D01*
X180328436Y-88502795D01*
X180472793Y-88484302D01*
X180563041Y-88472741D01*
X180608413Y-88459129D01*
X180652644Y-88445859D01*
X180799374Y-88401838D01*
X181020954Y-88293287D01*
X181081706Y-88249953D01*
X181213512Y-88155937D01*
X181213516Y-88155934D01*
X181221829Y-88150004D01*
X181396605Y-87975837D01*
X181540588Y-87775463D01*
X181649911Y-87554264D01*
X181654152Y-87540307D01*
X181718669Y-87327956D01*
X181718669Y-87327954D01*
X181721639Y-87318180D01*
X181723999Y-87300258D01*
X181752981Y-87080114D01*
X181752981Y-87080111D01*
X181753845Y-87073550D01*
X181754809Y-87034140D01*
X181755481Y-87006625D01*
X181755643Y-87000000D01*
X181735425Y-86754089D01*
X181675316Y-86514783D01*
X181576928Y-86288507D01*
X181442905Y-86081339D01*
X181276846Y-85898842D01*
X181083210Y-85745918D01*
X181035675Y-85719678D01*
X180961415Y-85657034D01*
X180916779Y-85570739D01*
X180908565Y-85473932D01*
X180938022Y-85381350D01*
X181000666Y-85307089D01*
X181019738Y-85293883D01*
X181020954Y-85293287D01*
X181115033Y-85226181D01*
X181213512Y-85155937D01*
X181213516Y-85155934D01*
X181221829Y-85150004D01*
X181396605Y-84975837D01*
X181540588Y-84775463D01*
X181649911Y-84554264D01*
X181661994Y-84514496D01*
X181718669Y-84327956D01*
X181718669Y-84327954D01*
X181721639Y-84318180D01*
X181732302Y-84237190D01*
X181752981Y-84080114D01*
X181752981Y-84080111D01*
X181753845Y-84073550D01*
X181754323Y-84054024D01*
X181755481Y-84006625D01*
X181755643Y-84000000D01*
X181735425Y-83754089D01*
X181675316Y-83514783D01*
X181576928Y-83288507D01*
X181442905Y-83081339D01*
X181276846Y-82898842D01*
X181083210Y-82745918D01*
X181070976Y-82739164D01*
X180909348Y-82649941D01*
X180867198Y-82626673D01*
X180857572Y-82623264D01*
X180857567Y-82623262D01*
X180644240Y-82547719D01*
X180644238Y-82547718D01*
X180634610Y-82544309D01*
X180391694Y-82501039D01*
X180381474Y-82500914D01*
X180381472Y-82500914D01*
X180241179Y-82499200D01*
X180144972Y-82498025D01*
X179955826Y-82526968D01*
X179911166Y-82533802D01*
X179911165Y-82533802D01*
X179901070Y-82535347D01*
X179891359Y-82538521D01*
X179676250Y-82608829D01*
X179676247Y-82608830D01*
X179666540Y-82612003D01*
X179447679Y-82725935D01*
X179250364Y-82874083D01*
X179243312Y-82881463D01*
X179243307Y-82881467D01*
X179116464Y-83014202D01*
X179079896Y-83052468D01*
X179074134Y-83060915D01*
X178947327Y-83246807D01*
X178940851Y-83256300D01*
X178836965Y-83480104D01*
X178834238Y-83489939D01*
X178834236Y-83489943D01*
X178783196Y-83673988D01*
X178771026Y-83717871D01*
X178759543Y-83825322D01*
X178745893Y-83953047D01*
X178744806Y-83963214D01*
X178759010Y-84209545D01*
X178761257Y-84219514D01*
X178761257Y-84219517D01*
X178800682Y-84394459D01*
X178813255Y-84450249D01*
X178906084Y-84678861D01*
X178911421Y-84687571D01*
X178911422Y-84687572D01*
X178959669Y-84766303D01*
X179035006Y-84889241D01*
X179196557Y-85075741D01*
X179318964Y-85177365D01*
X179371908Y-85221320D01*
X179386399Y-85233351D01*
X179395220Y-85238505D01*
X179395222Y-85238507D01*
X179471634Y-85283159D01*
X179544342Y-85347599D01*
X179586856Y-85434959D01*
X179592702Y-85531938D01*
X179560991Y-85623772D01*
X179496551Y-85696480D01*
X179460980Y-85719010D01*
X179456753Y-85721210D01*
X179456740Y-85721218D01*
X179447679Y-85725935D01*
X179250364Y-85874083D01*
X179243312Y-85881463D01*
X179243307Y-85881467D01*
X179148604Y-85980569D01*
X179079896Y-86052468D01*
X179074134Y-86060915D01*
X178997868Y-86172717D01*
X178940851Y-86256300D01*
X178836965Y-86480104D01*
X178834238Y-86489939D01*
X178834236Y-86489943D01*
X178779150Y-86688577D01*
X178771026Y-86717871D01*
X178766067Y-86764271D01*
X178751654Y-86899139D01*
X178744806Y-86963214D01*
X175252619Y-86963214D01*
X175235425Y-86754089D01*
X175175316Y-86514783D01*
X175076928Y-86288507D01*
X174942905Y-86081339D01*
X174776846Y-85898842D01*
X174583210Y-85745918D01*
X174535675Y-85719678D01*
X174461415Y-85657034D01*
X174416779Y-85570739D01*
X174408565Y-85473932D01*
X174438022Y-85381350D01*
X174500666Y-85307089D01*
X174519738Y-85293883D01*
X174520954Y-85293287D01*
X174615033Y-85226181D01*
X174713512Y-85155937D01*
X174713516Y-85155934D01*
X174721829Y-85150004D01*
X174896605Y-84975837D01*
X175040588Y-84775463D01*
X175149911Y-84554264D01*
X175161994Y-84514496D01*
X175218669Y-84327956D01*
X175218669Y-84327954D01*
X175221639Y-84318180D01*
X175232302Y-84237190D01*
X175252981Y-84080114D01*
X175252981Y-84080111D01*
X175253845Y-84073550D01*
X175254323Y-84054024D01*
X175255481Y-84006625D01*
X175255643Y-84000000D01*
X175235425Y-83754089D01*
X175175316Y-83514783D01*
X175076928Y-83288507D01*
X174942905Y-83081339D01*
X174776846Y-82898842D01*
X174583210Y-82745918D01*
X174570976Y-82739164D01*
X174409348Y-82649941D01*
X174367198Y-82626673D01*
X174357572Y-82623264D01*
X174357567Y-82623262D01*
X174144240Y-82547719D01*
X174144238Y-82547718D01*
X174134610Y-82544309D01*
X173891694Y-82501039D01*
X173881474Y-82500914D01*
X173881472Y-82500914D01*
X173732224Y-82499091D01*
X173644972Y-82498025D01*
X173631851Y-82500033D01*
X173629662Y-82499935D01*
X173624676Y-82500284D01*
X173624636Y-82499712D01*
X173534796Y-82495713D01*
X173446778Y-82454580D01*
X173418113Y-82429969D01*
X171902494Y-80914350D01*
X171888378Y-80898998D01*
X171866025Y-80872547D01*
X171866022Y-80872544D01*
X171857322Y-80862249D01*
X171792625Y-80812784D01*
X171787908Y-80809085D01*
X171734993Y-80766540D01*
X171734989Y-80766537D01*
X171724475Y-80758084D01*
X171714794Y-80753278D01*
X171706207Y-80746713D01*
X171693988Y-80741015D01*
X171693981Y-80741011D01*
X171632446Y-80712317D01*
X171626965Y-80709680D01*
X171600036Y-80696312D01*
X171554091Y-80673505D01*
X171543603Y-80670890D01*
X171533807Y-80666322D01*
X171520647Y-80663380D01*
X171520646Y-80663380D01*
X171488506Y-80656196D01*
X171454396Y-80648571D01*
X171448497Y-80647177D01*
X171382608Y-80630749D01*
X171382606Y-80630749D01*
X171369520Y-80627486D01*
X171359155Y-80627196D01*
X171358141Y-80627056D01*
X171348166Y-80624826D01*
X171342335Y-80624500D01*
X171266114Y-80624500D01*
X171259161Y-80624403D01*
X171258121Y-80624374D01*
X171179372Y-80622174D01*
X171169460Y-80624065D01*
X171158624Y-80624500D01*
X161405784Y-80624500D01*
X161310496Y-80605546D01*
X161229714Y-80551570D01*
X159380404Y-78702260D01*
X161217154Y-78702260D01*
X161218141Y-78709761D01*
X161263375Y-78878576D01*
X161270779Y-78898919D01*
X161358320Y-79086651D01*
X161369143Y-79105397D01*
X161487954Y-79275077D01*
X161501870Y-79291661D01*
X161648339Y-79438130D01*
X161664923Y-79452046D01*
X161834603Y-79570857D01*
X161853349Y-79581680D01*
X162041081Y-79669221D01*
X162061424Y-79676625D01*
X162222313Y-79719735D01*
X162243123Y-79721099D01*
X162245012Y-79717268D01*
X162246000Y-79709763D01*
X162246000Y-79701555D01*
X162754000Y-79701555D01*
X162758069Y-79722013D01*
X162762260Y-79722846D01*
X162769761Y-79721859D01*
X162938576Y-79676625D01*
X162958919Y-79669221D01*
X163146651Y-79581680D01*
X163165397Y-79570857D01*
X163335077Y-79452046D01*
X163351661Y-79438130D01*
X163498130Y-79291661D01*
X163512046Y-79275077D01*
X163630857Y-79105397D01*
X163641680Y-79086651D01*
X163729221Y-78898919D01*
X163736625Y-78878576D01*
X163779735Y-78717687D01*
X163781099Y-78696877D01*
X163777268Y-78694988D01*
X163769763Y-78694000D01*
X162778527Y-78694000D01*
X162758069Y-78698069D01*
X162754000Y-78718527D01*
X162754000Y-79701555D01*
X162246000Y-79701555D01*
X162246000Y-78718527D01*
X162241931Y-78698069D01*
X162221473Y-78694000D01*
X161238445Y-78694000D01*
X161217987Y-78698069D01*
X161217154Y-78702260D01*
X159380404Y-78702260D01*
X159118144Y-78440000D01*
X164444532Y-78440000D01*
X164445480Y-78450836D01*
X164460674Y-78624500D01*
X164464365Y-78666692D01*
X164478029Y-78717687D01*
X164518130Y-78867345D01*
X164523261Y-78886496D01*
X164619432Y-79092734D01*
X164625670Y-79101642D01*
X164625670Y-79101643D01*
X164648158Y-79133760D01*
X164749953Y-79279139D01*
X164910861Y-79440047D01*
X165097266Y-79570568D01*
X165303504Y-79666739D01*
X165523308Y-79725635D01*
X165534136Y-79726582D01*
X165534140Y-79726583D01*
X165739164Y-79744520D01*
X165750000Y-79745468D01*
X165760836Y-79744520D01*
X165965860Y-79726583D01*
X165965864Y-79726582D01*
X165976692Y-79725635D01*
X166196496Y-79666739D01*
X166402734Y-79570568D01*
X166589139Y-79440047D01*
X166750047Y-79279139D01*
X166851842Y-79133760D01*
X166874330Y-79101643D01*
X166874330Y-79101642D01*
X166880568Y-79092734D01*
X166976739Y-78886496D01*
X166981871Y-78867345D01*
X167021971Y-78717687D01*
X167035635Y-78666692D01*
X167039327Y-78624500D01*
X167054520Y-78450836D01*
X167055468Y-78440000D01*
X167054520Y-78429164D01*
X167036583Y-78224140D01*
X167036582Y-78224136D01*
X167035635Y-78213308D01*
X166984695Y-78023196D01*
X166979552Y-78004002D01*
X166979552Y-78004001D01*
X166976739Y-77993504D01*
X166880568Y-77787266D01*
X166750047Y-77600861D01*
X166589139Y-77439953D01*
X166443760Y-77338158D01*
X166411643Y-77315670D01*
X166411642Y-77315670D01*
X166402734Y-77309432D01*
X166196496Y-77213261D01*
X165976692Y-77154365D01*
X165965864Y-77153418D01*
X165965860Y-77153417D01*
X165760836Y-77135480D01*
X165750000Y-77134532D01*
X165739164Y-77135480D01*
X165534140Y-77153417D01*
X165534136Y-77153418D01*
X165523308Y-77154365D01*
X165303504Y-77213261D01*
X165097266Y-77309432D01*
X165088358Y-77315670D01*
X165088357Y-77315670D01*
X165056240Y-77338158D01*
X164910861Y-77439953D01*
X164749953Y-77600861D01*
X164619432Y-77787266D01*
X164523261Y-77993504D01*
X164520448Y-78004001D01*
X164520448Y-78004002D01*
X164515305Y-78023196D01*
X164464365Y-78213308D01*
X164463418Y-78224136D01*
X164463417Y-78224140D01*
X164445480Y-78429164D01*
X164444532Y-78440000D01*
X159118144Y-78440000D01*
X158861267Y-78183123D01*
X161218901Y-78183123D01*
X161222732Y-78185012D01*
X161230237Y-78186000D01*
X163761555Y-78186000D01*
X163782013Y-78181931D01*
X163782846Y-78177740D01*
X163781859Y-78170239D01*
X163736625Y-78001424D01*
X163729221Y-77981081D01*
X163641680Y-77793349D01*
X163630857Y-77774603D01*
X163512046Y-77604923D01*
X163498130Y-77588339D01*
X163351661Y-77441870D01*
X163335069Y-77427948D01*
X163277237Y-77387453D01*
X163210053Y-77317272D01*
X163174841Y-77226722D01*
X163176961Y-77129590D01*
X163216090Y-77040664D01*
X163286271Y-76973480D01*
X163314826Y-76957814D01*
X163456651Y-76891680D01*
X163475397Y-76880857D01*
X163645077Y-76762046D01*
X163661661Y-76748130D01*
X163808130Y-76601661D01*
X163822046Y-76585077D01*
X163940857Y-76415397D01*
X163951680Y-76396651D01*
X164039221Y-76208919D01*
X164046625Y-76188576D01*
X164089735Y-76027687D01*
X164091099Y-76006877D01*
X164087268Y-76004988D01*
X164079763Y-76004000D01*
X161548445Y-76004000D01*
X161527987Y-76008069D01*
X161527154Y-76012260D01*
X161528141Y-76019761D01*
X161573375Y-76188576D01*
X161580779Y-76208919D01*
X161668320Y-76396651D01*
X161679143Y-76415397D01*
X161797954Y-76585077D01*
X161811870Y-76601661D01*
X161958339Y-76748130D01*
X161974931Y-76762052D01*
X162032763Y-76802547D01*
X162099947Y-76872728D01*
X162135159Y-76963278D01*
X162133039Y-77060410D01*
X162093910Y-77149336D01*
X162023729Y-77216520D01*
X161995174Y-77232186D01*
X161853349Y-77298320D01*
X161834603Y-77309143D01*
X161664923Y-77427954D01*
X161648339Y-77441870D01*
X161501870Y-77588339D01*
X161487954Y-77604923D01*
X161369143Y-77774603D01*
X161358320Y-77793349D01*
X161270779Y-77981081D01*
X161263375Y-78001424D01*
X161220265Y-78162313D01*
X161218901Y-78183123D01*
X158861267Y-78183123D01*
X156566006Y-75887862D01*
X156512030Y-75807080D01*
X156494024Y-75733494D01*
X156476583Y-75534140D01*
X156476582Y-75534136D01*
X156475635Y-75523308D01*
X156467547Y-75493123D01*
X161528901Y-75493123D01*
X161532732Y-75495012D01*
X161540237Y-75496000D01*
X162531473Y-75496000D01*
X162551931Y-75491931D01*
X162556000Y-75471473D01*
X163064000Y-75471473D01*
X163068069Y-75491931D01*
X163088527Y-75496000D01*
X164071555Y-75496000D01*
X164092013Y-75491931D01*
X164092846Y-75487740D01*
X164091859Y-75480239D01*
X164046625Y-75311424D01*
X164039221Y-75291081D01*
X163951680Y-75103349D01*
X163940857Y-75084603D01*
X163822046Y-74914923D01*
X163808130Y-74898339D01*
X163661661Y-74751870D01*
X163645077Y-74737954D01*
X163475397Y-74619143D01*
X163456651Y-74608320D01*
X163268919Y-74520779D01*
X163248576Y-74513375D01*
X163087687Y-74470265D01*
X163066877Y-74468901D01*
X163064988Y-74472732D01*
X163064000Y-74480237D01*
X163064000Y-75471473D01*
X162556000Y-75471473D01*
X162556000Y-74488445D01*
X162551931Y-74467987D01*
X162547740Y-74467154D01*
X162540239Y-74468141D01*
X162371424Y-74513375D01*
X162351081Y-74520779D01*
X162163349Y-74608320D01*
X162144603Y-74619143D01*
X161974923Y-74737954D01*
X161958339Y-74751870D01*
X161811870Y-74898339D01*
X161797954Y-74914923D01*
X161679143Y-75084603D01*
X161668320Y-75103349D01*
X161580779Y-75291081D01*
X161573375Y-75311424D01*
X161530265Y-75472313D01*
X161528901Y-75493123D01*
X156467547Y-75493123D01*
X156441936Y-75397540D01*
X156419552Y-75314002D01*
X156419552Y-75314001D01*
X156416739Y-75303504D01*
X156320568Y-75097266D01*
X156313500Y-75087171D01*
X156260572Y-75011582D01*
X156190047Y-74910861D01*
X156029139Y-74749953D01*
X155842734Y-74619432D01*
X155636496Y-74523261D01*
X155625625Y-74520348D01*
X155438711Y-74470265D01*
X155416692Y-74464365D01*
X155405864Y-74463418D01*
X155405860Y-74463417D01*
X155200836Y-74445480D01*
X155190000Y-74444532D01*
X155179164Y-74445480D01*
X154974140Y-74463417D01*
X154974136Y-74463418D01*
X154963308Y-74464365D01*
X154941289Y-74470265D01*
X154754376Y-74520348D01*
X154743504Y-74523261D01*
X154537266Y-74619432D01*
X154350861Y-74749953D01*
X154329244Y-74771570D01*
X154248462Y-74825546D01*
X154153174Y-74844500D01*
X150866826Y-74844500D01*
X150771538Y-74825546D01*
X150690756Y-74771570D01*
X150639139Y-74719953D01*
X150551440Y-74658546D01*
X150484257Y-74588367D01*
X150449044Y-74497818D01*
X150451163Y-74400686D01*
X150490291Y-74311759D01*
X150551440Y-74250609D01*
X150635077Y-74192046D01*
X150651661Y-74178130D01*
X150798130Y-74031661D01*
X150812046Y-74015077D01*
X150930857Y-73845397D01*
X150941680Y-73826651D01*
X151029221Y-73638919D01*
X151036625Y-73618576D01*
X151079735Y-73457687D01*
X151081099Y-73436877D01*
X151077268Y-73434988D01*
X151069763Y-73434000D01*
X148538445Y-73434000D01*
X148517987Y-73438069D01*
X148517154Y-73442260D01*
X148518141Y-73449761D01*
X148563375Y-73618576D01*
X148570779Y-73638919D01*
X148658320Y-73826651D01*
X148669143Y-73845397D01*
X148787954Y-74015077D01*
X148801870Y-74031661D01*
X148948339Y-74178130D01*
X148964923Y-74192046D01*
X149048560Y-74250609D01*
X149115744Y-74320791D01*
X149150956Y-74411340D01*
X149148837Y-74508472D01*
X149109708Y-74597399D01*
X149048560Y-74658546D01*
X148960861Y-74719953D01*
X148799953Y-74880861D01*
X148669432Y-75067266D01*
X148573261Y-75273504D01*
X148570448Y-75284001D01*
X148570448Y-75284002D01*
X148547617Y-75369211D01*
X148514365Y-75493308D01*
X148513418Y-75504136D01*
X148513417Y-75504140D01*
X148500496Y-75651834D01*
X148494532Y-75720000D01*
X148495480Y-75730836D01*
X148507987Y-75873787D01*
X148514365Y-75946692D01*
X148528758Y-76000408D01*
X148553305Y-76092017D01*
X148573261Y-76166496D01*
X148669432Y-76372734D01*
X148799953Y-76559139D01*
X148960861Y-76720047D01*
X149055097Y-76786031D01*
X149122281Y-76856211D01*
X149157494Y-76946760D01*
X149155375Y-77043892D01*
X149116247Y-77132819D01*
X149055098Y-77193968D01*
X148960861Y-77259953D01*
X148799953Y-77420861D01*
X148737538Y-77510000D01*
X148679299Y-77593175D01*
X148669432Y-77607266D01*
X148573261Y-77813504D01*
X148570448Y-77824001D01*
X148570448Y-77824002D01*
X148545394Y-77917507D01*
X148514365Y-78033308D01*
X148513418Y-78044136D01*
X148513417Y-78044140D01*
X148501006Y-78186000D01*
X148494532Y-78260000D01*
X143485468Y-78260000D01*
X143478994Y-78186000D01*
X143466583Y-78044140D01*
X143466582Y-78044136D01*
X143465635Y-78033308D01*
X143434606Y-77917507D01*
X143409552Y-77824002D01*
X143409552Y-77824001D01*
X143406739Y-77813504D01*
X143310568Y-77607266D01*
X143300702Y-77593175D01*
X143242462Y-77510000D01*
X143180047Y-77420861D01*
X143019139Y-77259953D01*
X142924903Y-77193969D01*
X142857719Y-77123789D01*
X142822506Y-77033240D01*
X142824625Y-76936108D01*
X142863753Y-76847181D01*
X142924902Y-76786032D01*
X143019139Y-76720047D01*
X143180047Y-76559139D01*
X143310568Y-76372734D01*
X143406739Y-76166496D01*
X143426696Y-76092017D01*
X143451242Y-76000408D01*
X143465635Y-75946692D01*
X143472014Y-75873787D01*
X143484520Y-75730836D01*
X143485468Y-75720000D01*
X143479504Y-75651834D01*
X143466583Y-75504140D01*
X143466582Y-75504136D01*
X143465635Y-75493308D01*
X143432383Y-75369211D01*
X143409552Y-75284002D01*
X143409552Y-75284001D01*
X143406739Y-75273504D01*
X143310568Y-75067266D01*
X143180047Y-74880861D01*
X143019139Y-74719953D01*
X142924903Y-74653969D01*
X142857719Y-74583789D01*
X142822506Y-74493240D01*
X142824625Y-74396108D01*
X142863753Y-74307181D01*
X142924902Y-74246032D01*
X143019139Y-74180047D01*
X143070756Y-74128430D01*
X143151538Y-74074454D01*
X143246826Y-74055500D01*
X146272726Y-74055500D01*
X146293563Y-74056373D01*
X146341517Y-74060400D01*
X146354886Y-74058616D01*
X146354889Y-74058616D01*
X146382792Y-74054892D01*
X146422202Y-74049634D01*
X146428194Y-74048908D01*
X146446684Y-74046899D01*
X146495702Y-74041575D01*
X146495707Y-74041574D01*
X146509109Y-74040118D01*
X146519353Y-74036671D01*
X146530067Y-74035241D01*
X146542734Y-74030631D01*
X146542741Y-74030629D01*
X146606535Y-74007410D01*
X146612274Y-74005400D01*
X146676616Y-73983746D01*
X146689396Y-73979445D01*
X146698662Y-73973878D01*
X146708818Y-73970181D01*
X146777577Y-73926546D01*
X146782663Y-73923405D01*
X146833310Y-73892973D01*
X146840891Y-73888418D01*
X146840893Y-73888416D01*
X146852447Y-73881474D01*
X146859972Y-73874358D01*
X146860810Y-73873724D01*
X146869428Y-73868255D01*
X146873781Y-73864363D01*
X146927698Y-73810446D01*
X146932684Y-73805598D01*
X146980861Y-73760040D01*
X146980863Y-73760038D01*
X146990658Y-73750775D01*
X146996328Y-73742431D01*
X147003679Y-73734465D01*
X148113683Y-72624461D01*
X148194465Y-72570485D01*
X148289753Y-72551531D01*
X148385041Y-72570485D01*
X148465823Y-72624461D01*
X148519799Y-72705243D01*
X148538753Y-72800531D01*
X148530269Y-72864977D01*
X148520265Y-72902313D01*
X148518901Y-72923123D01*
X148522732Y-72925012D01*
X148530237Y-72926000D01*
X151061555Y-72926000D01*
X151082013Y-72921931D01*
X151082846Y-72917740D01*
X151081859Y-72910239D01*
X151036625Y-72741424D01*
X151025501Y-72710861D01*
X151028378Y-72709814D01*
X151010162Y-72635332D01*
X151024952Y-72539310D01*
X151075364Y-72456257D01*
X151153720Y-72398817D01*
X151248094Y-72375736D01*
X151258926Y-72375500D01*
X165284216Y-72375500D01*
X165379504Y-72394454D01*
X165460286Y-72448430D01*
X169906888Y-76895032D01*
X169960864Y-76975814D01*
X169979818Y-77071102D01*
X169960864Y-77166390D01*
X169906888Y-77247172D01*
X169826106Y-77301148D01*
X169730818Y-77320102D01*
X169635530Y-77301148D01*
X169625586Y-77296772D01*
X169456354Y-77217857D01*
X169456345Y-77217854D01*
X169446496Y-77213261D01*
X169226692Y-77154365D01*
X169215864Y-77153418D01*
X169215860Y-77153417D01*
X169010836Y-77135480D01*
X169000000Y-77134532D01*
X168989164Y-77135480D01*
X168784140Y-77153417D01*
X168784136Y-77153418D01*
X168773308Y-77154365D01*
X168553504Y-77213261D01*
X168347266Y-77309432D01*
X168338358Y-77315670D01*
X168338357Y-77315670D01*
X168306240Y-77338158D01*
X168160861Y-77439953D01*
X167999953Y-77600861D01*
X167869432Y-77787266D01*
X167773261Y-77993504D01*
X167770448Y-78004001D01*
X167770448Y-78004002D01*
X167765305Y-78023196D01*
X167714365Y-78213308D01*
X167713418Y-78224136D01*
X167713417Y-78224140D01*
X167695480Y-78429164D01*
X167694532Y-78440000D01*
X167695480Y-78450836D01*
X167710674Y-78624500D01*
X167714365Y-78666692D01*
X167728029Y-78717687D01*
X167768130Y-78867345D01*
X167773261Y-78886496D01*
X167869432Y-79092734D01*
X167875670Y-79101642D01*
X167875670Y-79101643D01*
X167898158Y-79133760D01*
X167999953Y-79279139D01*
X168160861Y-79440047D01*
X168347266Y-79570568D01*
X168553504Y-79666739D01*
X168773308Y-79725635D01*
X168784136Y-79726582D01*
X168784140Y-79726583D01*
X168989164Y-79744520D01*
X169000000Y-79745468D01*
X169010836Y-79744520D01*
X169215860Y-79726583D01*
X169215864Y-79726582D01*
X169226692Y-79725635D01*
X169446496Y-79666739D01*
X169652734Y-79570568D01*
X169839139Y-79440047D01*
X170000047Y-79279139D01*
X170101842Y-79133760D01*
X170124330Y-79101643D01*
X170124330Y-79101642D01*
X170130568Y-79092734D01*
X170226739Y-78886496D01*
X170231871Y-78867345D01*
X170271971Y-78717687D01*
X170285635Y-78666692D01*
X170289327Y-78624500D01*
X170304520Y-78450836D01*
X170305468Y-78440000D01*
X170304520Y-78429164D01*
X170286583Y-78224140D01*
X170286582Y-78224136D01*
X170285635Y-78213308D01*
X170234695Y-78023196D01*
X170229552Y-78004002D01*
X170229552Y-78004001D01*
X170226739Y-77993504D01*
X170222146Y-77983655D01*
X170222143Y-77983646D01*
X170143228Y-77814414D01*
X170120135Y-77720044D01*
X170134914Y-77624019D01*
X170185316Y-77540960D01*
X170263666Y-77483512D01*
X170358036Y-77460419D01*
X170454061Y-77475198D01*
X170537120Y-77525600D01*
X170544968Y-77533112D01*
X171097506Y-78085650D01*
X171111622Y-78101002D01*
X171133975Y-78127453D01*
X171133978Y-78127456D01*
X171142678Y-78137751D01*
X171207312Y-78187167D01*
X171212098Y-78190920D01*
X171265013Y-78233464D01*
X171265018Y-78233467D01*
X171275525Y-78241915D01*
X171285202Y-78246719D01*
X171293793Y-78253287D01*
X171367612Y-78287710D01*
X171373047Y-78290326D01*
X171433827Y-78320498D01*
X171433831Y-78320500D01*
X171445909Y-78326495D01*
X171456397Y-78329110D01*
X171466193Y-78333678D01*
X171479353Y-78336620D01*
X171479354Y-78336620D01*
X171499402Y-78341101D01*
X171545604Y-78351429D01*
X171551503Y-78352823D01*
X171617392Y-78369251D01*
X171617394Y-78369251D01*
X171630480Y-78372514D01*
X171640845Y-78372804D01*
X171641859Y-78372944D01*
X171651834Y-78375174D01*
X171657665Y-78375500D01*
X171733908Y-78375500D01*
X171740860Y-78375597D01*
X171820628Y-78377825D01*
X171830537Y-78375935D01*
X171841363Y-78375500D01*
X172230314Y-78375500D01*
X172325602Y-78394454D01*
X172406384Y-78448430D01*
X172460360Y-78529212D01*
X172479314Y-78624500D01*
X172460360Y-78719788D01*
X172446817Y-78747494D01*
X172446613Y-78747854D01*
X172440851Y-78756300D01*
X172336965Y-78980104D01*
X172334238Y-78989939D01*
X172334236Y-78989943D01*
X172303953Y-79099139D01*
X172271026Y-79217871D01*
X172264742Y-79276673D01*
X172246000Y-79452046D01*
X172244806Y-79463214D01*
X172259010Y-79709545D01*
X172261257Y-79719514D01*
X172261257Y-79719517D01*
X172311008Y-79940279D01*
X172313255Y-79950249D01*
X172406084Y-80178861D01*
X172411421Y-80187571D01*
X172411422Y-80187572D01*
X172454064Y-80257157D01*
X172535006Y-80389241D01*
X172696557Y-80575741D01*
X172802119Y-80663380D01*
X172835573Y-80691154D01*
X172886399Y-80733351D01*
X173099433Y-80857838D01*
X173329939Y-80945859D01*
X173339950Y-80947896D01*
X173339954Y-80947897D01*
X173561713Y-80993015D01*
X173561715Y-80993015D01*
X173571726Y-80995052D01*
X173674353Y-80998815D01*
X173808087Y-81003719D01*
X173808093Y-81003719D01*
X173818300Y-81004093D01*
X173828431Y-81002795D01*
X173828436Y-81002795D01*
X173963670Y-80985471D01*
X174063041Y-80972741D01*
X174299374Y-80901838D01*
X174520954Y-80793287D01*
X174570333Y-80758065D01*
X174713512Y-80655937D01*
X174713516Y-80655934D01*
X174721829Y-80650004D01*
X174896605Y-80475837D01*
X175040588Y-80275463D01*
X175149911Y-80054264D01*
X175154741Y-80038369D01*
X175218669Y-79827956D01*
X175218669Y-79827954D01*
X175221639Y-79818180D01*
X175224860Y-79793718D01*
X175252981Y-79580114D01*
X175252981Y-79580111D01*
X175253845Y-79573550D01*
X175254071Y-79564330D01*
X175255481Y-79506625D01*
X175255643Y-79500000D01*
X175254555Y-79486760D01*
X175252619Y-79463214D01*
X178744806Y-79463214D01*
X178759010Y-79709545D01*
X178761257Y-79719514D01*
X178761257Y-79719517D01*
X178811008Y-79940279D01*
X178813255Y-79950249D01*
X178906084Y-80178861D01*
X178911421Y-80187571D01*
X178911422Y-80187572D01*
X178954064Y-80257157D01*
X179035006Y-80389241D01*
X179196557Y-80575741D01*
X179302119Y-80663380D01*
X179335573Y-80691154D01*
X179386399Y-80733351D01*
X179599433Y-80857838D01*
X179829939Y-80945859D01*
X179839950Y-80947896D01*
X179839954Y-80947897D01*
X180061713Y-80993015D01*
X180061715Y-80993015D01*
X180071726Y-80995052D01*
X180174353Y-80998815D01*
X180308087Y-81003719D01*
X180308093Y-81003719D01*
X180318300Y-81004093D01*
X180328431Y-81002795D01*
X180328436Y-81002795D01*
X180463670Y-80985471D01*
X180563041Y-80972741D01*
X180799374Y-80901838D01*
X181020954Y-80793287D01*
X181070333Y-80758065D01*
X181213512Y-80655937D01*
X181213516Y-80655934D01*
X181221829Y-80650004D01*
X181396605Y-80475837D01*
X181540588Y-80275463D01*
X181649911Y-80054264D01*
X181654741Y-80038369D01*
X181718669Y-79827956D01*
X181718669Y-79827954D01*
X181721639Y-79818180D01*
X181724860Y-79793718D01*
X181752981Y-79580114D01*
X181752981Y-79580111D01*
X181753845Y-79573550D01*
X181754071Y-79564330D01*
X181755481Y-79506625D01*
X181755643Y-79500000D01*
X181754555Y-79486760D01*
X181745474Y-79376312D01*
X181735425Y-79254089D01*
X181675316Y-79014783D01*
X181576928Y-78788507D01*
X181442905Y-78581339D01*
X181276846Y-78398842D01*
X181083210Y-78245918D01*
X181038463Y-78221216D01*
X180876143Y-78131611D01*
X180876144Y-78131611D01*
X180867198Y-78126673D01*
X180857572Y-78123264D01*
X180857567Y-78123262D01*
X180644240Y-78047719D01*
X180644238Y-78047718D01*
X180634610Y-78044309D01*
X180391694Y-78001039D01*
X180381474Y-78000914D01*
X180381472Y-78000914D01*
X180241179Y-77999200D01*
X180144972Y-77998025D01*
X179955826Y-78026968D01*
X179911166Y-78033802D01*
X179911165Y-78033802D01*
X179901070Y-78035347D01*
X179891359Y-78038521D01*
X179676250Y-78108829D01*
X179676247Y-78108830D01*
X179666540Y-78112003D01*
X179447679Y-78225935D01*
X179250364Y-78374083D01*
X179243312Y-78381463D01*
X179243307Y-78381467D01*
X179131986Y-78497959D01*
X179079896Y-78552468D01*
X179074134Y-78560915D01*
X178965758Y-78719788D01*
X178940851Y-78756300D01*
X178836965Y-78980104D01*
X178834238Y-78989939D01*
X178834236Y-78989943D01*
X178803953Y-79099139D01*
X178771026Y-79217871D01*
X178764742Y-79276673D01*
X178746000Y-79452046D01*
X178744806Y-79463214D01*
X175252619Y-79463214D01*
X175245474Y-79376312D01*
X175235425Y-79254089D01*
X175175316Y-79014783D01*
X175076928Y-78788507D01*
X174942905Y-78581339D01*
X174776846Y-78398842D01*
X174768828Y-78392510D01*
X174768824Y-78392506D01*
X174626368Y-78280002D01*
X174563335Y-78206070D01*
X174533393Y-78113644D01*
X174541099Y-78016795D01*
X174585282Y-77930268D01*
X174604622Y-77908522D01*
X175320503Y-77192641D01*
X175401285Y-77138665D01*
X175485116Y-77121990D01*
X175485000Y-77120659D01*
X175709574Y-77101011D01*
X175709575Y-77101011D01*
X175720408Y-77100063D01*
X175886841Y-77055468D01*
X175938162Y-77041717D01*
X175938165Y-77041716D01*
X175948663Y-77038903D01*
X176110841Y-76963278D01*
X176152983Y-76943627D01*
X176152985Y-76943626D01*
X176162830Y-76939035D01*
X176180392Y-76926738D01*
X176347500Y-76809728D01*
X176347503Y-76809725D01*
X176356401Y-76803495D01*
X176523495Y-76636401D01*
X176551032Y-76597074D01*
X176621211Y-76529891D01*
X176711760Y-76494678D01*
X176808892Y-76496797D01*
X176897819Y-76535925D01*
X176958968Y-76597074D01*
X176986505Y-76636401D01*
X177153599Y-76803495D01*
X177162497Y-76809725D01*
X177162500Y-76809728D01*
X177329608Y-76926738D01*
X177347170Y-76939035D01*
X177357015Y-76943626D01*
X177357017Y-76943627D01*
X177399159Y-76963278D01*
X177561337Y-77038903D01*
X177571835Y-77041716D01*
X177571838Y-77041717D01*
X177623159Y-77055468D01*
X177789592Y-77100063D01*
X177800425Y-77101011D01*
X177800426Y-77101011D01*
X177919183Y-77111401D01*
X178007033Y-77119087D01*
X178014165Y-77119711D01*
X178025000Y-77120659D01*
X178035835Y-77119711D01*
X178042968Y-77119087D01*
X178130817Y-77111401D01*
X178249574Y-77101011D01*
X178249575Y-77101011D01*
X178260408Y-77100063D01*
X178426841Y-77055468D01*
X178478162Y-77041717D01*
X178478165Y-77041716D01*
X178488663Y-77038903D01*
X178650841Y-76963278D01*
X178692983Y-76943627D01*
X178692985Y-76943626D01*
X178702830Y-76939035D01*
X178720392Y-76926738D01*
X178887500Y-76809728D01*
X178887503Y-76809725D01*
X178896401Y-76803495D01*
X179063495Y-76636401D01*
X179199035Y-76442829D01*
X179286320Y-76255647D01*
X179294307Y-76238520D01*
X179294309Y-76238516D01*
X179298903Y-76228663D01*
X179360063Y-76000408D01*
X179380659Y-75765000D01*
X179360063Y-75529592D01*
X179298903Y-75301337D01*
X179294150Y-75291143D01*
X179203631Y-75097027D01*
X179199035Y-75087171D01*
X179185098Y-75067266D01*
X179150969Y-75018526D01*
X179063495Y-74893599D01*
X178896401Y-74726505D01*
X178887497Y-74720270D01*
X178857075Y-74698968D01*
X178789892Y-74628786D01*
X178754680Y-74538237D01*
X178756800Y-74441105D01*
X178795929Y-74352178D01*
X178857075Y-74291032D01*
X178887497Y-74269730D01*
X178887499Y-74269728D01*
X178896401Y-74263495D01*
X179063495Y-74096401D01*
X179199035Y-73902829D01*
X179216972Y-73864363D01*
X179294307Y-73698520D01*
X179294309Y-73698516D01*
X179298903Y-73688663D01*
X179360063Y-73460408D01*
X179362018Y-73438069D01*
X179375600Y-73282824D01*
X179380659Y-73225000D01*
X179360063Y-72989592D01*
X179298903Y-72761337D01*
X179290820Y-72744002D01*
X179203631Y-72557027D01*
X179199035Y-72547171D01*
X179188550Y-72532196D01*
X179138074Y-72460109D01*
X179063495Y-72353599D01*
X178896401Y-72186505D01*
X178887503Y-72180275D01*
X178887500Y-72180272D01*
X178711729Y-72057196D01*
X178711728Y-72057195D01*
X178702830Y-72050965D01*
X178692985Y-72046374D01*
X178692983Y-72046373D01*
X178594608Y-72000500D01*
X178488663Y-71951097D01*
X178478165Y-71948284D01*
X178478162Y-71948283D01*
X178374535Y-71920517D01*
X178260408Y-71889937D01*
X178249575Y-71888989D01*
X178249574Y-71888989D01*
X178035835Y-71870289D01*
X178025000Y-71869341D01*
X178014165Y-71870289D01*
X177800426Y-71888989D01*
X177800425Y-71888989D01*
X177789592Y-71889937D01*
X177561337Y-71951097D01*
X177551484Y-71955691D01*
X177551480Y-71955693D01*
X177357027Y-72046369D01*
X177347171Y-72050965D01*
X177153599Y-72186505D01*
X176986505Y-72353599D01*
X176958968Y-72392926D01*
X176888789Y-72460109D01*
X176798240Y-72495322D01*
X176701108Y-72493203D01*
X176612181Y-72454075D01*
X176551032Y-72392926D01*
X176523495Y-72353599D01*
X176356401Y-72186505D01*
X176347503Y-72180275D01*
X176347500Y-72180272D01*
X176171729Y-72057196D01*
X176171728Y-72057195D01*
X176162830Y-72050965D01*
X176152985Y-72046374D01*
X176152983Y-72046373D01*
X176054608Y-72000500D01*
X175948663Y-71951097D01*
X175938165Y-71948284D01*
X175938162Y-71948283D01*
X175834535Y-71920517D01*
X175720408Y-71889937D01*
X175709575Y-71888989D01*
X175709574Y-71888989D01*
X175495835Y-71870289D01*
X175485000Y-71869341D01*
X175474165Y-71870289D01*
X175260426Y-71888989D01*
X175260425Y-71888989D01*
X175249592Y-71889937D01*
X175021337Y-71951097D01*
X175011484Y-71955691D01*
X175011480Y-71955693D01*
X174817027Y-72046369D01*
X174807171Y-72050965D01*
X174613599Y-72186505D01*
X174446505Y-72353599D01*
X174418968Y-72392926D01*
X174348789Y-72460109D01*
X174258240Y-72495322D01*
X174161108Y-72493203D01*
X174072181Y-72454075D01*
X174011032Y-72392926D01*
X173983495Y-72353599D01*
X173816401Y-72186505D01*
X173807503Y-72180275D01*
X173807500Y-72180272D01*
X173631729Y-72057196D01*
X173631728Y-72057195D01*
X173622830Y-72050965D01*
X173612985Y-72046374D01*
X173612983Y-72046373D01*
X173514608Y-72000500D01*
X173408663Y-71951097D01*
X173398165Y-71948284D01*
X173398162Y-71948283D01*
X173294535Y-71920517D01*
X173180408Y-71889937D01*
X173169575Y-71888989D01*
X173169574Y-71888989D01*
X172955835Y-71870289D01*
X172945000Y-71869341D01*
X172934165Y-71870289D01*
X172720426Y-71888989D01*
X172720425Y-71888989D01*
X172709592Y-71889937D01*
X172481337Y-71951097D01*
X172471484Y-71955691D01*
X172471480Y-71955693D01*
X172277027Y-72046369D01*
X172267171Y-72050965D01*
X172073599Y-72186505D01*
X171906505Y-72353599D01*
X171831926Y-72460109D01*
X171781451Y-72532196D01*
X171770965Y-72547171D01*
X171766369Y-72557027D01*
X171679181Y-72744002D01*
X171671097Y-72761337D01*
X171609937Y-72989592D01*
X171589341Y-73225000D01*
X171594400Y-73282824D01*
X171607983Y-73438069D01*
X171609937Y-73460408D01*
X171671097Y-73688663D01*
X171675691Y-73698516D01*
X171675693Y-73698520D01*
X171753028Y-73864363D01*
X171770965Y-73902829D01*
X171906505Y-74096401D01*
X172073599Y-74263495D01*
X172082497Y-74269725D01*
X172082500Y-74269728D01*
X172107646Y-74287335D01*
X172174830Y-74357517D01*
X172210042Y-74448066D01*
X172207923Y-74545198D01*
X172168794Y-74634125D01*
X172114330Y-74690425D01*
X172048476Y-74739870D01*
X172033235Y-74753401D01*
X171893080Y-74900065D01*
X171880257Y-74915901D01*
X171765937Y-75083487D01*
X171755877Y-75101196D01*
X171670463Y-75285205D01*
X171663428Y-75304327D01*
X171609212Y-75499819D01*
X171605396Y-75519826D01*
X171603064Y-75541648D01*
X171574093Y-75634383D01*
X171511838Y-75708972D01*
X171425779Y-75754059D01*
X171329016Y-75762780D01*
X171236281Y-75733809D01*
X171179404Y-75691260D01*
X166413714Y-70925570D01*
X166359738Y-70844788D01*
X166340784Y-70749500D01*
X166359738Y-70654212D01*
X166413714Y-70573430D01*
X166494496Y-70519454D01*
X166589784Y-70500500D01*
X184250500Y-70500500D01*
X184345788Y-70519454D01*
X184426570Y-70573430D01*
X184480546Y-70654212D01*
X184499500Y-70749500D01*
X184499500Y-72000500D01*
X184480546Y-72095788D01*
X184426570Y-72176570D01*
X184345788Y-72230546D01*
X184250500Y-72249500D01*
X183562849Y-72249500D01*
X183531433Y-72246876D01*
X183531425Y-72246960D01*
X183521844Y-72246101D01*
X183512354Y-72244504D01*
X183500000Y-72244353D01*
X183493691Y-72245257D01*
X183491656Y-72245396D01*
X183491654Y-72245396D01*
X183235439Y-72262921D01*
X183235436Y-72262921D01*
X183226962Y-72263501D01*
X183218645Y-72265229D01*
X183218640Y-72265230D01*
X183072918Y-72295512D01*
X182959010Y-72319182D01*
X182701136Y-72410831D01*
X182693584Y-72414744D01*
X182693582Y-72414745D01*
X182465698Y-72532825D01*
X182465695Y-72532827D01*
X182458143Y-72536740D01*
X182451199Y-72541641D01*
X182451195Y-72541644D01*
X182241505Y-72689659D01*
X182234558Y-72694563D01*
X182183906Y-72741869D01*
X182040763Y-72875555D01*
X182040758Y-72875560D01*
X182034546Y-72881362D01*
X181861832Y-73093655D01*
X181857416Y-73100917D01*
X181766168Y-73250969D01*
X181719635Y-73327489D01*
X181716250Y-73335283D01*
X181716248Y-73335286D01*
X181672121Y-73436877D01*
X181610602Y-73578508D01*
X181608310Y-73586689D01*
X181608308Y-73586694D01*
X181572118Y-73715860D01*
X181536765Y-73842035D01*
X181499500Y-74113162D01*
X181499500Y-74386838D01*
X181536765Y-74657965D01*
X181539059Y-74666152D01*
X181605470Y-74903175D01*
X181610602Y-74921492D01*
X181613987Y-74929285D01*
X181706677Y-75142678D01*
X181719635Y-75172511D01*
X181724050Y-75179771D01*
X181724052Y-75179775D01*
X181804153Y-75311495D01*
X181861832Y-75406345D01*
X182034546Y-75618638D01*
X182040758Y-75624440D01*
X182040763Y-75624445D01*
X182133451Y-75711009D01*
X182234558Y-75805437D01*
X182241502Y-75810339D01*
X182241505Y-75810341D01*
X182451195Y-75958356D01*
X182451199Y-75958359D01*
X182458143Y-75963260D01*
X182465695Y-75967173D01*
X182465698Y-75967175D01*
X182643619Y-76059366D01*
X182701136Y-76089169D01*
X182959010Y-76180818D01*
X182996344Y-76188576D01*
X183218640Y-76234770D01*
X183218645Y-76234771D01*
X183226962Y-76236499D01*
X183235437Y-76237079D01*
X183235439Y-76237079D01*
X183465261Y-76252799D01*
X183470507Y-76253214D01*
X183478164Y-76253901D01*
X183487646Y-76255496D01*
X183500000Y-76255647D01*
X183518380Y-76253015D01*
X183553677Y-76250500D01*
X184249940Y-76250500D01*
X184345228Y-76269454D01*
X184426010Y-76323430D01*
X184479986Y-76404212D01*
X184498940Y-76499686D01*
X184498405Y-77216520D01*
X184486100Y-93706198D01*
X184486066Y-93751186D01*
X184467041Y-93846460D01*
X184413004Y-93927201D01*
X184332182Y-93981117D01*
X184237066Y-94000000D01*
X183040680Y-94000000D01*
X182945392Y-93981046D01*
X182864610Y-93927070D01*
X182853475Y-93915181D01*
X182850132Y-93911370D01*
X182844758Y-93905242D01*
X182622957Y-93710727D01*
X182377665Y-93546828D01*
X182113077Y-93416348D01*
X182105359Y-93413728D01*
X182105354Y-93413726D01*
X181973400Y-93368934D01*
X181833722Y-93321519D01*
X181544380Y-93263966D01*
X181250000Y-93244671D01*
X181173033Y-93249716D01*
X181076711Y-93237035D01*
X180992572Y-93188458D01*
X180933427Y-93111380D01*
X180908281Y-93017536D01*
X180920962Y-92921212D01*
X180969539Y-92837073D01*
X181021394Y-92793904D01*
X181020954Y-92793287D01*
X181029268Y-92787357D01*
X181213512Y-92655937D01*
X181213516Y-92655934D01*
X181221829Y-92650004D01*
X181396605Y-92475837D01*
X181540588Y-92275463D01*
X181649911Y-92054264D01*
X181654293Y-92039843D01*
X181718669Y-91827956D01*
X181718669Y-91827954D01*
X181721639Y-91818180D01*
X181724325Y-91797782D01*
X181752981Y-91580114D01*
X181752981Y-91580111D01*
X181753845Y-91573550D01*
X181755643Y-91500000D01*
X181753657Y-91475837D01*
X181736262Y-91264271D01*
X181735425Y-91254089D01*
X181675316Y-91014783D01*
X181576928Y-90788507D01*
X181442905Y-90581339D01*
X181276846Y-90398842D01*
X181083210Y-90245918D01*
X181050274Y-90227736D01*
X180906462Y-90148348D01*
X180867198Y-90126673D01*
X180857572Y-90123264D01*
X180857567Y-90123262D01*
X180644240Y-90047719D01*
X180644238Y-90047718D01*
X180634610Y-90044309D01*
X180391694Y-90001039D01*
X180381474Y-90000914D01*
X180381472Y-90000914D01*
X180241179Y-89999200D01*
X180144972Y-89998025D01*
X179955826Y-90026968D01*
X179911166Y-90033802D01*
X179911165Y-90033802D01*
X179901070Y-90035347D01*
X179891359Y-90038521D01*
X179676250Y-90108829D01*
X179676247Y-90108830D01*
X179666540Y-90112003D01*
X179549007Y-90173187D01*
X179482090Y-90208022D01*
X179447679Y-90225935D01*
X179250364Y-90374083D01*
X179243312Y-90381463D01*
X179243307Y-90381467D01*
X179099590Y-90531859D01*
X179079896Y-90552468D01*
X179074134Y-90560915D01*
X178963983Y-90722390D01*
X178940851Y-90756300D01*
X178836965Y-90980104D01*
X178834238Y-90989939D01*
X178834236Y-90989943D01*
X178777347Y-91195077D01*
X178771026Y-91217871D01*
X178766452Y-91260672D01*
X178752712Y-91389241D01*
X178744806Y-91463214D01*
X178759010Y-91709545D01*
X178761257Y-91719514D01*
X178761257Y-91719517D01*
X178792429Y-91857838D01*
X178813255Y-91950249D01*
X178906084Y-92178861D01*
X179035006Y-92389241D01*
X179196557Y-92575741D01*
X179308480Y-92668661D01*
X179349061Y-92702352D01*
X179386399Y-92733351D01*
X179599433Y-92857838D01*
X179829939Y-92945859D01*
X179839950Y-92947896D01*
X179839954Y-92947897D01*
X180061713Y-92993015D01*
X180061715Y-92993015D01*
X180071726Y-92995052D01*
X180175102Y-92998842D01*
X180269630Y-93021275D01*
X180348379Y-93078174D01*
X180399360Y-93160879D01*
X180414810Y-93256798D01*
X180392377Y-93351328D01*
X180335478Y-93430077D01*
X180276108Y-93470996D01*
X180122336Y-93546828D01*
X180115569Y-93551349D01*
X180115563Y-93551353D01*
X179883821Y-93706198D01*
X179877043Y-93710727D01*
X179655242Y-93905242D01*
X179649868Y-93911370D01*
X179646525Y-93915181D01*
X179644510Y-93916727D01*
X179644100Y-93917137D01*
X179644046Y-93917083D01*
X179569445Y-93974324D01*
X179475600Y-93999467D01*
X179459320Y-94000000D01*
X178915680Y-94000000D01*
X178820392Y-93981046D01*
X178739610Y-93927070D01*
X178728475Y-93915181D01*
X178725132Y-93911370D01*
X178719758Y-93905242D01*
X178497957Y-93710727D01*
X178252665Y-93546828D01*
X177988077Y-93416348D01*
X177980359Y-93413728D01*
X177980354Y-93413726D01*
X177848400Y-93368934D01*
X177708722Y-93321519D01*
X177419380Y-93263966D01*
X177125000Y-93244671D01*
X176830620Y-93263966D01*
X176541278Y-93321519D01*
X176401600Y-93368934D01*
X176269646Y-93413726D01*
X176269641Y-93413728D01*
X176261923Y-93416348D01*
X175997336Y-93546828D01*
X175990569Y-93551349D01*
X175990563Y-93551353D01*
X175758821Y-93706198D01*
X175752043Y-93710727D01*
X175530242Y-93905242D01*
X175524868Y-93911370D01*
X175521525Y-93915181D01*
X175519510Y-93916727D01*
X175519100Y-93917137D01*
X175519046Y-93917083D01*
X175444445Y-93974324D01*
X175350600Y-93999467D01*
X175334320Y-94000000D01*
X174790680Y-94000000D01*
X174695392Y-93981046D01*
X174614610Y-93927070D01*
X174603475Y-93915181D01*
X174600132Y-93911370D01*
X174594758Y-93905242D01*
X174372957Y-93710727D01*
X174127665Y-93546828D01*
X173931095Y-93449891D01*
X173854019Y-93390749D01*
X173805442Y-93306610D01*
X173792760Y-93210286D01*
X173817905Y-93116442D01*
X173877049Y-93039363D01*
X173961188Y-92990786D01*
X174009586Y-92979590D01*
X174052904Y-92974040D01*
X174052909Y-92974039D01*
X174063041Y-92972741D01*
X174299374Y-92901838D01*
X174520954Y-92793287D01*
X174614132Y-92726824D01*
X174713512Y-92655937D01*
X174713516Y-92655934D01*
X174721829Y-92650004D01*
X174896605Y-92475837D01*
X175040588Y-92275463D01*
X175149911Y-92054264D01*
X175154293Y-92039843D01*
X175218669Y-91827956D01*
X175218669Y-91827954D01*
X175221639Y-91818180D01*
X175224325Y-91797782D01*
X175252981Y-91580114D01*
X175252981Y-91580111D01*
X175253845Y-91573550D01*
X175255643Y-91500000D01*
X175253657Y-91475837D01*
X175236262Y-91264271D01*
X175235425Y-91254089D01*
X175175316Y-91014783D01*
X175076928Y-90788507D01*
X174942905Y-90581339D01*
X174776846Y-90398842D01*
X174583210Y-90245918D01*
X174550274Y-90227736D01*
X174406462Y-90148348D01*
X174367198Y-90126673D01*
X174357572Y-90123264D01*
X174357567Y-90123262D01*
X174144240Y-90047719D01*
X174144238Y-90047718D01*
X174134610Y-90044309D01*
X173891694Y-90001039D01*
X173881474Y-90000914D01*
X173881472Y-90000914D01*
X173741179Y-89999200D01*
X173644972Y-89998025D01*
X173455826Y-90026968D01*
X173411166Y-90033802D01*
X173411165Y-90033802D01*
X173401070Y-90035347D01*
X173391359Y-90038521D01*
X173176250Y-90108829D01*
X173176247Y-90108830D01*
X173166540Y-90112003D01*
X173049007Y-90173187D01*
X172982090Y-90208022D01*
X172947679Y-90225935D01*
X172750364Y-90374083D01*
X172743312Y-90381463D01*
X172743307Y-90381467D01*
X172599590Y-90531859D01*
X172579896Y-90552468D01*
X172574134Y-90560915D01*
X172463983Y-90722390D01*
X172440851Y-90756300D01*
X172336965Y-90980104D01*
X172334238Y-90989939D01*
X172334236Y-90989943D01*
X172277347Y-91195077D01*
X172271026Y-91217871D01*
X172266452Y-91260672D01*
X172252712Y-91389241D01*
X172244806Y-91463214D01*
X172259010Y-91709545D01*
X172261257Y-91719514D01*
X172261257Y-91719517D01*
X172292429Y-91857838D01*
X172313255Y-91950249D01*
X172406084Y-92178861D01*
X172535006Y-92389241D01*
X172696557Y-92575741D01*
X172808480Y-92668661D01*
X172849061Y-92702352D01*
X172886399Y-92733351D01*
X172982539Y-92789530D01*
X173055245Y-92853969D01*
X173097759Y-92941328D01*
X173103606Y-93038307D01*
X173071896Y-93130142D01*
X173007456Y-93202850D01*
X172920097Y-93245364D01*
X172873196Y-93252982D01*
X172717849Y-93263164D01*
X172705620Y-93263966D01*
X172416278Y-93321519D01*
X172276600Y-93368934D01*
X172144646Y-93413726D01*
X172144641Y-93413728D01*
X172136923Y-93416348D01*
X171872336Y-93546828D01*
X171865569Y-93551349D01*
X171865563Y-93551353D01*
X171633821Y-93706198D01*
X171627043Y-93710727D01*
X171405242Y-93905242D01*
X171399868Y-93911370D01*
X171396525Y-93915181D01*
X171394510Y-93916727D01*
X171394100Y-93917137D01*
X171394046Y-93917083D01*
X171319445Y-93974324D01*
X171225600Y-93999467D01*
X171209320Y-94000000D01*
X170665680Y-94000000D01*
X170570392Y-93981046D01*
X170489610Y-93927070D01*
X170478475Y-93915181D01*
X170475132Y-93911370D01*
X170469758Y-93905242D01*
X170247957Y-93710727D01*
X170002665Y-93546828D01*
X169738077Y-93416348D01*
X169730359Y-93413728D01*
X169730354Y-93413726D01*
X169598400Y-93368934D01*
X169458722Y-93321519D01*
X169169380Y-93263966D01*
X168875000Y-93244671D01*
X168580620Y-93263966D01*
X168291278Y-93321519D01*
X168151600Y-93368934D01*
X168019646Y-93413726D01*
X168019641Y-93413728D01*
X168011923Y-93416348D01*
X167747336Y-93546828D01*
X167740569Y-93551349D01*
X167740563Y-93551353D01*
X167508821Y-93706198D01*
X167502043Y-93710727D01*
X167280242Y-93905242D01*
X167274868Y-93911370D01*
X167271525Y-93915181D01*
X167269510Y-93916727D01*
X167269100Y-93917137D01*
X167269046Y-93917083D01*
X167194445Y-93974324D01*
X167100600Y-93999467D01*
X167084320Y-94000000D01*
X166540680Y-94000000D01*
X166445392Y-93981046D01*
X166364610Y-93927070D01*
X166353475Y-93915181D01*
X166350132Y-93911370D01*
X166344758Y-93905242D01*
X166122957Y-93710727D01*
X165877665Y-93546828D01*
X165613077Y-93416348D01*
X165605359Y-93413728D01*
X165605354Y-93413726D01*
X165473400Y-93368934D01*
X165333722Y-93321519D01*
X165044380Y-93263966D01*
X164750000Y-93244671D01*
X164455620Y-93263966D01*
X164166278Y-93321519D01*
X164026600Y-93368934D01*
X163894646Y-93413726D01*
X163894641Y-93413728D01*
X163886923Y-93416348D01*
X163622336Y-93546828D01*
X163615569Y-93551349D01*
X163615563Y-93551353D01*
X163383821Y-93706198D01*
X163377043Y-93710727D01*
X163155242Y-93905242D01*
X163149868Y-93911370D01*
X163146525Y-93915181D01*
X163144510Y-93916727D01*
X163144100Y-93917137D01*
X163144046Y-93917083D01*
X163069445Y-93974324D01*
X162975600Y-93999467D01*
X162959320Y-94000000D01*
X162415680Y-94000000D01*
X162320392Y-93981046D01*
X162239610Y-93927070D01*
X162228475Y-93915181D01*
X162225132Y-93911370D01*
X162219758Y-93905242D01*
X161997957Y-93710727D01*
X161752665Y-93546828D01*
X161488077Y-93416348D01*
X161480359Y-93413728D01*
X161480354Y-93413726D01*
X161348400Y-93368934D01*
X161208722Y-93321519D01*
X160919380Y-93263966D01*
X160625000Y-93244671D01*
X160330620Y-93263966D01*
X160041278Y-93321519D01*
X159901600Y-93368934D01*
X159769646Y-93413726D01*
X159769641Y-93413728D01*
X159761923Y-93416348D01*
X159497336Y-93546828D01*
X159490569Y-93551349D01*
X159490563Y-93551353D01*
X159258821Y-93706198D01*
X159252043Y-93710727D01*
X159030242Y-93905242D01*
X159024868Y-93911370D01*
X159021525Y-93915181D01*
X159019510Y-93916727D01*
X159019100Y-93917137D01*
X159019046Y-93917083D01*
X158944445Y-93974324D01*
X158850600Y-93999467D01*
X158834320Y-94000000D01*
X158290680Y-94000000D01*
X158195392Y-93981046D01*
X158114610Y-93927070D01*
X158103475Y-93915181D01*
X158100132Y-93911370D01*
X158094758Y-93905242D01*
X157872957Y-93710727D01*
X157627665Y-93546828D01*
X157363077Y-93416348D01*
X157355359Y-93413728D01*
X157355354Y-93413726D01*
X157223400Y-93368934D01*
X157083722Y-93321519D01*
X156794380Y-93263966D01*
X156500000Y-93244671D01*
X156205620Y-93263966D01*
X155916278Y-93321519D01*
X155776600Y-93368934D01*
X155644646Y-93413726D01*
X155644641Y-93413728D01*
X155636923Y-93416348D01*
X155372336Y-93546828D01*
X155365569Y-93551349D01*
X155365563Y-93551353D01*
X155133821Y-93706198D01*
X155127043Y-93710727D01*
X154905242Y-93905242D01*
X154899868Y-93911370D01*
X154896525Y-93915181D01*
X154894510Y-93916727D01*
X154894100Y-93917137D01*
X154894046Y-93917083D01*
X154819445Y-93974324D01*
X154725600Y-93999467D01*
X154709320Y-94000000D01*
X154165680Y-94000000D01*
X154070392Y-93981046D01*
X153989610Y-93927070D01*
X153978475Y-93915181D01*
X153975132Y-93911370D01*
X153969758Y-93905242D01*
X153747957Y-93710727D01*
X153502665Y-93546828D01*
X153238077Y-93416348D01*
X153230359Y-93413728D01*
X153230354Y-93413726D01*
X153098400Y-93368934D01*
X152958722Y-93321519D01*
X152669380Y-93263966D01*
X152375000Y-93244671D01*
X152080620Y-93263966D01*
X151791278Y-93321519D01*
X151651600Y-93368934D01*
X151519646Y-93413726D01*
X151519641Y-93413728D01*
X151511923Y-93416348D01*
X151247336Y-93546828D01*
X151240569Y-93551349D01*
X151240563Y-93551353D01*
X151008821Y-93706198D01*
X151002043Y-93710727D01*
X150780242Y-93905242D01*
X150774868Y-93911370D01*
X150771525Y-93915181D01*
X150769510Y-93916727D01*
X150769100Y-93917137D01*
X150769046Y-93917083D01*
X150694445Y-93974324D01*
X150600600Y-93999467D01*
X150584320Y-94000000D01*
X150040680Y-94000000D01*
X149945392Y-93981046D01*
X149864610Y-93927070D01*
X149853475Y-93915181D01*
X149850132Y-93911370D01*
X149844758Y-93905242D01*
X149622957Y-93710727D01*
X149377665Y-93546828D01*
X149113077Y-93416348D01*
X149105359Y-93413728D01*
X149105354Y-93413726D01*
X148973400Y-93368934D01*
X148833722Y-93321519D01*
X148544380Y-93263966D01*
X148250000Y-93244671D01*
X147955620Y-93263966D01*
X147666278Y-93321519D01*
X147526600Y-93368934D01*
X147394646Y-93413726D01*
X147394641Y-93413728D01*
X147386923Y-93416348D01*
X147122336Y-93546828D01*
X147115569Y-93551349D01*
X147115563Y-93551353D01*
X146883821Y-93706198D01*
X146877043Y-93710727D01*
X146655242Y-93905242D01*
X146649868Y-93911370D01*
X146646525Y-93915181D01*
X146644510Y-93916727D01*
X146644100Y-93917137D01*
X146644046Y-93917083D01*
X146569445Y-93974324D01*
X146475600Y-93999467D01*
X146459320Y-94000000D01*
X145915680Y-94000000D01*
X145820392Y-93981046D01*
X145739610Y-93927070D01*
X145728475Y-93915181D01*
X145725132Y-93911370D01*
X145719758Y-93905242D01*
X145497957Y-93710727D01*
X145252665Y-93546828D01*
X144988077Y-93416348D01*
X144980359Y-93413728D01*
X144980354Y-93413726D01*
X144848400Y-93368934D01*
X144708722Y-93321519D01*
X144419380Y-93263966D01*
X144125000Y-93244671D01*
X143830620Y-93263966D01*
X143541278Y-93321519D01*
X143401600Y-93368934D01*
X143269646Y-93413726D01*
X143269641Y-93413728D01*
X143261923Y-93416348D01*
X142997336Y-93546828D01*
X142990569Y-93551349D01*
X142990563Y-93551353D01*
X142758821Y-93706198D01*
X142752043Y-93710727D01*
X142530242Y-93905242D01*
X142524868Y-93911370D01*
X142521525Y-93915181D01*
X142519510Y-93916727D01*
X142519100Y-93917137D01*
X142519046Y-93917083D01*
X142444445Y-93974324D01*
X142350600Y-93999467D01*
X142334320Y-94000000D01*
X141790680Y-94000000D01*
X141695392Y-93981046D01*
X141614610Y-93927070D01*
X141603475Y-93915181D01*
X141600132Y-93911370D01*
X141594758Y-93905242D01*
X141372957Y-93710727D01*
X141127665Y-93546828D01*
X140863077Y-93416348D01*
X140855359Y-93413728D01*
X140855354Y-93413726D01*
X140723400Y-93368934D01*
X140583722Y-93321519D01*
X140294380Y-93263966D01*
X140000000Y-93244671D01*
X139705620Y-93263966D01*
X139416278Y-93321519D01*
X139276600Y-93368934D01*
X139144646Y-93413726D01*
X139144641Y-93413728D01*
X139136923Y-93416348D01*
X138872336Y-93546828D01*
X138865569Y-93551349D01*
X138865563Y-93551353D01*
X138633821Y-93706198D01*
X138627043Y-93710727D01*
X138405242Y-93905242D01*
X138399868Y-93911370D01*
X138396525Y-93915181D01*
X138394510Y-93916727D01*
X138394100Y-93917137D01*
X138394046Y-93917083D01*
X138319445Y-93974324D01*
X138225600Y-93999467D01*
X138209320Y-94000000D01*
X137665680Y-94000000D01*
X137570392Y-93981046D01*
X137489610Y-93927070D01*
X137478475Y-93915181D01*
X137475132Y-93911370D01*
X137469758Y-93905242D01*
X137247957Y-93710727D01*
X137002665Y-93546828D01*
X136738077Y-93416348D01*
X136730359Y-93413728D01*
X136730354Y-93413726D01*
X136598400Y-93368934D01*
X136458722Y-93321519D01*
X136169380Y-93263966D01*
X135875000Y-93244671D01*
X135580620Y-93263966D01*
X135291278Y-93321519D01*
X135151600Y-93368934D01*
X135019646Y-93413726D01*
X135019641Y-93413728D01*
X135011923Y-93416348D01*
X134747336Y-93546828D01*
X134740569Y-93551349D01*
X134740563Y-93551353D01*
X134508821Y-93706198D01*
X134502043Y-93710727D01*
X134280242Y-93905242D01*
X134274868Y-93911370D01*
X134271525Y-93915181D01*
X134269510Y-93916727D01*
X134269100Y-93917137D01*
X134269046Y-93917083D01*
X134194445Y-93974324D01*
X134100600Y-93999467D01*
X134084320Y-94000000D01*
X133540680Y-94000000D01*
X133445392Y-93981046D01*
X133364610Y-93927070D01*
X133353475Y-93915181D01*
X133350132Y-93911370D01*
X133344758Y-93905242D01*
X133122957Y-93710727D01*
X132877665Y-93546828D01*
X132613077Y-93416348D01*
X132605359Y-93413728D01*
X132605354Y-93413726D01*
X132473400Y-93368934D01*
X132333722Y-93321519D01*
X132044380Y-93263966D01*
X131750000Y-93244671D01*
X131455620Y-93263966D01*
X131166278Y-93321519D01*
X131026600Y-93368934D01*
X130894646Y-93413726D01*
X130894641Y-93413728D01*
X130886923Y-93416348D01*
X130622336Y-93546828D01*
X130615569Y-93551349D01*
X130615563Y-93551353D01*
X130383821Y-93706198D01*
X130377043Y-93710727D01*
X130155242Y-93905242D01*
X130149868Y-93911370D01*
X130146525Y-93915181D01*
X130144510Y-93916727D01*
X130144100Y-93917137D01*
X130144046Y-93917083D01*
X130069445Y-93974324D01*
X129975600Y-93999467D01*
X129959320Y-94000000D01*
X124540680Y-94000000D01*
X124445392Y-93981046D01*
X124364610Y-93927070D01*
X124353475Y-93915181D01*
X124350132Y-93911370D01*
X124344758Y-93905242D01*
X124122957Y-93710727D01*
X123877665Y-93546828D01*
X123613077Y-93416348D01*
X123605359Y-93413728D01*
X123605354Y-93413726D01*
X123473400Y-93368934D01*
X123333722Y-93321519D01*
X123044380Y-93263966D01*
X122750000Y-93244671D01*
X122455620Y-93263966D01*
X122166278Y-93321519D01*
X122026600Y-93368934D01*
X121894646Y-93413726D01*
X121894641Y-93413728D01*
X121886923Y-93416348D01*
X121622336Y-93546828D01*
X121615569Y-93551349D01*
X121615563Y-93551353D01*
X121383821Y-93706198D01*
X121377043Y-93710727D01*
X121155242Y-93905242D01*
X121149868Y-93911370D01*
X121146525Y-93915181D01*
X121144510Y-93916727D01*
X121144100Y-93917137D01*
X121144046Y-93917083D01*
X121069445Y-93974324D01*
X120975600Y-93999467D01*
X120959320Y-94000000D01*
X120457346Y-94000000D01*
X120362058Y-93981046D01*
X120281276Y-93927070D01*
X120270141Y-93915181D01*
X120266798Y-93911370D01*
X120261424Y-93905242D01*
X120039623Y-93710727D01*
X119794331Y-93546828D01*
X119529743Y-93416348D01*
X119522025Y-93413728D01*
X119522020Y-93413726D01*
X119390066Y-93368934D01*
X119250388Y-93321519D01*
X118961046Y-93263966D01*
X118666666Y-93244671D01*
X118372286Y-93263966D01*
X118082944Y-93321519D01*
X117943266Y-93368934D01*
X117811312Y-93413726D01*
X117811307Y-93413728D01*
X117803589Y-93416348D01*
X117539002Y-93546828D01*
X117532235Y-93551349D01*
X117532229Y-93551353D01*
X117300487Y-93706198D01*
X117293709Y-93710727D01*
X117071908Y-93905242D01*
X117066534Y-93911370D01*
X117063191Y-93915181D01*
X117061176Y-93916727D01*
X117060766Y-93917137D01*
X117060712Y-93917083D01*
X116986111Y-93974324D01*
X116892266Y-93999467D01*
X116875986Y-94000000D01*
X116374013Y-94000000D01*
X116278725Y-93981046D01*
X116197943Y-93927070D01*
X116186808Y-93915181D01*
X116183465Y-93911370D01*
X116178091Y-93905242D01*
X115956290Y-93710727D01*
X115710998Y-93546828D01*
X115446410Y-93416348D01*
X115438692Y-93413728D01*
X115438687Y-93413726D01*
X115306733Y-93368934D01*
X115167055Y-93321519D01*
X114877713Y-93263966D01*
X114583333Y-93244671D01*
X114288953Y-93263966D01*
X113999611Y-93321519D01*
X113859933Y-93368934D01*
X113727979Y-93413726D01*
X113727974Y-93413728D01*
X113720256Y-93416348D01*
X113455669Y-93546828D01*
X113448902Y-93551349D01*
X113448896Y-93551353D01*
X113217154Y-93706198D01*
X113210376Y-93710727D01*
X112988575Y-93905242D01*
X112983201Y-93911370D01*
X112979858Y-93915181D01*
X112977843Y-93916727D01*
X112977433Y-93917137D01*
X112977379Y-93917083D01*
X112902778Y-93974324D01*
X112808933Y-93999467D01*
X112792653Y-94000000D01*
X112290680Y-94000000D01*
X112195392Y-93981046D01*
X112114610Y-93927070D01*
X112103475Y-93915181D01*
X112100132Y-93911370D01*
X112094758Y-93905242D01*
X111872957Y-93710727D01*
X111627665Y-93546828D01*
X111363077Y-93416348D01*
X111355359Y-93413728D01*
X111355354Y-93413726D01*
X111223400Y-93368934D01*
X111083722Y-93321519D01*
X110794380Y-93263966D01*
X110500000Y-93244671D01*
X110205620Y-93263966D01*
X109916278Y-93321519D01*
X109776600Y-93368934D01*
X109644646Y-93413726D01*
X109644641Y-93413728D01*
X109636923Y-93416348D01*
X109372336Y-93546828D01*
X109365569Y-93551349D01*
X109365563Y-93551353D01*
X109133821Y-93706198D01*
X109127043Y-93710727D01*
X108905242Y-93905242D01*
X108899868Y-93911370D01*
X108896525Y-93915181D01*
X108894510Y-93916727D01*
X108894100Y-93917137D01*
X108894046Y-93917083D01*
X108819445Y-93974324D01*
X108725600Y-93999467D01*
X108709320Y-94000000D01*
X107499500Y-94000000D01*
X107404212Y-93981046D01*
X107323430Y-93927070D01*
X107269454Y-93846288D01*
X107250500Y-93751000D01*
X107250500Y-92404720D01*
X113777865Y-92404720D01*
X113782925Y-92412292D01*
X113834594Y-92448472D01*
X113853354Y-92459303D01*
X114041081Y-92546842D01*
X114061424Y-92554246D01*
X114261507Y-92607858D01*
X114282824Y-92611617D01*
X114489176Y-92629670D01*
X114510824Y-92629670D01*
X114717176Y-92611617D01*
X114738493Y-92607858D01*
X114938576Y-92554246D01*
X114958919Y-92546842D01*
X115146646Y-92459303D01*
X115165406Y-92448472D01*
X115207800Y-92418787D01*
X115222222Y-92403721D01*
X115218554Y-92395385D01*
X114517341Y-91694172D01*
X114500000Y-91682585D01*
X114482659Y-91694172D01*
X113789452Y-92387379D01*
X113777865Y-92404720D01*
X107250500Y-92404720D01*
X107250500Y-91328445D01*
X113187951Y-91328445D01*
X113206004Y-91534797D01*
X113209763Y-91556114D01*
X113263375Y-91756197D01*
X113270779Y-91776540D01*
X113358318Y-91964267D01*
X113369149Y-91983027D01*
X113398834Y-92025421D01*
X113413900Y-92039843D01*
X113422236Y-92036175D01*
X114123449Y-91334962D01*
X114135036Y-91317621D01*
X114864964Y-91317621D01*
X114876551Y-91334962D01*
X115569758Y-92028169D01*
X115587099Y-92039756D01*
X115594671Y-92034696D01*
X115630851Y-91983027D01*
X115641682Y-91964267D01*
X115729221Y-91776540D01*
X115736625Y-91756197D01*
X115790237Y-91556114D01*
X115793996Y-91534797D01*
X115799801Y-91468440D01*
X147074770Y-91468440D01*
X147089200Y-91688604D01*
X147092009Y-91699665D01*
X147092010Y-91699670D01*
X147114279Y-91787353D01*
X147143511Y-91902452D01*
X147148289Y-91912816D01*
X147148290Y-91912819D01*
X147172008Y-91964267D01*
X147235883Y-92102821D01*
X147363222Y-92283002D01*
X147371394Y-92290963D01*
X147371395Y-92290964D01*
X147513082Y-92428991D01*
X147513086Y-92428994D01*
X147521264Y-92436961D01*
X147704717Y-92559540D01*
X147715207Y-92564047D01*
X147715209Y-92564048D01*
X147757627Y-92582272D01*
X147907436Y-92646635D01*
X148122632Y-92695329D01*
X148232865Y-92699660D01*
X148331687Y-92703543D01*
X148331691Y-92703543D01*
X148343098Y-92703991D01*
X148486662Y-92683175D01*
X148550149Y-92673970D01*
X148550150Y-92673970D01*
X148561452Y-92672331D01*
X148572260Y-92668662D01*
X148572265Y-92668661D01*
X148740310Y-92611617D01*
X148770379Y-92601410D01*
X148962884Y-92493602D01*
X149070954Y-92403721D01*
X149123736Y-92359822D01*
X149132518Y-92352518D01*
X149273602Y-92182884D01*
X149330559Y-92081180D01*
X149393656Y-92007303D01*
X149480221Y-91963196D01*
X149577077Y-91955573D01*
X149669477Y-91985596D01*
X149743354Y-92048693D01*
X149764450Y-92083117D01*
X149765397Y-92082570D01*
X149771105Y-92092456D01*
X149775883Y-92102821D01*
X149903222Y-92283002D01*
X149911394Y-92290963D01*
X149911395Y-92290964D01*
X150053082Y-92428991D01*
X150053086Y-92428994D01*
X150061264Y-92436961D01*
X150244717Y-92559540D01*
X150255207Y-92564047D01*
X150255209Y-92564048D01*
X150297627Y-92582272D01*
X150447436Y-92646635D01*
X150662632Y-92695329D01*
X150772865Y-92699660D01*
X150871687Y-92703543D01*
X150871691Y-92703543D01*
X150883098Y-92703991D01*
X151026662Y-92683175D01*
X151090149Y-92673970D01*
X151090150Y-92673970D01*
X151101452Y-92672331D01*
X151112260Y-92668662D01*
X151112265Y-92668661D01*
X151280310Y-92611617D01*
X151310379Y-92601410D01*
X151502884Y-92493602D01*
X151610954Y-92403721D01*
X151663736Y-92359822D01*
X151672518Y-92352518D01*
X151813602Y-92182884D01*
X151921410Y-91990379D01*
X151951466Y-91901838D01*
X151988661Y-91792265D01*
X151988662Y-91792260D01*
X151992331Y-91781452D01*
X151999342Y-91733102D01*
X152022158Y-91575741D01*
X152023991Y-91563098D01*
X152025643Y-91500000D01*
X152005454Y-91280289D01*
X151945565Y-91067936D01*
X151847980Y-90870053D01*
X151715967Y-90693267D01*
X151553949Y-90543499D01*
X151541486Y-90535635D01*
X151426705Y-90463214D01*
X153244806Y-90463214D01*
X153259010Y-90709545D01*
X153261257Y-90719514D01*
X153261257Y-90719517D01*
X153294035Y-90864964D01*
X153313255Y-90950249D01*
X153406084Y-91178861D01*
X153411421Y-91187571D01*
X153411422Y-91187572D01*
X153436219Y-91228036D01*
X153535006Y-91389241D01*
X153696557Y-91575741D01*
X153818781Y-91677213D01*
X153857725Y-91709545D01*
X153886399Y-91733351D01*
X154099433Y-91857838D01*
X154329939Y-91945859D01*
X154339950Y-91947896D01*
X154339954Y-91947897D01*
X154561713Y-91993015D01*
X154561715Y-91993015D01*
X154571726Y-91995052D01*
X154674353Y-91998815D01*
X154808087Y-92003719D01*
X154808093Y-92003719D01*
X154818300Y-92004093D01*
X154828431Y-92002795D01*
X154828436Y-92002795D01*
X154982746Y-91983027D01*
X155063041Y-91972741D01*
X155091287Y-91964267D01*
X155152644Y-91945859D01*
X155299374Y-91901838D01*
X155520954Y-91793287D01*
X155605330Y-91733102D01*
X158381862Y-91733102D01*
X158385165Y-91738044D01*
X158388627Y-91740773D01*
X158554923Y-91842681D01*
X158572305Y-91851537D01*
X158773523Y-91934884D01*
X158792073Y-91940912D01*
X159003849Y-91991755D01*
X159023128Y-91994808D01*
X159240241Y-92011895D01*
X159259759Y-92011895D01*
X159476872Y-91994808D01*
X159496151Y-91991755D01*
X159707927Y-91940912D01*
X159726477Y-91934884D01*
X159927695Y-91851537D01*
X159945077Y-91842681D01*
X160102981Y-91745916D01*
X160118296Y-91731759D01*
X160116239Y-91726181D01*
X160113512Y-91722722D01*
X159267341Y-90876551D01*
X159250000Y-90864964D01*
X159232659Y-90876551D01*
X158393449Y-91715761D01*
X158381862Y-91733102D01*
X155605330Y-91733102D01*
X155615033Y-91726181D01*
X155713512Y-91655937D01*
X155713516Y-91655934D01*
X155721829Y-91650004D01*
X155896605Y-91475837D01*
X156040588Y-91275463D01*
X156149911Y-91054264D01*
X156158897Y-91024690D01*
X156218669Y-90827956D01*
X156218669Y-90827954D01*
X156221639Y-90818180D01*
X156224313Y-90797873D01*
X156252981Y-90580114D01*
X156252981Y-90580111D01*
X156253845Y-90573550D01*
X156254361Y-90552468D01*
X156255404Y-90509759D01*
X157738105Y-90509759D01*
X157755192Y-90726872D01*
X157758245Y-90746151D01*
X157809088Y-90957927D01*
X157815116Y-90976477D01*
X157898463Y-91177695D01*
X157907319Y-91195077D01*
X158004084Y-91352981D01*
X158018241Y-91368296D01*
X158023819Y-91366239D01*
X158027278Y-91363512D01*
X158873449Y-90517341D01*
X158885036Y-90500000D01*
X159614964Y-90500000D01*
X159626551Y-90517341D01*
X160465761Y-91356551D01*
X160483102Y-91368138D01*
X160488044Y-91364835D01*
X160490773Y-91361373D01*
X160592681Y-91195077D01*
X160601537Y-91177695D01*
X160684884Y-90976477D01*
X160690912Y-90957927D01*
X160741755Y-90746151D01*
X160744808Y-90726872D01*
X160761895Y-90509759D01*
X160761895Y-90490241D01*
X160744808Y-90273128D01*
X160741755Y-90253849D01*
X160690912Y-90042073D01*
X160684884Y-90023523D01*
X160601537Y-89822305D01*
X160592681Y-89804923D01*
X160495916Y-89647019D01*
X160481759Y-89631704D01*
X160476181Y-89633761D01*
X160472722Y-89636488D01*
X159626551Y-90482659D01*
X159614964Y-90500000D01*
X158885036Y-90500000D01*
X158873449Y-90482659D01*
X158034239Y-89643449D01*
X158016898Y-89631862D01*
X158011956Y-89635165D01*
X158009227Y-89638627D01*
X157907319Y-89804923D01*
X157898463Y-89822305D01*
X157815116Y-90023523D01*
X157809088Y-90042073D01*
X157758245Y-90253849D01*
X157755192Y-90273128D01*
X157738105Y-90490241D01*
X157738105Y-90509759D01*
X156255404Y-90509759D01*
X156255481Y-90506625D01*
X156255643Y-90500000D01*
X156252174Y-90457800D01*
X156239592Y-90304771D01*
X156235425Y-90254089D01*
X156175316Y-90014783D01*
X156076928Y-89788507D01*
X155942905Y-89581339D01*
X155776846Y-89398842D01*
X155611476Y-89268241D01*
X158381704Y-89268241D01*
X158383761Y-89273819D01*
X158386488Y-89277278D01*
X159232659Y-90123449D01*
X159250000Y-90135036D01*
X159267341Y-90123449D01*
X160106551Y-89284239D01*
X160118138Y-89266898D01*
X160114835Y-89261956D01*
X160111373Y-89259227D01*
X160096316Y-89250000D01*
X161384532Y-89250000D01*
X161385480Y-89260836D01*
X161387528Y-89284239D01*
X161404365Y-89476692D01*
X161463261Y-89696496D01*
X161559432Y-89902734D01*
X161565670Y-89911642D01*
X161565670Y-89911643D01*
X161578971Y-89930639D01*
X161689953Y-90089139D01*
X161850861Y-90250047D01*
X162037266Y-90380568D01*
X162243504Y-90476739D01*
X162254001Y-90479552D01*
X162254002Y-90479552D01*
X162353406Y-90506187D01*
X162463308Y-90535635D01*
X162474136Y-90536582D01*
X162474140Y-90536583D01*
X162679164Y-90554520D01*
X162690000Y-90555468D01*
X162700836Y-90554520D01*
X162905860Y-90536583D01*
X162905864Y-90536582D01*
X162916692Y-90535635D01*
X163026594Y-90506187D01*
X163125998Y-90479552D01*
X163125999Y-90479552D01*
X163136496Y-90476739D01*
X163342734Y-90380568D01*
X163529139Y-90250047D01*
X163690047Y-90089139D01*
X163801029Y-89930639D01*
X163814330Y-89911643D01*
X163814330Y-89911642D01*
X163820568Y-89902734D01*
X163916739Y-89696496D01*
X163966105Y-89512260D01*
X169027154Y-89512260D01*
X169028141Y-89519761D01*
X169073375Y-89688576D01*
X169080779Y-89708919D01*
X169168320Y-89896651D01*
X169179143Y-89915397D01*
X169297954Y-90085077D01*
X169311870Y-90101661D01*
X169458339Y-90248130D01*
X169474923Y-90262046D01*
X169644603Y-90380857D01*
X169663349Y-90391680D01*
X169851081Y-90479221D01*
X169871424Y-90486625D01*
X170032313Y-90529735D01*
X170053123Y-90531099D01*
X170055012Y-90527268D01*
X170056000Y-90519763D01*
X170056000Y-90511555D01*
X170564000Y-90511555D01*
X170568069Y-90532013D01*
X170572260Y-90532846D01*
X170579761Y-90531859D01*
X170748576Y-90486625D01*
X170768919Y-90479221D01*
X170956651Y-90391680D01*
X170975397Y-90380857D01*
X171145077Y-90262046D01*
X171161661Y-90248130D01*
X171308130Y-90101661D01*
X171322046Y-90085077D01*
X171440857Y-89915397D01*
X171451680Y-89896651D01*
X171539221Y-89708919D01*
X171546625Y-89688576D01*
X171589735Y-89527687D01*
X171591099Y-89506877D01*
X171587268Y-89504988D01*
X171579763Y-89504000D01*
X170588527Y-89504000D01*
X170568069Y-89508069D01*
X170564000Y-89528527D01*
X170564000Y-90511555D01*
X170056000Y-90511555D01*
X170056000Y-89528527D01*
X170051931Y-89508069D01*
X170031473Y-89504000D01*
X169048445Y-89504000D01*
X169027987Y-89508069D01*
X169027154Y-89512260D01*
X163966105Y-89512260D01*
X163975635Y-89476692D01*
X163992473Y-89284239D01*
X163994520Y-89260836D01*
X163995468Y-89250000D01*
X163988067Y-89165406D01*
X163976583Y-89034140D01*
X163976582Y-89034136D01*
X163975635Y-89023308D01*
X163967547Y-88993123D01*
X169028901Y-88993123D01*
X169032732Y-88995012D01*
X169040237Y-88996000D01*
X170031473Y-88996000D01*
X170051931Y-88991931D01*
X170056000Y-88971473D01*
X170564000Y-88971473D01*
X170568069Y-88991931D01*
X170588527Y-88996000D01*
X171571555Y-88996000D01*
X171592013Y-88991931D01*
X171592846Y-88987740D01*
X171591859Y-88980239D01*
X171546625Y-88811424D01*
X171539221Y-88791081D01*
X171451680Y-88603349D01*
X171440857Y-88584603D01*
X171322046Y-88414923D01*
X171308130Y-88398339D01*
X171161661Y-88251870D01*
X171145077Y-88237954D01*
X170975397Y-88119143D01*
X170956651Y-88108320D01*
X170768919Y-88020779D01*
X170748576Y-88013375D01*
X170587687Y-87970265D01*
X170566877Y-87968901D01*
X170564988Y-87972732D01*
X170564000Y-87980237D01*
X170564000Y-88971473D01*
X170056000Y-88971473D01*
X170056000Y-87988445D01*
X170051931Y-87967987D01*
X170047740Y-87967154D01*
X170040239Y-87968141D01*
X169871424Y-88013375D01*
X169851081Y-88020779D01*
X169663349Y-88108320D01*
X169644603Y-88119143D01*
X169474923Y-88237954D01*
X169458339Y-88251870D01*
X169311870Y-88398339D01*
X169297954Y-88414923D01*
X169179143Y-88584603D01*
X169168320Y-88603349D01*
X169080779Y-88791081D01*
X169073375Y-88811424D01*
X169030265Y-88972313D01*
X169028901Y-88993123D01*
X163967547Y-88993123D01*
X163916739Y-88803504D01*
X163820568Y-88597266D01*
X163690047Y-88410861D01*
X163529139Y-88249953D01*
X163342734Y-88119432D01*
X163136496Y-88023261D01*
X162916692Y-87964365D01*
X162905864Y-87963418D01*
X162905860Y-87963417D01*
X162700836Y-87945480D01*
X162690000Y-87944532D01*
X162679164Y-87945480D01*
X162474140Y-87963417D01*
X162474136Y-87963418D01*
X162463308Y-87964365D01*
X162243504Y-88023261D01*
X162037266Y-88119432D01*
X161850861Y-88249953D01*
X161689953Y-88410861D01*
X161559432Y-88597266D01*
X161463261Y-88803504D01*
X161404365Y-89023308D01*
X161403418Y-89034136D01*
X161403417Y-89034140D01*
X161391933Y-89165406D01*
X161384532Y-89250000D01*
X160096316Y-89250000D01*
X159945077Y-89157319D01*
X159927695Y-89148463D01*
X159726477Y-89065116D01*
X159707927Y-89059088D01*
X159496151Y-89008245D01*
X159476872Y-89005192D01*
X159259759Y-88988105D01*
X159240241Y-88988105D01*
X159023128Y-89005192D01*
X159003849Y-89008245D01*
X158792073Y-89059088D01*
X158773523Y-89065116D01*
X158572305Y-89148463D01*
X158554923Y-89157319D01*
X158397019Y-89254084D01*
X158381704Y-89268241D01*
X155611476Y-89268241D01*
X155583210Y-89245918D01*
X155570976Y-89239164D01*
X155422713Y-89157319D01*
X155367198Y-89126673D01*
X155357572Y-89123264D01*
X155357567Y-89123262D01*
X155144240Y-89047719D01*
X155144238Y-89047718D01*
X155134610Y-89044309D01*
X154891694Y-89001039D01*
X154881474Y-89000914D01*
X154881472Y-89000914D01*
X154741179Y-88999200D01*
X154644972Y-88998025D01*
X154479746Y-89023308D01*
X154411166Y-89033802D01*
X154411165Y-89033802D01*
X154401070Y-89035347D01*
X154391359Y-89038521D01*
X154176250Y-89108829D01*
X154176247Y-89108830D01*
X154166540Y-89112003D01*
X153947679Y-89225935D01*
X153750364Y-89374083D01*
X153743312Y-89381463D01*
X153743307Y-89381467D01*
X153611151Y-89519761D01*
X153579896Y-89552468D01*
X153574134Y-89560915D01*
X153450552Y-89742079D01*
X153440851Y-89756300D01*
X153336965Y-89980104D01*
X153334238Y-89989939D01*
X153334236Y-89989943D01*
X153273757Y-90208022D01*
X153271026Y-90217871D01*
X153262162Y-90300813D01*
X153250878Y-90406401D01*
X153244806Y-90463214D01*
X151426705Y-90463214D01*
X151377007Y-90431857D01*
X151377006Y-90431857D01*
X151367350Y-90425764D01*
X151356750Y-90421535D01*
X151356746Y-90421533D01*
X151173025Y-90348236D01*
X151173020Y-90348234D01*
X151162421Y-90344006D01*
X151109624Y-90333504D01*
X150957216Y-90303188D01*
X150957214Y-90303188D01*
X150946024Y-90300962D01*
X150826275Y-90299394D01*
X150736812Y-90298223D01*
X150736809Y-90298223D01*
X150725406Y-90298074D01*
X150631747Y-90314167D01*
X150519210Y-90333504D01*
X150519206Y-90333505D01*
X150507957Y-90335438D01*
X150456116Y-90354563D01*
X150311666Y-90407853D01*
X150311664Y-90407854D01*
X150300957Y-90411804D01*
X150111341Y-90524614D01*
X150102756Y-90532143D01*
X149954038Y-90662564D01*
X149954034Y-90662568D01*
X149945457Y-90670090D01*
X149808863Y-90843360D01*
X149803547Y-90853464D01*
X149803542Y-90853472D01*
X149771063Y-90915203D01*
X149709921Y-90990707D01*
X149624539Y-91037064D01*
X149527917Y-91047219D01*
X149434763Y-91019625D01*
X149359259Y-90958483D01*
X149327381Y-90909395D01*
X149313030Y-90880294D01*
X149307980Y-90870053D01*
X149175967Y-90693267D01*
X149013949Y-90543499D01*
X149001486Y-90535635D01*
X148837007Y-90431857D01*
X148837006Y-90431857D01*
X148827350Y-90425764D01*
X148816750Y-90421535D01*
X148816746Y-90421533D01*
X148633025Y-90348236D01*
X148633020Y-90348234D01*
X148622421Y-90344006D01*
X148569624Y-90333504D01*
X148417216Y-90303188D01*
X148417214Y-90303188D01*
X148406024Y-90300962D01*
X148286275Y-90299394D01*
X148196812Y-90298223D01*
X148196809Y-90298223D01*
X148185406Y-90298074D01*
X148091747Y-90314167D01*
X147979210Y-90333504D01*
X147979206Y-90333505D01*
X147967957Y-90335438D01*
X147916116Y-90354563D01*
X147771666Y-90407853D01*
X147771664Y-90407854D01*
X147760957Y-90411804D01*
X147571341Y-90524614D01*
X147562756Y-90532143D01*
X147414038Y-90662564D01*
X147414034Y-90662568D01*
X147405457Y-90670090D01*
X147268863Y-90843360D01*
X147166131Y-91038620D01*
X147100703Y-91249333D01*
X147098339Y-91269308D01*
X147076592Y-91453048D01*
X147074770Y-91468440D01*
X115799801Y-91468440D01*
X115812049Y-91328445D01*
X115812049Y-91306797D01*
X115793996Y-91100445D01*
X115790237Y-91079128D01*
X115736625Y-90879045D01*
X115729221Y-90858702D01*
X115719147Y-90837099D01*
X144027865Y-90837099D01*
X144032925Y-90844671D01*
X144084594Y-90880851D01*
X144103354Y-90891682D01*
X144291081Y-90979221D01*
X144311424Y-90986625D01*
X144511507Y-91040237D01*
X144532824Y-91043996D01*
X144739176Y-91062049D01*
X144760824Y-91062049D01*
X144967176Y-91043996D01*
X144988493Y-91040237D01*
X145188576Y-90986625D01*
X145208919Y-90979221D01*
X145396646Y-90891682D01*
X145415406Y-90880851D01*
X145457800Y-90851166D01*
X145472222Y-90836100D01*
X145468554Y-90827764D01*
X144767341Y-90126551D01*
X144750000Y-90114964D01*
X144732659Y-90126551D01*
X144039452Y-90819758D01*
X144027865Y-90837099D01*
X115719147Y-90837099D01*
X115641682Y-90670975D01*
X115630851Y-90652215D01*
X115601166Y-90609821D01*
X115586100Y-90595399D01*
X115577764Y-90599067D01*
X114876551Y-91300280D01*
X114864964Y-91317621D01*
X114135036Y-91317621D01*
X114123449Y-91300280D01*
X113430242Y-90607073D01*
X113412901Y-90595486D01*
X113405329Y-90600546D01*
X113369149Y-90652215D01*
X113358318Y-90670975D01*
X113270779Y-90858702D01*
X113263375Y-90879045D01*
X113209763Y-91079128D01*
X113206004Y-91100445D01*
X113187951Y-91306797D01*
X113187951Y-91328445D01*
X107250500Y-91328445D01*
X107250500Y-87970244D01*
X113199500Y-87970244D01*
X113199501Y-89664997D01*
X113206149Y-89726201D01*
X113256474Y-89860445D01*
X113283609Y-89896651D01*
X113330206Y-89958824D01*
X113342454Y-89975167D01*
X113457176Y-90061147D01*
X113473787Y-90067374D01*
X113576804Y-90105993D01*
X113576805Y-90105993D01*
X113591420Y-90111472D01*
X113606938Y-90113158D01*
X113619123Y-90116055D01*
X113707442Y-90156537D01*
X113773547Y-90227736D01*
X113777782Y-90235806D01*
X113779799Y-90238210D01*
X114482659Y-90941070D01*
X114500000Y-90952657D01*
X114517341Y-90941070D01*
X115210549Y-90247862D01*
X115228765Y-90220600D01*
X115297464Y-90151901D01*
X115378202Y-90116691D01*
X115393064Y-90113157D01*
X115408580Y-90111472D01*
X115423195Y-90105993D01*
X115423196Y-90105993D01*
X115526213Y-90067374D01*
X115542824Y-90061147D01*
X115657546Y-89975167D01*
X115669795Y-89958824D01*
X115716391Y-89896651D01*
X115743526Y-89860445D01*
X115793851Y-89726201D01*
X115795729Y-89708919D01*
X115797078Y-89696496D01*
X115800500Y-89664998D01*
X115800500Y-89076355D01*
X124762900Y-89076355D01*
X124763337Y-89081675D01*
X124766663Y-89101763D01*
X124820190Y-89314866D01*
X124826758Y-89334158D01*
X124914370Y-89535655D01*
X124923995Y-89553605D01*
X125043348Y-89738095D01*
X125055771Y-89754227D01*
X125203648Y-89916742D01*
X125218551Y-89930639D01*
X125390985Y-90066819D01*
X125407946Y-90078087D01*
X125600313Y-90184280D01*
X125618882Y-90192626D01*
X125826008Y-90265973D01*
X125845709Y-90271178D01*
X125931853Y-90286523D01*
X125952707Y-90286104D01*
X125956000Y-90277681D01*
X125956000Y-89083527D01*
X125951931Y-89063069D01*
X125931473Y-89059000D01*
X124786000Y-89059000D01*
X124765542Y-89063069D01*
X124762900Y-89076355D01*
X115800500Y-89076355D01*
X115800499Y-87970245D01*
X115793851Y-87909041D01*
X115743526Y-87774797D01*
X115673358Y-87681173D01*
X115668187Y-87674273D01*
X115657546Y-87660075D01*
X115542824Y-87574095D01*
X115477069Y-87549445D01*
X115423196Y-87529249D01*
X115423195Y-87529249D01*
X115408580Y-87523770D01*
X115347377Y-87517121D01*
X114500566Y-87517121D01*
X113652624Y-87517122D01*
X113591420Y-87523770D01*
X113457176Y-87574095D01*
X113342454Y-87660075D01*
X113331813Y-87674273D01*
X113326642Y-87681173D01*
X113256474Y-87774797D01*
X113250247Y-87791408D01*
X113213572Y-87889241D01*
X113206149Y-87909041D01*
X113199500Y-87970244D01*
X107250500Y-87970244D01*
X107250500Y-78221473D01*
X115242000Y-78221473D01*
X115246069Y-78241931D01*
X115266527Y-78246000D01*
X117221473Y-78246000D01*
X117241931Y-78241931D01*
X117246000Y-78221473D01*
X117754000Y-78221473D01*
X117758069Y-78241931D01*
X117778527Y-78246000D01*
X119733473Y-78246000D01*
X119753931Y-78241931D01*
X119758000Y-78221473D01*
X119758000Y-77536035D01*
X119757818Y-77529320D01*
X119755349Y-77483718D01*
X119753227Y-77466624D01*
X119711917Y-77255087D01*
X119706163Y-77234889D01*
X119630481Y-77035130D01*
X119621398Y-77016172D01*
X119513140Y-76832019D01*
X119501002Y-76814876D01*
X119363270Y-76651604D01*
X119348396Y-76636730D01*
X119185124Y-76498998D01*
X119167981Y-76486860D01*
X118983828Y-76378602D01*
X118964870Y-76369519D01*
X118765111Y-76293837D01*
X118744913Y-76288083D01*
X118533376Y-76246773D01*
X118516282Y-76244651D01*
X118470680Y-76242182D01*
X118463965Y-76242000D01*
X117778527Y-76242000D01*
X117758069Y-76246069D01*
X117754000Y-76266527D01*
X117754000Y-78221473D01*
X117246000Y-78221473D01*
X117246000Y-76266527D01*
X117241931Y-76246069D01*
X117221473Y-76242000D01*
X116536035Y-76242000D01*
X116529320Y-76242182D01*
X116483718Y-76244651D01*
X116466624Y-76246773D01*
X116255087Y-76288083D01*
X116234889Y-76293837D01*
X116035130Y-76369519D01*
X116016172Y-76378602D01*
X115832019Y-76486860D01*
X115814876Y-76498998D01*
X115651604Y-76636730D01*
X115636730Y-76651604D01*
X115498998Y-76814876D01*
X115486860Y-76832019D01*
X115378602Y-77016172D01*
X115369519Y-77035130D01*
X115293837Y-77234889D01*
X115288083Y-77255087D01*
X115246773Y-77466624D01*
X115244651Y-77483718D01*
X115242182Y-77529320D01*
X115242000Y-77536035D01*
X115242000Y-78221473D01*
X107250500Y-78221473D01*
X107250500Y-76499500D01*
X107269454Y-76404212D01*
X107323430Y-76323430D01*
X107404212Y-76269454D01*
X107499500Y-76250500D01*
X108187151Y-76250500D01*
X108218567Y-76253124D01*
X108218575Y-76253040D01*
X108228156Y-76253899D01*
X108237646Y-76255496D01*
X108250000Y-76255647D01*
X108256309Y-76254743D01*
X108258344Y-76254604D01*
X108258346Y-76254604D01*
X108514561Y-76237079D01*
X108514564Y-76237079D01*
X108523038Y-76236499D01*
X108531355Y-76234771D01*
X108531360Y-76234770D01*
X108753656Y-76188576D01*
X108790990Y-76180818D01*
X109048864Y-76089169D01*
X109106381Y-76059366D01*
X109284302Y-75967175D01*
X109284305Y-75967173D01*
X109291857Y-75963260D01*
X109298801Y-75958359D01*
X109298805Y-75958356D01*
X109508495Y-75810341D01*
X109508498Y-75810339D01*
X109515442Y-75805437D01*
X109616549Y-75711009D01*
X109709237Y-75624445D01*
X109709242Y-75624440D01*
X109715454Y-75618638D01*
X109888168Y-75406345D01*
X109945847Y-75311495D01*
X110025948Y-75179775D01*
X110025950Y-75179771D01*
X110030365Y-75172511D01*
X110043324Y-75142678D01*
X110136013Y-74929285D01*
X110139398Y-74921492D01*
X110144531Y-74903175D01*
X110210941Y-74666152D01*
X110213235Y-74657965D01*
X110250500Y-74386838D01*
X110250500Y-74113162D01*
X110213235Y-73842035D01*
X110177882Y-73715860D01*
X110141692Y-73586694D01*
X110141690Y-73586689D01*
X110139398Y-73578508D01*
X110105297Y-73500000D01*
X123384532Y-73500000D01*
X123385480Y-73510836D01*
X123402978Y-73710835D01*
X123404365Y-73726692D01*
X123407178Y-73737190D01*
X123451561Y-73902829D01*
X123463261Y-73946496D01*
X123559432Y-74152734D01*
X123689953Y-74339139D01*
X123850861Y-74500047D01*
X124037266Y-74630568D01*
X124243504Y-74726739D01*
X124254001Y-74729552D01*
X124254002Y-74729552D01*
X124271304Y-74734188D01*
X124463308Y-74785635D01*
X124474136Y-74786582D01*
X124474140Y-74786583D01*
X124679164Y-74804520D01*
X124690000Y-74805468D01*
X124700836Y-74804520D01*
X124905860Y-74786583D01*
X124905864Y-74786582D01*
X124916692Y-74785635D01*
X125108696Y-74734188D01*
X125125998Y-74729552D01*
X125125999Y-74729552D01*
X125136496Y-74726739D01*
X125342734Y-74630568D01*
X125404815Y-74587099D01*
X131587865Y-74587099D01*
X131592925Y-74594671D01*
X131644594Y-74630851D01*
X131663354Y-74641682D01*
X131851081Y-74729221D01*
X131871424Y-74736625D01*
X132071507Y-74790237D01*
X132092824Y-74793996D01*
X132299176Y-74812049D01*
X132320824Y-74812049D01*
X132527176Y-74793996D01*
X132548493Y-74790237D01*
X132748576Y-74736625D01*
X132768919Y-74729221D01*
X132956646Y-74641682D01*
X132975406Y-74630851D01*
X133017800Y-74601166D01*
X133032222Y-74586100D01*
X133028554Y-74577764D01*
X132327341Y-73876551D01*
X132310000Y-73864964D01*
X132292659Y-73876551D01*
X131599452Y-74569758D01*
X131587865Y-74587099D01*
X125404815Y-74587099D01*
X125529139Y-74500047D01*
X125690047Y-74339139D01*
X125820568Y-74152734D01*
X125916739Y-73946496D01*
X125928440Y-73902829D01*
X125972822Y-73737190D01*
X125975635Y-73726692D01*
X125977023Y-73710835D01*
X125994520Y-73510836D01*
X125994521Y-73510824D01*
X130997951Y-73510824D01*
X131016004Y-73717176D01*
X131019763Y-73738493D01*
X131073375Y-73938576D01*
X131080779Y-73958919D01*
X131168318Y-74146646D01*
X131179149Y-74165406D01*
X131208834Y-74207800D01*
X131223900Y-74222222D01*
X131232236Y-74218554D01*
X131933449Y-73517341D01*
X131945036Y-73500000D01*
X132674964Y-73500000D01*
X132686551Y-73517341D01*
X133379758Y-74210548D01*
X133397099Y-74222135D01*
X133404671Y-74217075D01*
X133440851Y-74165406D01*
X133451682Y-74146646D01*
X133539221Y-73958919D01*
X133546625Y-73938576D01*
X133600237Y-73738493D01*
X133603996Y-73717176D01*
X133622049Y-73510824D01*
X133622049Y-73489176D01*
X133603996Y-73282824D01*
X133600237Y-73261507D01*
X133546625Y-73061424D01*
X133539221Y-73041081D01*
X133451682Y-72853354D01*
X133440851Y-72834594D01*
X133411166Y-72792200D01*
X133396100Y-72777778D01*
X133387764Y-72781446D01*
X132686551Y-73482659D01*
X132674964Y-73500000D01*
X131945036Y-73500000D01*
X131933449Y-73482659D01*
X131240242Y-72789452D01*
X131222901Y-72777865D01*
X131215329Y-72782925D01*
X131179149Y-72834594D01*
X131168318Y-72853354D01*
X131080779Y-73041081D01*
X131073375Y-73061424D01*
X131019763Y-73261507D01*
X131016004Y-73282824D01*
X130997951Y-73489176D01*
X130997951Y-73510824D01*
X125994521Y-73510824D01*
X125995468Y-73500000D01*
X125991766Y-73457687D01*
X125976583Y-73284140D01*
X125976582Y-73284136D01*
X125975635Y-73273308D01*
X125916739Y-73053504D01*
X125820568Y-72847266D01*
X125690047Y-72660861D01*
X125529139Y-72499953D01*
X125406241Y-72413900D01*
X131587778Y-72413900D01*
X131591446Y-72422236D01*
X132292659Y-73123449D01*
X132310000Y-73135036D01*
X132327341Y-73123449D01*
X133020548Y-72430242D01*
X133032135Y-72412901D01*
X133027075Y-72405329D01*
X132975406Y-72369149D01*
X132956646Y-72358318D01*
X132768919Y-72270779D01*
X132748576Y-72263375D01*
X132548493Y-72209763D01*
X132527176Y-72206004D01*
X132320824Y-72187951D01*
X132299176Y-72187951D01*
X132092824Y-72206004D01*
X132071507Y-72209763D01*
X131871424Y-72263375D01*
X131851081Y-72270779D01*
X131663354Y-72358318D01*
X131644594Y-72369149D01*
X131602200Y-72398834D01*
X131587778Y-72413900D01*
X125406241Y-72413900D01*
X125342734Y-72369432D01*
X125136496Y-72273261D01*
X125097907Y-72262921D01*
X124980902Y-72231570D01*
X124916692Y-72214365D01*
X124905864Y-72213418D01*
X124905860Y-72213417D01*
X124700836Y-72195480D01*
X124690000Y-72194532D01*
X124679164Y-72195480D01*
X124474140Y-72213417D01*
X124474136Y-72213418D01*
X124463308Y-72214365D01*
X124399098Y-72231570D01*
X124282094Y-72262921D01*
X124243504Y-72273261D01*
X124037266Y-72369432D01*
X123850861Y-72499953D01*
X123689953Y-72660861D01*
X123559432Y-72847266D01*
X123463261Y-73053504D01*
X123404365Y-73273308D01*
X123403418Y-73284136D01*
X123403417Y-73284140D01*
X123388234Y-73457687D01*
X123384532Y-73500000D01*
X110105297Y-73500000D01*
X110077879Y-73436877D01*
X110033752Y-73335286D01*
X110033750Y-73335283D01*
X110030365Y-73327489D01*
X109983833Y-73250969D01*
X109892584Y-73100917D01*
X109888168Y-73093655D01*
X109715454Y-72881362D01*
X109709242Y-72875560D01*
X109709237Y-72875555D01*
X109566094Y-72741869D01*
X109515442Y-72694563D01*
X109508495Y-72689659D01*
X109298805Y-72541644D01*
X109298801Y-72541641D01*
X109291857Y-72536740D01*
X109284305Y-72532827D01*
X109284302Y-72532825D01*
X109056418Y-72414745D01*
X109056416Y-72414744D01*
X109048864Y-72410831D01*
X108790990Y-72319182D01*
X108677082Y-72295512D01*
X108531360Y-72265230D01*
X108531355Y-72265229D01*
X108523038Y-72263501D01*
X108514563Y-72262921D01*
X108514561Y-72262921D01*
X108284739Y-72247201D01*
X108279493Y-72246786D01*
X108271836Y-72246099D01*
X108262354Y-72244504D01*
X108250000Y-72244353D01*
X108231620Y-72246985D01*
X108196323Y-72249500D01*
X107499500Y-72249500D01*
X107404212Y-72230546D01*
X107323430Y-72176570D01*
X107269454Y-72095788D01*
X107250500Y-72000500D01*
X107250500Y-70749500D01*
X107269454Y-70654212D01*
X107323430Y-70573430D01*
X107404212Y-70519454D01*
X107499500Y-70500500D01*
X147157243Y-70500500D01*
X147252531Y-70519454D01*
G37*
%TD.AperFunction*%
%TD*%
M02*
