%TF.GenerationSoftware,KiCad,Pcbnew,(6.0.8)*%
%TF.CreationDate,2022-11-08T21:21:09+01:00*%
%TF.ProjectId,50x70_tiny,35307837-305f-4746-996e-792e6b696361,rev?*%
%TF.SameCoordinates,Original*%
%TF.FileFunction,Soldermask,Bot*%
%TF.FilePolarity,Negative*%
%FSLAX46Y46*%
G04 Gerber Fmt 4.6, Leading zero omitted, Abs format (unit mm)*
G04 Created by KiCad (PCBNEW (6.0.8)) date 2022-11-08 21:21:09*
%MOMM*%
%LPD*%
G01*
G04 APERTURE LIST*
G04 Aperture macros list*
%AMRoundRect*
0 Rectangle with rounded corners*
0 $1 Rounding radius*
0 $2 $3 $4 $5 $6 $7 $8 $9 X,Y pos of 4 corners*
0 Add a 4 corners polygon primitive as box body*
4,1,4,$2,$3,$4,$5,$6,$7,$8,$9,$2,$3,0*
0 Add four circle primitives for the rounded corners*
1,1,$1+$1,$2,$3*
1,1,$1+$1,$4,$5*
1,1,$1+$1,$6,$7*
1,1,$1+$1,$8,$9*
0 Add four rect primitives between the rounded corners*
20,1,$1+$1,$2,$3,$4,$5,0*
20,1,$1+$1,$4,$5,$6,$7,0*
20,1,$1+$1,$6,$7,$8,$9,0*
20,1,$1+$1,$8,$9,$2,$3,0*%
G04 Aperture macros list end*
%ADD10C,1.600000*%
%ADD11O,1.700000X1.700000*%
%ADD12C,1.700000*%
%ADD13O,1.600000X1.600000*%
%ADD14R,1.500000X1.500000*%
%ADD15C,1.500000*%
%ADD16C,2.000000*%
%ADD17C,1.400000*%
%ADD18O,1.400000X1.400000*%
%ADD19R,1.800000X1.800000*%
%ADD20C,1.800000*%
%ADD21R,1.600000X1.600000*%
%ADD22R,1.905000X2.000000*%
%ADD23O,1.905000X2.000000*%
%ADD24RoundRect,0.875000X-0.875000X0.875000X-0.875000X-0.875000X0.875000X-0.875000X0.875000X0.875000X0*%
G04 APERTURE END LIST*
D10*
%TO.C,C2*%
X144750000Y-87250000D03*
X144750000Y-89750000D03*
%TD*%
D11*
%TO.C,J3*%
X178025000Y-75765000D03*
D12*
X178025000Y-73225000D03*
D11*
X175485000Y-75765000D03*
X175485000Y-73225000D03*
X172945000Y-75765000D03*
X172945000Y-73225000D03*
%TD*%
D10*
%TO.C,R8*%
X152060000Y-84000000D03*
D13*
X144440000Y-84000000D03*
%TD*%
D14*
%TO.C,U2*%
X139480000Y-84460000D03*
D15*
X142020000Y-87000000D03*
X139480000Y-89540000D03*
%TD*%
D16*
%TO.C,SW3*%
X154750000Y-84000000D03*
X154750000Y-90500000D03*
X159250000Y-84000000D03*
X159250000Y-90500000D03*
%TD*%
D12*
%TO.C,J2*%
X135500000Y-73700000D03*
D11*
X135500000Y-76240000D03*
X135500000Y-78780000D03*
X135500000Y-81320000D03*
%TD*%
D17*
%TO.C,TH1*%
X148280000Y-91500000D03*
D18*
X150820000Y-91500000D03*
%TD*%
D10*
%TO.C,R4*%
X165750000Y-78440000D03*
D13*
X165750000Y-86060000D03*
%TD*%
D10*
%TO.C,R1*%
X131810000Y-82750000D03*
D13*
X124190000Y-82750000D03*
%TD*%
D10*
%TO.C,R6*%
X162500000Y-86060000D03*
D13*
X162500000Y-78440000D03*
%TD*%
D19*
%TO.C,D1*%
X125000000Y-77000000D03*
D20*
X125000000Y-79540000D03*
%TD*%
D16*
%TO.C,*%
X149500000Y-103650000D03*
%TD*%
D21*
%TO.C,U1*%
X149800000Y-80800000D03*
D13*
X149800000Y-78260000D03*
X149800000Y-75720000D03*
X149800000Y-73180000D03*
X142180000Y-73180000D03*
X142180000Y-75720000D03*
X142180000Y-78260000D03*
X142180000Y-80800000D03*
%TD*%
D22*
%TO.C,Q1*%
X131290000Y-88805000D03*
D23*
X128750000Y-88805000D03*
X126210000Y-88805000D03*
%TD*%
D16*
%TO.C,SW1*%
X173750000Y-84000000D03*
X180250000Y-84000000D03*
X173750000Y-79500000D03*
X180250000Y-79500000D03*
%TD*%
D21*
%TO.C,C3*%
X114500000Y-88817621D03*
D10*
X114500000Y-91317621D03*
%TD*%
D24*
%TO.C,J1*%
X117500000Y-84500000D03*
X117500000Y-78500000D03*
X112800000Y-81500000D03*
%TD*%
D10*
%TO.C,R3*%
X169000000Y-86060000D03*
D13*
X169000000Y-78440000D03*
%TD*%
D10*
%TO.C,R5*%
X132310000Y-73500000D03*
D13*
X124690000Y-73500000D03*
%TD*%
D16*
%TO.C,SW2*%
X173750000Y-91500000D03*
X180250000Y-91500000D03*
X180250000Y-87000000D03*
X173750000Y-87000000D03*
%TD*%
D10*
%TO.C,R7*%
X155190000Y-75750000D03*
D13*
X162810000Y-75750000D03*
%TD*%
D10*
%TO.C,C1*%
X135750000Y-86000000D03*
X135750000Y-88500000D03*
%TD*%
%TO.C,R2*%
X162690000Y-89250000D03*
D13*
X170310000Y-89250000D03*
%TD*%
M02*
