%TF.GenerationSoftware,KiCad,Pcbnew,(6.0.8)*%
%TF.CreationDate,2022-11-08T21:21:11+01:00*%
%TF.ProjectId,50x70_tiny,35307837-305f-4746-996e-792e6b696361,rev?*%
%TF.SameCoordinates,Original*%
%TF.FileFunction,Drillmap*%
%TF.FilePolarity,Positive*%
%FSLAX45Y45*%
G04 Gerber Fmt 4.5, Leading zero omitted, Abs format (unit mm)*
G04 Created by KiCad (PCBNEW (6.0.8)) date 2022-11-08 21:21:11*
%MOMM*%
%LPD*%
G01*
G04 APERTURE LIST*
%ADD10C,0.200000*%
%ADD11C,0.150000*%
%ADD12C,0.070000*%
%ADD13C,0.080000*%
%ADD14C,0.090000*%
%ADD15C,0.100000*%
%ADD16C,0.110000*%
%ADD17C,0.120000*%
%ADD18C,0.250000*%
G04 APERTURE END LIST*
D10*
X10675000Y-7275000D02*
X10675000Y-7000000D01*
X18345000Y-14275000D02*
G75*
G03*
X18345000Y-14575000I0J-150000D01*
G01*
X18350000Y-7275000D02*
G75*
G03*
X18350000Y-7575000I0J-150000D01*
G01*
D11*
X15412500Y-9550000D02*
G75*
G03*
X15412500Y-9550000I-175000J0D01*
G01*
D10*
X18350000Y-7575000D02*
X18500000Y-7575000D01*
D11*
X12041667Y-9550000D02*
G75*
G03*
X12041667Y-9550000I-175000J0D01*
G01*
X13762500Y-9550000D02*
G75*
G03*
X13762500Y-9550000I-175000J0D01*
G01*
X13350000Y-9550000D02*
G75*
G03*
X13350000Y-9550000I-175000J0D01*
G01*
D10*
X18350000Y-7275000D02*
X18500000Y-7275000D01*
X18495000Y-14575000D02*
X18495000Y-14850000D01*
X10825000Y-7575000D02*
G75*
G03*
X10825000Y-7275000I0J150000D01*
G01*
D11*
X14587500Y-9550000D02*
G75*
G03*
X14587500Y-9550000I-175000J0D01*
G01*
X15000000Y-9550000D02*
G75*
G03*
X15000000Y-9550000I-175000J0D01*
G01*
D10*
X10675000Y-7000000D02*
X18500000Y-7000000D01*
X18345000Y-14275000D02*
X18495000Y-14275000D01*
D11*
X11633333Y-9550000D02*
G75*
G03*
X11633333Y-9550000I-175000J0D01*
G01*
D10*
X10675000Y-14275000D02*
X10675000Y-7575000D01*
D11*
X17887500Y-9550000D02*
G75*
G03*
X17887500Y-9550000I-175000J0D01*
G01*
D10*
X10825000Y-14575000D02*
G75*
G03*
X10825000Y-14275000I0J150000D01*
G01*
D11*
X18300000Y-9550000D02*
G75*
G03*
X18300000Y-9550000I-175000J0D01*
G01*
D10*
X10825000Y-7575000D02*
X10675000Y-7575000D01*
X18345000Y-14575000D02*
X18495000Y-14575000D01*
X10825000Y-14275000D02*
X10675000Y-14275000D01*
X18500000Y-7000000D02*
X18500000Y-7275000D01*
X18495000Y-14850000D02*
X10675000Y-14850000D01*
X18500000Y-7575000D02*
X18495000Y-14275000D01*
X10675000Y-14850000D02*
X10675000Y-14575000D01*
X10825000Y-14575000D02*
X10675000Y-14575000D01*
D11*
X16237500Y-9550000D02*
G75*
G03*
X16237500Y-9550000I-175000J0D01*
G01*
X11225000Y-9550000D02*
G75*
G03*
X11225000Y-9550000I-175000J0D01*
G01*
X17062500Y-9550000D02*
G75*
G03*
X17062500Y-9550000I-175000J0D01*
G01*
X14175000Y-9550000D02*
G75*
G03*
X14175000Y-9550000I-175000J0D01*
G01*
X17475000Y-9550000D02*
G75*
G03*
X17475000Y-9550000I-175000J0D01*
G01*
X12450000Y-9550000D02*
G75*
G03*
X12450000Y-9550000I-175000J0D01*
G01*
X16650000Y-9550000D02*
G75*
G03*
X16650000Y-9550000I-175000J0D01*
G01*
D10*
X10825000Y-7275000D02*
X10675000Y-7275000D01*
D11*
X15825000Y-9550000D02*
G75*
G03*
X15825000Y-9550000I-175000J0D01*
G01*
D10*
D12*
X14793000Y-9115000D02*
X14863000Y-9185000D01*
X14863000Y-9115000D02*
X14793000Y-9185000D01*
X15047000Y-9115000D02*
X15117000Y-9185000D01*
X15117000Y-9115000D02*
X15047000Y-9185000D01*
D13*
X11490000Y-8881762D02*
G75*
G03*
X11490000Y-8881762I-40000J0D01*
G01*
X11490000Y-9131762D02*
G75*
G03*
X11490000Y-9131762I-40000J0D01*
G01*
X12459000Y-8275000D02*
G75*
G03*
X12459000Y-8275000I-40000J0D01*
G01*
X12509000Y-7350000D02*
G75*
G03*
X12509000Y-7350000I-40000J0D01*
G01*
X13221000Y-8275000D02*
G75*
G03*
X13221000Y-8275000I-40000J0D01*
G01*
X13271000Y-7350000D02*
G75*
G03*
X13271000Y-7350000I-40000J0D01*
G01*
X13615000Y-8600000D02*
G75*
G03*
X13615000Y-8600000I-40000J0D01*
G01*
X13615000Y-8850000D02*
G75*
G03*
X13615000Y-8850000I-40000J0D01*
G01*
X13988000Y-8446000D02*
G75*
G03*
X13988000Y-8446000I-40000J0D01*
G01*
X13988000Y-8954000D02*
G75*
G03*
X13988000Y-8954000I-40000J0D01*
G01*
X14242000Y-8700000D02*
G75*
G03*
X14242000Y-8700000I-40000J0D01*
G01*
X14258000Y-7318000D02*
G75*
G03*
X14258000Y-7318000I-40000J0D01*
G01*
X14258000Y-7572000D02*
G75*
G03*
X14258000Y-7572000I-40000J0D01*
G01*
X14258000Y-7826000D02*
G75*
G03*
X14258000Y-7826000I-40000J0D01*
G01*
X14258000Y-8080000D02*
G75*
G03*
X14258000Y-8080000I-40000J0D01*
G01*
X14484000Y-8400000D02*
G75*
G03*
X14484000Y-8400000I-40000J0D01*
G01*
X14515000Y-8725000D02*
G75*
G03*
X14515000Y-8725000I-40000J0D01*
G01*
X14515000Y-8975000D02*
G75*
G03*
X14515000Y-8975000I-40000J0D01*
G01*
X15020000Y-7318000D02*
G75*
G03*
X15020000Y-7318000I-40000J0D01*
G01*
X15020000Y-7572000D02*
G75*
G03*
X15020000Y-7572000I-40000J0D01*
G01*
X15020000Y-7826000D02*
G75*
G03*
X15020000Y-7826000I-40000J0D01*
G01*
X15020000Y-8080000D02*
G75*
G03*
X15020000Y-8080000I-40000J0D01*
G01*
X15246000Y-8400000D02*
G75*
G03*
X15246000Y-8400000I-40000J0D01*
G01*
X15559000Y-7575000D02*
G75*
G03*
X15559000Y-7575000I-40000J0D01*
G01*
X16290000Y-7844000D02*
G75*
G03*
X16290000Y-7844000I-40000J0D01*
G01*
X16290000Y-8606000D02*
G75*
G03*
X16290000Y-8606000I-40000J0D01*
G01*
X16309000Y-8925000D02*
G75*
G03*
X16309000Y-8925000I-40000J0D01*
G01*
X16321000Y-7575000D02*
G75*
G03*
X16321000Y-7575000I-40000J0D01*
G01*
X16615000Y-7844000D02*
G75*
G03*
X16615000Y-7844000I-40000J0D01*
G01*
X16615000Y-8606000D02*
G75*
G03*
X16615000Y-8606000I-40000J0D01*
G01*
X16940000Y-7844000D02*
G75*
G03*
X16940000Y-7844000I-40000J0D01*
G01*
X16940000Y-8606000D02*
G75*
G03*
X16940000Y-8606000I-40000J0D01*
G01*
X17071000Y-8925000D02*
G75*
G03*
X17071000Y-8925000I-40000J0D01*
G01*
D14*
X12500000Y-7655000D02*
X12500000Y-7745000D01*
X12455000Y-7700000D02*
X12545000Y-7700000D01*
X12500000Y-7909000D02*
X12500000Y-7999000D01*
X12455000Y-7954000D02*
X12545000Y-7954000D01*
D15*
X13585356Y-7405356D02*
X13585356Y-7334644D01*
X13514644Y-7334644D01*
X13514644Y-7405356D01*
X13585356Y-7405356D01*
X13585356Y-7659356D02*
X13585356Y-7588644D01*
X13514644Y-7588644D01*
X13514644Y-7659356D01*
X13585356Y-7659356D01*
X13585356Y-7913356D02*
X13585356Y-7842644D01*
X13514644Y-7842644D01*
X13514644Y-7913356D01*
X13585356Y-7913356D01*
X13585356Y-8167356D02*
X13585356Y-8096644D01*
X13514644Y-8096644D01*
X13514644Y-8167356D01*
X13585356Y-8167356D01*
X17329856Y-7357856D02*
X17329856Y-7287144D01*
X17259144Y-7287144D01*
X17259144Y-7357856D01*
X17329856Y-7357856D01*
X17329856Y-7611856D02*
X17329856Y-7541144D01*
X17259144Y-7541144D01*
X17259144Y-7611856D01*
X17329856Y-7611856D01*
X17583856Y-7357856D02*
X17583856Y-7287144D01*
X17513144Y-7287144D01*
X17513144Y-7357856D01*
X17583856Y-7357856D01*
X17583856Y-7611856D02*
X17583856Y-7541144D01*
X17513144Y-7541144D01*
X17513144Y-7611856D01*
X17583856Y-7611856D01*
X17837856Y-7357856D02*
X17837856Y-7287144D01*
X17767144Y-7287144D01*
X17767144Y-7357856D01*
X17837856Y-7357856D01*
X17837856Y-7611856D02*
X17837856Y-7541144D01*
X17767144Y-7541144D01*
X17767144Y-7611856D01*
X17837856Y-7611856D01*
D16*
X15475000Y-8455000D02*
X15530000Y-8400000D01*
X15475000Y-8345000D01*
X15420000Y-8400000D01*
X15475000Y-8455000D01*
X15475000Y-9105000D02*
X15530000Y-9050000D01*
X15475000Y-8995000D01*
X15420000Y-9050000D01*
X15475000Y-9105000D01*
X15925000Y-8455000D02*
X15980000Y-8400000D01*
X15925000Y-8345000D01*
X15870000Y-8400000D01*
X15925000Y-8455000D01*
X15925000Y-9105000D02*
X15980000Y-9050000D01*
X15925000Y-8995000D01*
X15870000Y-9050000D01*
X15925000Y-9105000D01*
X17375000Y-8005000D02*
X17430000Y-7950000D01*
X17375000Y-7895000D01*
X17320000Y-7950000D01*
X17375000Y-8005000D01*
X17375000Y-8455000D02*
X17430000Y-8400000D01*
X17375000Y-8345000D01*
X17320000Y-8400000D01*
X17375000Y-8455000D01*
X17375000Y-8755000D02*
X17430000Y-8700000D01*
X17375000Y-8645000D01*
X17320000Y-8700000D01*
X17375000Y-8755000D01*
X17375000Y-9205000D02*
X17430000Y-9150000D01*
X17375000Y-9095000D01*
X17320000Y-9150000D01*
X17375000Y-9205000D01*
X18025000Y-8005000D02*
X18080000Y-7950000D01*
X18025000Y-7895000D01*
X17970000Y-7950000D01*
X18025000Y-8005000D01*
X18025000Y-8455000D02*
X18080000Y-8400000D01*
X18025000Y-8345000D01*
X17970000Y-8400000D01*
X18025000Y-8455000D01*
X18025000Y-8755000D02*
X18080000Y-8700000D01*
X18025000Y-8645000D01*
X17970000Y-8700000D01*
X18025000Y-8755000D01*
X18025000Y-9205000D02*
X18080000Y-9150000D01*
X18025000Y-9095000D01*
X17970000Y-9150000D01*
X18025000Y-9205000D01*
D17*
X12561000Y-8820500D02*
X12681000Y-8940500D01*
X12681000Y-8820500D02*
X12561000Y-8940500D01*
X12681000Y-8880500D02*
G75*
G03*
X12681000Y-8880500I-60000J0D01*
G01*
X12815000Y-8820500D02*
X12935000Y-8940500D01*
X12935000Y-8820500D02*
X12815000Y-8940500D01*
X12935000Y-8880500D02*
G75*
G03*
X12935000Y-8880500I-60000J0D01*
G01*
X13069000Y-8820500D02*
X13189000Y-8940500D01*
X13189000Y-8820500D02*
X13069000Y-8940500D01*
X13189000Y-8880500D02*
G75*
G03*
X13189000Y-8880500I-60000J0D01*
G01*
D11*
X14875000Y-10290000D02*
X15025000Y-10440000D01*
X15025000Y-10290000D02*
X14875000Y-10440000D01*
X14950000Y-10290000D02*
X14950000Y-10440000D01*
X14875000Y-10365000D02*
X15025000Y-10365000D01*
D18*
X11155000Y-8025000D02*
X11405000Y-8275000D01*
X11405000Y-8025000D02*
X11155000Y-8275000D01*
X11368389Y-8238389D02*
X11368389Y-8061611D01*
X11191611Y-8061611D01*
X11191611Y-8238389D01*
X11368389Y-8238389D01*
X11625000Y-7725000D02*
X11875000Y-7975000D01*
X11875000Y-7725000D02*
X11625000Y-7975000D01*
X11838389Y-7938389D02*
X11838389Y-7761611D01*
X11661611Y-7761611D01*
X11661611Y-7938389D01*
X11838389Y-7938389D01*
X11625000Y-8325000D02*
X11875000Y-8575000D01*
X11875000Y-8325000D02*
X11625000Y-8575000D01*
X11838389Y-8538389D02*
X11838389Y-8361611D01*
X11661611Y-8361611D01*
X11661611Y-8538389D01*
X11838389Y-8538389D01*
D10*
X10922619Y-15170476D02*
X10922619Y-14970476D01*
X10970238Y-14970476D01*
X10998810Y-14980000D01*
X11017857Y-14999048D01*
X11027381Y-15018095D01*
X11036905Y-15056190D01*
X11036905Y-15084762D01*
X11027381Y-15122857D01*
X11017857Y-15141905D01*
X10998810Y-15160952D01*
X10970238Y-15170476D01*
X10922619Y-15170476D01*
X11122619Y-15170476D02*
X11122619Y-15037143D01*
X11122619Y-15075238D02*
X11132143Y-15056190D01*
X11141667Y-15046667D01*
X11160714Y-15037143D01*
X11179762Y-15037143D01*
X11246428Y-15170476D02*
X11246428Y-15037143D01*
X11246428Y-14970476D02*
X11236905Y-14980000D01*
X11246428Y-14989524D01*
X11255952Y-14980000D01*
X11246428Y-14970476D01*
X11246428Y-14989524D01*
X11370238Y-15170476D02*
X11351190Y-15160952D01*
X11341667Y-15141905D01*
X11341667Y-14970476D01*
X11475000Y-15170476D02*
X11455952Y-15160952D01*
X11446428Y-15141905D01*
X11446428Y-14970476D01*
X11703571Y-15170476D02*
X11703571Y-14970476D01*
X11770238Y-15113333D01*
X11836905Y-14970476D01*
X11836905Y-15170476D01*
X12017857Y-15170476D02*
X12017857Y-15065714D01*
X12008333Y-15046667D01*
X11989286Y-15037143D01*
X11951190Y-15037143D01*
X11932143Y-15046667D01*
X12017857Y-15160952D02*
X11998809Y-15170476D01*
X11951190Y-15170476D01*
X11932143Y-15160952D01*
X11922619Y-15141905D01*
X11922619Y-15122857D01*
X11932143Y-15103809D01*
X11951190Y-15094286D01*
X11998809Y-15094286D01*
X12017857Y-15084762D01*
X12113095Y-15037143D02*
X12113095Y-15237143D01*
X12113095Y-15046667D02*
X12132143Y-15037143D01*
X12170238Y-15037143D01*
X12189286Y-15046667D01*
X12198809Y-15056190D01*
X12208333Y-15075238D01*
X12208333Y-15132381D01*
X12198809Y-15151428D01*
X12189286Y-15160952D01*
X12170238Y-15170476D01*
X12132143Y-15170476D01*
X12113095Y-15160952D01*
X12294048Y-15151428D02*
X12303571Y-15160952D01*
X12294048Y-15170476D01*
X12284524Y-15160952D01*
X12294048Y-15151428D01*
X12294048Y-15170476D01*
X12294048Y-15046667D02*
X12303571Y-15056190D01*
X12294048Y-15065714D01*
X12284524Y-15056190D01*
X12294048Y-15046667D01*
X12294048Y-15065714D01*
D12*
X10595000Y-15465000D02*
X10665000Y-15535000D01*
X10665000Y-15465000D02*
X10595000Y-15535000D01*
D10*
X10960714Y-15390476D02*
X10979762Y-15390476D01*
X10998810Y-15400000D01*
X11008333Y-15409524D01*
X11017857Y-15428571D01*
X11027381Y-15466667D01*
X11027381Y-15514286D01*
X11017857Y-15552381D01*
X11008333Y-15571428D01*
X10998810Y-15580952D01*
X10979762Y-15590476D01*
X10960714Y-15590476D01*
X10941667Y-15580952D01*
X10932143Y-15571428D01*
X10922619Y-15552381D01*
X10913095Y-15514286D01*
X10913095Y-15466667D01*
X10922619Y-15428571D01*
X10932143Y-15409524D01*
X10941667Y-15400000D01*
X10960714Y-15390476D01*
X11113095Y-15571428D02*
X11122619Y-15580952D01*
X11113095Y-15590476D01*
X11103571Y-15580952D01*
X11113095Y-15571428D01*
X11113095Y-15590476D01*
X11189286Y-15390476D02*
X11322619Y-15390476D01*
X11236905Y-15590476D01*
X11436905Y-15390476D02*
X11455952Y-15390476D01*
X11475000Y-15400000D01*
X11484524Y-15409524D01*
X11494048Y-15428571D01*
X11503571Y-15466667D01*
X11503571Y-15514286D01*
X11494048Y-15552381D01*
X11484524Y-15571428D01*
X11475000Y-15580952D01*
X11455952Y-15590476D01*
X11436905Y-15590476D01*
X11417857Y-15580952D01*
X11408333Y-15571428D01*
X11398809Y-15552381D01*
X11389286Y-15514286D01*
X11389286Y-15466667D01*
X11398809Y-15428571D01*
X11408333Y-15409524D01*
X11417857Y-15400000D01*
X11436905Y-15390476D01*
X11627381Y-15390476D02*
X11646428Y-15390476D01*
X11665476Y-15400000D01*
X11675000Y-15409524D01*
X11684524Y-15428571D01*
X11694048Y-15466667D01*
X11694048Y-15514286D01*
X11684524Y-15552381D01*
X11675000Y-15571428D01*
X11665476Y-15580952D01*
X11646428Y-15590476D01*
X11627381Y-15590476D01*
X11608333Y-15580952D01*
X11598809Y-15571428D01*
X11589286Y-15552381D01*
X11579762Y-15514286D01*
X11579762Y-15466667D01*
X11589286Y-15428571D01*
X11598809Y-15409524D01*
X11608333Y-15400000D01*
X11627381Y-15390476D01*
X11779762Y-15590476D02*
X11779762Y-15457143D01*
X11779762Y-15476190D02*
X11789286Y-15466667D01*
X11808333Y-15457143D01*
X11836905Y-15457143D01*
X11855952Y-15466667D01*
X11865476Y-15485714D01*
X11865476Y-15590476D01*
X11865476Y-15485714D02*
X11875000Y-15466667D01*
X11894048Y-15457143D01*
X11922619Y-15457143D01*
X11941667Y-15466667D01*
X11951190Y-15485714D01*
X11951190Y-15590476D01*
X12046428Y-15590476D02*
X12046428Y-15457143D01*
X12046428Y-15476190D02*
X12055952Y-15466667D01*
X12075000Y-15457143D01*
X12103571Y-15457143D01*
X12122619Y-15466667D01*
X12132143Y-15485714D01*
X12132143Y-15590476D01*
X12132143Y-15485714D02*
X12141667Y-15466667D01*
X12160714Y-15457143D01*
X12189286Y-15457143D01*
X12208333Y-15466667D01*
X12217857Y-15485714D01*
X12217857Y-15590476D01*
X12608333Y-15380952D02*
X12436905Y-15638095D01*
X12865476Y-15390476D02*
X12884524Y-15390476D01*
X12903571Y-15400000D01*
X12913095Y-15409524D01*
X12922619Y-15428571D01*
X12932143Y-15466667D01*
X12932143Y-15514286D01*
X12922619Y-15552381D01*
X12913095Y-15571428D01*
X12903571Y-15580952D01*
X12884524Y-15590476D01*
X12865476Y-15590476D01*
X12846428Y-15580952D01*
X12836905Y-15571428D01*
X12827381Y-15552381D01*
X12817857Y-15514286D01*
X12817857Y-15466667D01*
X12827381Y-15428571D01*
X12836905Y-15409524D01*
X12846428Y-15400000D01*
X12865476Y-15390476D01*
X13017857Y-15571428D02*
X13027381Y-15580952D01*
X13017857Y-15590476D01*
X13008333Y-15580952D01*
X13017857Y-15571428D01*
X13017857Y-15590476D01*
X13151190Y-15390476D02*
X13170238Y-15390476D01*
X13189286Y-15400000D01*
X13198809Y-15409524D01*
X13208333Y-15428571D01*
X13217857Y-15466667D01*
X13217857Y-15514286D01*
X13208333Y-15552381D01*
X13198809Y-15571428D01*
X13189286Y-15580952D01*
X13170238Y-15590476D01*
X13151190Y-15590476D01*
X13132143Y-15580952D01*
X13122619Y-15571428D01*
X13113095Y-15552381D01*
X13103571Y-15514286D01*
X13103571Y-15466667D01*
X13113095Y-15428571D01*
X13122619Y-15409524D01*
X13132143Y-15400000D01*
X13151190Y-15390476D01*
X13294048Y-15409524D02*
X13303571Y-15400000D01*
X13322619Y-15390476D01*
X13370238Y-15390476D01*
X13389286Y-15400000D01*
X13398809Y-15409524D01*
X13408333Y-15428571D01*
X13408333Y-15447619D01*
X13398809Y-15476190D01*
X13284524Y-15590476D01*
X13408333Y-15590476D01*
X13475000Y-15390476D02*
X13608333Y-15390476D01*
X13522619Y-15590476D01*
X13770238Y-15390476D02*
X13732143Y-15390476D01*
X13713095Y-15400000D01*
X13703571Y-15409524D01*
X13684524Y-15438095D01*
X13675000Y-15476190D01*
X13675000Y-15552381D01*
X13684524Y-15571428D01*
X13694048Y-15580952D01*
X13713095Y-15590476D01*
X13751190Y-15590476D01*
X13770238Y-15580952D01*
X13779762Y-15571428D01*
X13789286Y-15552381D01*
X13789286Y-15504762D01*
X13779762Y-15485714D01*
X13770238Y-15476190D01*
X13751190Y-15466667D01*
X13713095Y-15466667D01*
X13694048Y-15476190D01*
X13684524Y-15485714D01*
X13675000Y-15504762D01*
X13865476Y-15390476D02*
X13865476Y-15428571D01*
X13941667Y-15390476D02*
X13941667Y-15428571D01*
X14236905Y-15666667D02*
X14227381Y-15657143D01*
X14208333Y-15628571D01*
X14198809Y-15609524D01*
X14189286Y-15580952D01*
X14179762Y-15533333D01*
X14179762Y-15495238D01*
X14189286Y-15447619D01*
X14198809Y-15419048D01*
X14208333Y-15400000D01*
X14227381Y-15371428D01*
X14236905Y-15361905D01*
X14303571Y-15409524D02*
X14313095Y-15400000D01*
X14332143Y-15390476D01*
X14379762Y-15390476D01*
X14398809Y-15400000D01*
X14408333Y-15409524D01*
X14417857Y-15428571D01*
X14417857Y-15447619D01*
X14408333Y-15476190D01*
X14294048Y-15590476D01*
X14417857Y-15590476D01*
X14655952Y-15590476D02*
X14655952Y-15390476D01*
X14741667Y-15590476D02*
X14741667Y-15485714D01*
X14732143Y-15466667D01*
X14713095Y-15457143D01*
X14684524Y-15457143D01*
X14665476Y-15466667D01*
X14655952Y-15476190D01*
X14865476Y-15590476D02*
X14846428Y-15580952D01*
X14836905Y-15571428D01*
X14827381Y-15552381D01*
X14827381Y-15495238D01*
X14836905Y-15476190D01*
X14846428Y-15466667D01*
X14865476Y-15457143D01*
X14894048Y-15457143D01*
X14913095Y-15466667D01*
X14922619Y-15476190D01*
X14932143Y-15495238D01*
X14932143Y-15552381D01*
X14922619Y-15571428D01*
X14913095Y-15580952D01*
X14894048Y-15590476D01*
X14865476Y-15590476D01*
X15046428Y-15590476D02*
X15027381Y-15580952D01*
X15017857Y-15561905D01*
X15017857Y-15390476D01*
X15198809Y-15580952D02*
X15179762Y-15590476D01*
X15141667Y-15590476D01*
X15122619Y-15580952D01*
X15113095Y-15561905D01*
X15113095Y-15485714D01*
X15122619Y-15466667D01*
X15141667Y-15457143D01*
X15179762Y-15457143D01*
X15198809Y-15466667D01*
X15208333Y-15485714D01*
X15208333Y-15504762D01*
X15113095Y-15523809D01*
X15284524Y-15580952D02*
X15303571Y-15590476D01*
X15341667Y-15590476D01*
X15360714Y-15580952D01*
X15370238Y-15561905D01*
X15370238Y-15552381D01*
X15360714Y-15533333D01*
X15341667Y-15523809D01*
X15313095Y-15523809D01*
X15294048Y-15514286D01*
X15284524Y-15495238D01*
X15284524Y-15485714D01*
X15294048Y-15466667D01*
X15313095Y-15457143D01*
X15341667Y-15457143D01*
X15360714Y-15466667D01*
X15436905Y-15666667D02*
X15446428Y-15657143D01*
X15465476Y-15628571D01*
X15475000Y-15609524D01*
X15484524Y-15580952D01*
X15494048Y-15533333D01*
X15494048Y-15495238D01*
X15484524Y-15447619D01*
X15475000Y-15419048D01*
X15465476Y-15400000D01*
X15446428Y-15371428D01*
X15436905Y-15361905D01*
D13*
X10665000Y-15764000D02*
G75*
G03*
X10665000Y-15764000I-40000J0D01*
G01*
D10*
X10960714Y-15654476D02*
X10979762Y-15654476D01*
X10998810Y-15664000D01*
X11008333Y-15673524D01*
X11017857Y-15692571D01*
X11027381Y-15730667D01*
X11027381Y-15778286D01*
X11017857Y-15816381D01*
X11008333Y-15835428D01*
X10998810Y-15844952D01*
X10979762Y-15854476D01*
X10960714Y-15854476D01*
X10941667Y-15844952D01*
X10932143Y-15835428D01*
X10922619Y-15816381D01*
X10913095Y-15778286D01*
X10913095Y-15730667D01*
X10922619Y-15692571D01*
X10932143Y-15673524D01*
X10941667Y-15664000D01*
X10960714Y-15654476D01*
X11113095Y-15835428D02*
X11122619Y-15844952D01*
X11113095Y-15854476D01*
X11103571Y-15844952D01*
X11113095Y-15835428D01*
X11113095Y-15854476D01*
X11236905Y-15740190D02*
X11217857Y-15730667D01*
X11208333Y-15721143D01*
X11198809Y-15702095D01*
X11198809Y-15692571D01*
X11208333Y-15673524D01*
X11217857Y-15664000D01*
X11236905Y-15654476D01*
X11275000Y-15654476D01*
X11294048Y-15664000D01*
X11303571Y-15673524D01*
X11313095Y-15692571D01*
X11313095Y-15702095D01*
X11303571Y-15721143D01*
X11294048Y-15730667D01*
X11275000Y-15740190D01*
X11236905Y-15740190D01*
X11217857Y-15749714D01*
X11208333Y-15759238D01*
X11198809Y-15778286D01*
X11198809Y-15816381D01*
X11208333Y-15835428D01*
X11217857Y-15844952D01*
X11236905Y-15854476D01*
X11275000Y-15854476D01*
X11294048Y-15844952D01*
X11303571Y-15835428D01*
X11313095Y-15816381D01*
X11313095Y-15778286D01*
X11303571Y-15759238D01*
X11294048Y-15749714D01*
X11275000Y-15740190D01*
X11436905Y-15654476D02*
X11455952Y-15654476D01*
X11475000Y-15664000D01*
X11484524Y-15673524D01*
X11494048Y-15692571D01*
X11503571Y-15730667D01*
X11503571Y-15778286D01*
X11494048Y-15816381D01*
X11484524Y-15835428D01*
X11475000Y-15844952D01*
X11455952Y-15854476D01*
X11436905Y-15854476D01*
X11417857Y-15844952D01*
X11408333Y-15835428D01*
X11398809Y-15816381D01*
X11389286Y-15778286D01*
X11389286Y-15730667D01*
X11398809Y-15692571D01*
X11408333Y-15673524D01*
X11417857Y-15664000D01*
X11436905Y-15654476D01*
X11627381Y-15654476D02*
X11646428Y-15654476D01*
X11665476Y-15664000D01*
X11675000Y-15673524D01*
X11684524Y-15692571D01*
X11694048Y-15730667D01*
X11694048Y-15778286D01*
X11684524Y-15816381D01*
X11675000Y-15835428D01*
X11665476Y-15844952D01*
X11646428Y-15854476D01*
X11627381Y-15854476D01*
X11608333Y-15844952D01*
X11598809Y-15835428D01*
X11589286Y-15816381D01*
X11579762Y-15778286D01*
X11579762Y-15730667D01*
X11589286Y-15692571D01*
X11598809Y-15673524D01*
X11608333Y-15664000D01*
X11627381Y-15654476D01*
X11779762Y-15854476D02*
X11779762Y-15721143D01*
X11779762Y-15740190D02*
X11789286Y-15730667D01*
X11808333Y-15721143D01*
X11836905Y-15721143D01*
X11855952Y-15730667D01*
X11865476Y-15749714D01*
X11865476Y-15854476D01*
X11865476Y-15749714D02*
X11875000Y-15730667D01*
X11894048Y-15721143D01*
X11922619Y-15721143D01*
X11941667Y-15730667D01*
X11951190Y-15749714D01*
X11951190Y-15854476D01*
X12046428Y-15854476D02*
X12046428Y-15721143D01*
X12046428Y-15740190D02*
X12055952Y-15730667D01*
X12075000Y-15721143D01*
X12103571Y-15721143D01*
X12122619Y-15730667D01*
X12132143Y-15749714D01*
X12132143Y-15854476D01*
X12132143Y-15749714D02*
X12141667Y-15730667D01*
X12160714Y-15721143D01*
X12189286Y-15721143D01*
X12208333Y-15730667D01*
X12217857Y-15749714D01*
X12217857Y-15854476D01*
X12608333Y-15644952D02*
X12436905Y-15902095D01*
X12865476Y-15654476D02*
X12884524Y-15654476D01*
X12903571Y-15664000D01*
X12913095Y-15673524D01*
X12922619Y-15692571D01*
X12932143Y-15730667D01*
X12932143Y-15778286D01*
X12922619Y-15816381D01*
X12913095Y-15835428D01*
X12903571Y-15844952D01*
X12884524Y-15854476D01*
X12865476Y-15854476D01*
X12846428Y-15844952D01*
X12836905Y-15835428D01*
X12827381Y-15816381D01*
X12817857Y-15778286D01*
X12817857Y-15730667D01*
X12827381Y-15692571D01*
X12836905Y-15673524D01*
X12846428Y-15664000D01*
X12865476Y-15654476D01*
X13017857Y-15835428D02*
X13027381Y-15844952D01*
X13017857Y-15854476D01*
X13008333Y-15844952D01*
X13017857Y-15835428D01*
X13017857Y-15854476D01*
X13151190Y-15654476D02*
X13170238Y-15654476D01*
X13189286Y-15664000D01*
X13198809Y-15673524D01*
X13208333Y-15692571D01*
X13217857Y-15730667D01*
X13217857Y-15778286D01*
X13208333Y-15816381D01*
X13198809Y-15835428D01*
X13189286Y-15844952D01*
X13170238Y-15854476D01*
X13151190Y-15854476D01*
X13132143Y-15844952D01*
X13122619Y-15835428D01*
X13113095Y-15816381D01*
X13103571Y-15778286D01*
X13103571Y-15730667D01*
X13113095Y-15692571D01*
X13122619Y-15673524D01*
X13132143Y-15664000D01*
X13151190Y-15654476D01*
X13284524Y-15654476D02*
X13408333Y-15654476D01*
X13341667Y-15730667D01*
X13370238Y-15730667D01*
X13389286Y-15740190D01*
X13398809Y-15749714D01*
X13408333Y-15768762D01*
X13408333Y-15816381D01*
X13398809Y-15835428D01*
X13389286Y-15844952D01*
X13370238Y-15854476D01*
X13313095Y-15854476D01*
X13294048Y-15844952D01*
X13284524Y-15835428D01*
X13598809Y-15854476D02*
X13484524Y-15854476D01*
X13541667Y-15854476D02*
X13541667Y-15654476D01*
X13522619Y-15683048D01*
X13503571Y-15702095D01*
X13484524Y-15711619D01*
X13779762Y-15654476D02*
X13684524Y-15654476D01*
X13675000Y-15749714D01*
X13684524Y-15740190D01*
X13703571Y-15730667D01*
X13751190Y-15730667D01*
X13770238Y-15740190D01*
X13779762Y-15749714D01*
X13789286Y-15768762D01*
X13789286Y-15816381D01*
X13779762Y-15835428D01*
X13770238Y-15844952D01*
X13751190Y-15854476D01*
X13703571Y-15854476D01*
X13684524Y-15844952D01*
X13675000Y-15835428D01*
X13865476Y-15654476D02*
X13865476Y-15692571D01*
X13941667Y-15654476D02*
X13941667Y-15692571D01*
X14236905Y-15930667D02*
X14227381Y-15921143D01*
X14208333Y-15892571D01*
X14198809Y-15873524D01*
X14189286Y-15844952D01*
X14179762Y-15797333D01*
X14179762Y-15759238D01*
X14189286Y-15711619D01*
X14198809Y-15683048D01*
X14208333Y-15664000D01*
X14227381Y-15635428D01*
X14236905Y-15625905D01*
X14294048Y-15654476D02*
X14417857Y-15654476D01*
X14351190Y-15730667D01*
X14379762Y-15730667D01*
X14398809Y-15740190D01*
X14408333Y-15749714D01*
X14417857Y-15768762D01*
X14417857Y-15816381D01*
X14408333Y-15835428D01*
X14398809Y-15844952D01*
X14379762Y-15854476D01*
X14322619Y-15854476D01*
X14303571Y-15844952D01*
X14294048Y-15835428D01*
X14484524Y-15654476D02*
X14608333Y-15654476D01*
X14541667Y-15730667D01*
X14570238Y-15730667D01*
X14589286Y-15740190D01*
X14598809Y-15749714D01*
X14608333Y-15768762D01*
X14608333Y-15816381D01*
X14598809Y-15835428D01*
X14589286Y-15844952D01*
X14570238Y-15854476D01*
X14513095Y-15854476D01*
X14494048Y-15844952D01*
X14484524Y-15835428D01*
X14846428Y-15854476D02*
X14846428Y-15654476D01*
X14932143Y-15854476D02*
X14932143Y-15749714D01*
X14922619Y-15730667D01*
X14903571Y-15721143D01*
X14875000Y-15721143D01*
X14855952Y-15730667D01*
X14846428Y-15740190D01*
X15055952Y-15854476D02*
X15036905Y-15844952D01*
X15027381Y-15835428D01*
X15017857Y-15816381D01*
X15017857Y-15759238D01*
X15027381Y-15740190D01*
X15036905Y-15730667D01*
X15055952Y-15721143D01*
X15084524Y-15721143D01*
X15103571Y-15730667D01*
X15113095Y-15740190D01*
X15122619Y-15759238D01*
X15122619Y-15816381D01*
X15113095Y-15835428D01*
X15103571Y-15844952D01*
X15084524Y-15854476D01*
X15055952Y-15854476D01*
X15236905Y-15854476D02*
X15217857Y-15844952D01*
X15208333Y-15825905D01*
X15208333Y-15654476D01*
X15389286Y-15844952D02*
X15370238Y-15854476D01*
X15332143Y-15854476D01*
X15313095Y-15844952D01*
X15303571Y-15825905D01*
X15303571Y-15749714D01*
X15313095Y-15730667D01*
X15332143Y-15721143D01*
X15370238Y-15721143D01*
X15389286Y-15730667D01*
X15398809Y-15749714D01*
X15398809Y-15768762D01*
X15303571Y-15787809D01*
X15475000Y-15844952D02*
X15494048Y-15854476D01*
X15532143Y-15854476D01*
X15551190Y-15844952D01*
X15560714Y-15825905D01*
X15560714Y-15816381D01*
X15551190Y-15797333D01*
X15532143Y-15787809D01*
X15503571Y-15787809D01*
X15484524Y-15778286D01*
X15475000Y-15759238D01*
X15475000Y-15749714D01*
X15484524Y-15730667D01*
X15503571Y-15721143D01*
X15532143Y-15721143D01*
X15551190Y-15730667D01*
X15627381Y-15930667D02*
X15636905Y-15921143D01*
X15655952Y-15892571D01*
X15665476Y-15873524D01*
X15675000Y-15844952D01*
X15684524Y-15797333D01*
X15684524Y-15759238D01*
X15675000Y-15711619D01*
X15665476Y-15683048D01*
X15655952Y-15664000D01*
X15636905Y-15635428D01*
X15627381Y-15625905D01*
D14*
X10620000Y-15983000D02*
X10620000Y-16073000D01*
X10575000Y-16028000D02*
X10665000Y-16028000D01*
D10*
X10960714Y-15918476D02*
X10979762Y-15918476D01*
X10998810Y-15928000D01*
X11008333Y-15937524D01*
X11017857Y-15956571D01*
X11027381Y-15994667D01*
X11027381Y-16042286D01*
X11017857Y-16080381D01*
X11008333Y-16099428D01*
X10998810Y-16108952D01*
X10979762Y-16118476D01*
X10960714Y-16118476D01*
X10941667Y-16108952D01*
X10932143Y-16099428D01*
X10922619Y-16080381D01*
X10913095Y-16042286D01*
X10913095Y-15994667D01*
X10922619Y-15956571D01*
X10932143Y-15937524D01*
X10941667Y-15928000D01*
X10960714Y-15918476D01*
X11113095Y-16099428D02*
X11122619Y-16108952D01*
X11113095Y-16118476D01*
X11103571Y-16108952D01*
X11113095Y-16099428D01*
X11113095Y-16118476D01*
X11217857Y-16118476D02*
X11255952Y-16118476D01*
X11275000Y-16108952D01*
X11284524Y-16099428D01*
X11303571Y-16070857D01*
X11313095Y-16032762D01*
X11313095Y-15956571D01*
X11303571Y-15937524D01*
X11294048Y-15928000D01*
X11275000Y-15918476D01*
X11236905Y-15918476D01*
X11217857Y-15928000D01*
X11208333Y-15937524D01*
X11198809Y-15956571D01*
X11198809Y-16004190D01*
X11208333Y-16023238D01*
X11217857Y-16032762D01*
X11236905Y-16042286D01*
X11275000Y-16042286D01*
X11294048Y-16032762D01*
X11303571Y-16023238D01*
X11313095Y-16004190D01*
X11436905Y-15918476D02*
X11455952Y-15918476D01*
X11475000Y-15928000D01*
X11484524Y-15937524D01*
X11494048Y-15956571D01*
X11503571Y-15994667D01*
X11503571Y-16042286D01*
X11494048Y-16080381D01*
X11484524Y-16099428D01*
X11475000Y-16108952D01*
X11455952Y-16118476D01*
X11436905Y-16118476D01*
X11417857Y-16108952D01*
X11408333Y-16099428D01*
X11398809Y-16080381D01*
X11389286Y-16042286D01*
X11389286Y-15994667D01*
X11398809Y-15956571D01*
X11408333Y-15937524D01*
X11417857Y-15928000D01*
X11436905Y-15918476D01*
X11627381Y-15918476D02*
X11646428Y-15918476D01*
X11665476Y-15928000D01*
X11675000Y-15937524D01*
X11684524Y-15956571D01*
X11694048Y-15994667D01*
X11694048Y-16042286D01*
X11684524Y-16080381D01*
X11675000Y-16099428D01*
X11665476Y-16108952D01*
X11646428Y-16118476D01*
X11627381Y-16118476D01*
X11608333Y-16108952D01*
X11598809Y-16099428D01*
X11589286Y-16080381D01*
X11579762Y-16042286D01*
X11579762Y-15994667D01*
X11589286Y-15956571D01*
X11598809Y-15937524D01*
X11608333Y-15928000D01*
X11627381Y-15918476D01*
X11779762Y-16118476D02*
X11779762Y-15985143D01*
X11779762Y-16004190D02*
X11789286Y-15994667D01*
X11808333Y-15985143D01*
X11836905Y-15985143D01*
X11855952Y-15994667D01*
X11865476Y-16013714D01*
X11865476Y-16118476D01*
X11865476Y-16013714D02*
X11875000Y-15994667D01*
X11894048Y-15985143D01*
X11922619Y-15985143D01*
X11941667Y-15994667D01*
X11951190Y-16013714D01*
X11951190Y-16118476D01*
X12046428Y-16118476D02*
X12046428Y-15985143D01*
X12046428Y-16004190D02*
X12055952Y-15994667D01*
X12075000Y-15985143D01*
X12103571Y-15985143D01*
X12122619Y-15994667D01*
X12132143Y-16013714D01*
X12132143Y-16118476D01*
X12132143Y-16013714D02*
X12141667Y-15994667D01*
X12160714Y-15985143D01*
X12189286Y-15985143D01*
X12208333Y-15994667D01*
X12217857Y-16013714D01*
X12217857Y-16118476D01*
X12608333Y-15908952D02*
X12436905Y-16166095D01*
X12865476Y-15918476D02*
X12884524Y-15918476D01*
X12903571Y-15928000D01*
X12913095Y-15937524D01*
X12922619Y-15956571D01*
X12932143Y-15994667D01*
X12932143Y-16042286D01*
X12922619Y-16080381D01*
X12913095Y-16099428D01*
X12903571Y-16108952D01*
X12884524Y-16118476D01*
X12865476Y-16118476D01*
X12846428Y-16108952D01*
X12836905Y-16099428D01*
X12827381Y-16080381D01*
X12817857Y-16042286D01*
X12817857Y-15994667D01*
X12827381Y-15956571D01*
X12836905Y-15937524D01*
X12846428Y-15928000D01*
X12865476Y-15918476D01*
X13017857Y-16099428D02*
X13027381Y-16108952D01*
X13017857Y-16118476D01*
X13008333Y-16108952D01*
X13017857Y-16099428D01*
X13017857Y-16118476D01*
X13151190Y-15918476D02*
X13170238Y-15918476D01*
X13189286Y-15928000D01*
X13198809Y-15937524D01*
X13208333Y-15956571D01*
X13217857Y-15994667D01*
X13217857Y-16042286D01*
X13208333Y-16080381D01*
X13198809Y-16099428D01*
X13189286Y-16108952D01*
X13170238Y-16118476D01*
X13151190Y-16118476D01*
X13132143Y-16108952D01*
X13122619Y-16099428D01*
X13113095Y-16080381D01*
X13103571Y-16042286D01*
X13103571Y-15994667D01*
X13113095Y-15956571D01*
X13122619Y-15937524D01*
X13132143Y-15928000D01*
X13151190Y-15918476D01*
X13284524Y-15918476D02*
X13408333Y-15918476D01*
X13341667Y-15994667D01*
X13370238Y-15994667D01*
X13389286Y-16004190D01*
X13398809Y-16013714D01*
X13408333Y-16032762D01*
X13408333Y-16080381D01*
X13398809Y-16099428D01*
X13389286Y-16108952D01*
X13370238Y-16118476D01*
X13313095Y-16118476D01*
X13294048Y-16108952D01*
X13284524Y-16099428D01*
X13589286Y-15918476D02*
X13494048Y-15918476D01*
X13484524Y-16013714D01*
X13494048Y-16004190D01*
X13513095Y-15994667D01*
X13560714Y-15994667D01*
X13579762Y-16004190D01*
X13589286Y-16013714D01*
X13598809Y-16032762D01*
X13598809Y-16080381D01*
X13589286Y-16099428D01*
X13579762Y-16108952D01*
X13560714Y-16118476D01*
X13513095Y-16118476D01*
X13494048Y-16108952D01*
X13484524Y-16099428D01*
X13770238Y-15985143D02*
X13770238Y-16118476D01*
X13722619Y-15908952D02*
X13675000Y-16051809D01*
X13798809Y-16051809D01*
X13865476Y-15918476D02*
X13865476Y-15956571D01*
X13941667Y-15918476D02*
X13941667Y-15956571D01*
X14236905Y-16194667D02*
X14227381Y-16185143D01*
X14208333Y-16156571D01*
X14198809Y-16137524D01*
X14189286Y-16108952D01*
X14179762Y-16061333D01*
X14179762Y-16023238D01*
X14189286Y-15975619D01*
X14198809Y-15947048D01*
X14208333Y-15928000D01*
X14227381Y-15899428D01*
X14236905Y-15889905D01*
X14303571Y-15937524D02*
X14313095Y-15928000D01*
X14332143Y-15918476D01*
X14379762Y-15918476D01*
X14398809Y-15928000D01*
X14408333Y-15937524D01*
X14417857Y-15956571D01*
X14417857Y-15975619D01*
X14408333Y-16004190D01*
X14294048Y-16118476D01*
X14417857Y-16118476D01*
X14655952Y-16118476D02*
X14655952Y-15918476D01*
X14741667Y-16118476D02*
X14741667Y-16013714D01*
X14732143Y-15994667D01*
X14713095Y-15985143D01*
X14684524Y-15985143D01*
X14665476Y-15994667D01*
X14655952Y-16004190D01*
X14865476Y-16118476D02*
X14846428Y-16108952D01*
X14836905Y-16099428D01*
X14827381Y-16080381D01*
X14827381Y-16023238D01*
X14836905Y-16004190D01*
X14846428Y-15994667D01*
X14865476Y-15985143D01*
X14894048Y-15985143D01*
X14913095Y-15994667D01*
X14922619Y-16004190D01*
X14932143Y-16023238D01*
X14932143Y-16080381D01*
X14922619Y-16099428D01*
X14913095Y-16108952D01*
X14894048Y-16118476D01*
X14865476Y-16118476D01*
X15046428Y-16118476D02*
X15027381Y-16108952D01*
X15017857Y-16089905D01*
X15017857Y-15918476D01*
X15198809Y-16108952D02*
X15179762Y-16118476D01*
X15141667Y-16118476D01*
X15122619Y-16108952D01*
X15113095Y-16089905D01*
X15113095Y-16013714D01*
X15122619Y-15994667D01*
X15141667Y-15985143D01*
X15179762Y-15985143D01*
X15198809Y-15994667D01*
X15208333Y-16013714D01*
X15208333Y-16032762D01*
X15113095Y-16051809D01*
X15284524Y-16108952D02*
X15303571Y-16118476D01*
X15341667Y-16118476D01*
X15360714Y-16108952D01*
X15370238Y-16089905D01*
X15370238Y-16080381D01*
X15360714Y-16061333D01*
X15341667Y-16051809D01*
X15313095Y-16051809D01*
X15294048Y-16042286D01*
X15284524Y-16023238D01*
X15284524Y-16013714D01*
X15294048Y-15994667D01*
X15313095Y-15985143D01*
X15341667Y-15985143D01*
X15360714Y-15994667D01*
X15436905Y-16194667D02*
X15446428Y-16185143D01*
X15465476Y-16156571D01*
X15475000Y-16137524D01*
X15484524Y-16108952D01*
X15494048Y-16061333D01*
X15494048Y-16023238D01*
X15484524Y-15975619D01*
X15475000Y-15947048D01*
X15465476Y-15928000D01*
X15446428Y-15899428D01*
X15436905Y-15889905D01*
D15*
X10650356Y-16327356D02*
X10650356Y-16256644D01*
X10579644Y-16256644D01*
X10579644Y-16327356D01*
X10650356Y-16327356D01*
D10*
X11027381Y-16382476D02*
X10913095Y-16382476D01*
X10970238Y-16382476D02*
X10970238Y-16182476D01*
X10951190Y-16211048D01*
X10932143Y-16230095D01*
X10913095Y-16239619D01*
X11113095Y-16363428D02*
X11122619Y-16372952D01*
X11113095Y-16382476D01*
X11103571Y-16372952D01*
X11113095Y-16363428D01*
X11113095Y-16382476D01*
X11246428Y-16182476D02*
X11265476Y-16182476D01*
X11284524Y-16192000D01*
X11294048Y-16201524D01*
X11303571Y-16220571D01*
X11313095Y-16258667D01*
X11313095Y-16306286D01*
X11303571Y-16344381D01*
X11294048Y-16363428D01*
X11284524Y-16372952D01*
X11265476Y-16382476D01*
X11246428Y-16382476D01*
X11227381Y-16372952D01*
X11217857Y-16363428D01*
X11208333Y-16344381D01*
X11198809Y-16306286D01*
X11198809Y-16258667D01*
X11208333Y-16220571D01*
X11217857Y-16201524D01*
X11227381Y-16192000D01*
X11246428Y-16182476D01*
X11436905Y-16182476D02*
X11455952Y-16182476D01*
X11475000Y-16192000D01*
X11484524Y-16201524D01*
X11494048Y-16220571D01*
X11503571Y-16258667D01*
X11503571Y-16306286D01*
X11494048Y-16344381D01*
X11484524Y-16363428D01*
X11475000Y-16372952D01*
X11455952Y-16382476D01*
X11436905Y-16382476D01*
X11417857Y-16372952D01*
X11408333Y-16363428D01*
X11398809Y-16344381D01*
X11389286Y-16306286D01*
X11389286Y-16258667D01*
X11398809Y-16220571D01*
X11408333Y-16201524D01*
X11417857Y-16192000D01*
X11436905Y-16182476D01*
X11627381Y-16182476D02*
X11646428Y-16182476D01*
X11665476Y-16192000D01*
X11675000Y-16201524D01*
X11684524Y-16220571D01*
X11694048Y-16258667D01*
X11694048Y-16306286D01*
X11684524Y-16344381D01*
X11675000Y-16363428D01*
X11665476Y-16372952D01*
X11646428Y-16382476D01*
X11627381Y-16382476D01*
X11608333Y-16372952D01*
X11598809Y-16363428D01*
X11589286Y-16344381D01*
X11579762Y-16306286D01*
X11579762Y-16258667D01*
X11589286Y-16220571D01*
X11598809Y-16201524D01*
X11608333Y-16192000D01*
X11627381Y-16182476D01*
X11779762Y-16382476D02*
X11779762Y-16249143D01*
X11779762Y-16268190D02*
X11789286Y-16258667D01*
X11808333Y-16249143D01*
X11836905Y-16249143D01*
X11855952Y-16258667D01*
X11865476Y-16277714D01*
X11865476Y-16382476D01*
X11865476Y-16277714D02*
X11875000Y-16258667D01*
X11894048Y-16249143D01*
X11922619Y-16249143D01*
X11941667Y-16258667D01*
X11951190Y-16277714D01*
X11951190Y-16382476D01*
X12046428Y-16382476D02*
X12046428Y-16249143D01*
X12046428Y-16268190D02*
X12055952Y-16258667D01*
X12075000Y-16249143D01*
X12103571Y-16249143D01*
X12122619Y-16258667D01*
X12132143Y-16277714D01*
X12132143Y-16382476D01*
X12132143Y-16277714D02*
X12141667Y-16258667D01*
X12160714Y-16249143D01*
X12189286Y-16249143D01*
X12208333Y-16258667D01*
X12217857Y-16277714D01*
X12217857Y-16382476D01*
X12608333Y-16172952D02*
X12436905Y-16430095D01*
X12865476Y-16182476D02*
X12884524Y-16182476D01*
X12903571Y-16192000D01*
X12913095Y-16201524D01*
X12922619Y-16220571D01*
X12932143Y-16258667D01*
X12932143Y-16306286D01*
X12922619Y-16344381D01*
X12913095Y-16363428D01*
X12903571Y-16372952D01*
X12884524Y-16382476D01*
X12865476Y-16382476D01*
X12846428Y-16372952D01*
X12836905Y-16363428D01*
X12827381Y-16344381D01*
X12817857Y-16306286D01*
X12817857Y-16258667D01*
X12827381Y-16220571D01*
X12836905Y-16201524D01*
X12846428Y-16192000D01*
X12865476Y-16182476D01*
X13017857Y-16363428D02*
X13027381Y-16372952D01*
X13017857Y-16382476D01*
X13008333Y-16372952D01*
X13017857Y-16363428D01*
X13017857Y-16382476D01*
X13151190Y-16182476D02*
X13170238Y-16182476D01*
X13189286Y-16192000D01*
X13198809Y-16201524D01*
X13208333Y-16220571D01*
X13217857Y-16258667D01*
X13217857Y-16306286D01*
X13208333Y-16344381D01*
X13198809Y-16363428D01*
X13189286Y-16372952D01*
X13170238Y-16382476D01*
X13151190Y-16382476D01*
X13132143Y-16372952D01*
X13122619Y-16363428D01*
X13113095Y-16344381D01*
X13103571Y-16306286D01*
X13103571Y-16258667D01*
X13113095Y-16220571D01*
X13122619Y-16201524D01*
X13132143Y-16192000D01*
X13151190Y-16182476D01*
X13284524Y-16182476D02*
X13408333Y-16182476D01*
X13341667Y-16258667D01*
X13370238Y-16258667D01*
X13389286Y-16268190D01*
X13398809Y-16277714D01*
X13408333Y-16296762D01*
X13408333Y-16344381D01*
X13398809Y-16363428D01*
X13389286Y-16372952D01*
X13370238Y-16382476D01*
X13313095Y-16382476D01*
X13294048Y-16372952D01*
X13284524Y-16363428D01*
X13503571Y-16382476D02*
X13541667Y-16382476D01*
X13560714Y-16372952D01*
X13570238Y-16363428D01*
X13589286Y-16334857D01*
X13598809Y-16296762D01*
X13598809Y-16220571D01*
X13589286Y-16201524D01*
X13579762Y-16192000D01*
X13560714Y-16182476D01*
X13522619Y-16182476D01*
X13503571Y-16192000D01*
X13494048Y-16201524D01*
X13484524Y-16220571D01*
X13484524Y-16268190D01*
X13494048Y-16287238D01*
X13503571Y-16296762D01*
X13522619Y-16306286D01*
X13560714Y-16306286D01*
X13579762Y-16296762D01*
X13589286Y-16287238D01*
X13598809Y-16268190D01*
X13770238Y-16249143D02*
X13770238Y-16382476D01*
X13722619Y-16172952D02*
X13675000Y-16315809D01*
X13798809Y-16315809D01*
X13865476Y-16182476D02*
X13865476Y-16220571D01*
X13941667Y-16182476D02*
X13941667Y-16220571D01*
X14236905Y-16458667D02*
X14227381Y-16449143D01*
X14208333Y-16420571D01*
X14198809Y-16401524D01*
X14189286Y-16372952D01*
X14179762Y-16325333D01*
X14179762Y-16287238D01*
X14189286Y-16239619D01*
X14198809Y-16211048D01*
X14208333Y-16192000D01*
X14227381Y-16163428D01*
X14236905Y-16153905D01*
X14417857Y-16382476D02*
X14303571Y-16382476D01*
X14360714Y-16382476D02*
X14360714Y-16182476D01*
X14341667Y-16211048D01*
X14322619Y-16230095D01*
X14303571Y-16239619D01*
X14541667Y-16182476D02*
X14560714Y-16182476D01*
X14579762Y-16192000D01*
X14589286Y-16201524D01*
X14598809Y-16220571D01*
X14608333Y-16258667D01*
X14608333Y-16306286D01*
X14598809Y-16344381D01*
X14589286Y-16363428D01*
X14579762Y-16372952D01*
X14560714Y-16382476D01*
X14541667Y-16382476D01*
X14522619Y-16372952D01*
X14513095Y-16363428D01*
X14503571Y-16344381D01*
X14494048Y-16306286D01*
X14494048Y-16258667D01*
X14503571Y-16220571D01*
X14513095Y-16201524D01*
X14522619Y-16192000D01*
X14541667Y-16182476D01*
X14846428Y-16382476D02*
X14846428Y-16182476D01*
X14932143Y-16382476D02*
X14932143Y-16277714D01*
X14922619Y-16258667D01*
X14903571Y-16249143D01*
X14875000Y-16249143D01*
X14855952Y-16258667D01*
X14846428Y-16268190D01*
X15055952Y-16382476D02*
X15036905Y-16372952D01*
X15027381Y-16363428D01*
X15017857Y-16344381D01*
X15017857Y-16287238D01*
X15027381Y-16268190D01*
X15036905Y-16258667D01*
X15055952Y-16249143D01*
X15084524Y-16249143D01*
X15103571Y-16258667D01*
X15113095Y-16268190D01*
X15122619Y-16287238D01*
X15122619Y-16344381D01*
X15113095Y-16363428D01*
X15103571Y-16372952D01*
X15084524Y-16382476D01*
X15055952Y-16382476D01*
X15236905Y-16382476D02*
X15217857Y-16372952D01*
X15208333Y-16353905D01*
X15208333Y-16182476D01*
X15389286Y-16372952D02*
X15370238Y-16382476D01*
X15332143Y-16382476D01*
X15313095Y-16372952D01*
X15303571Y-16353905D01*
X15303571Y-16277714D01*
X15313095Y-16258667D01*
X15332143Y-16249143D01*
X15370238Y-16249143D01*
X15389286Y-16258667D01*
X15398809Y-16277714D01*
X15398809Y-16296762D01*
X15303571Y-16315809D01*
X15475000Y-16372952D02*
X15494048Y-16382476D01*
X15532143Y-16382476D01*
X15551190Y-16372952D01*
X15560714Y-16353905D01*
X15560714Y-16344381D01*
X15551190Y-16325333D01*
X15532143Y-16315809D01*
X15503571Y-16315809D01*
X15484524Y-16306286D01*
X15475000Y-16287238D01*
X15475000Y-16277714D01*
X15484524Y-16258667D01*
X15503571Y-16249143D01*
X15532143Y-16249143D01*
X15551190Y-16258667D01*
X15627381Y-16458667D02*
X15636905Y-16449143D01*
X15655952Y-16420571D01*
X15665476Y-16401524D01*
X15675000Y-16372952D01*
X15684524Y-16325333D01*
X15684524Y-16287238D01*
X15675000Y-16239619D01*
X15665476Y-16211048D01*
X15655952Y-16192000D01*
X15636905Y-16163428D01*
X15627381Y-16153905D01*
D16*
X10610000Y-16611000D02*
X10665000Y-16556000D01*
X10610000Y-16501000D01*
X10555000Y-16556000D01*
X10610000Y-16611000D01*
D10*
X11027381Y-16646476D02*
X10913095Y-16646476D01*
X10970238Y-16646476D02*
X10970238Y-16446476D01*
X10951190Y-16475048D01*
X10932143Y-16494095D01*
X10913095Y-16503619D01*
X11113095Y-16627428D02*
X11122619Y-16636952D01*
X11113095Y-16646476D01*
X11103571Y-16636952D01*
X11113095Y-16627428D01*
X11113095Y-16646476D01*
X11313095Y-16646476D02*
X11198809Y-16646476D01*
X11255952Y-16646476D02*
X11255952Y-16446476D01*
X11236905Y-16475048D01*
X11217857Y-16494095D01*
X11198809Y-16503619D01*
X11436905Y-16446476D02*
X11455952Y-16446476D01*
X11475000Y-16456000D01*
X11484524Y-16465524D01*
X11494048Y-16484571D01*
X11503571Y-16522667D01*
X11503571Y-16570286D01*
X11494048Y-16608381D01*
X11484524Y-16627428D01*
X11475000Y-16636952D01*
X11455952Y-16646476D01*
X11436905Y-16646476D01*
X11417857Y-16636952D01*
X11408333Y-16627428D01*
X11398809Y-16608381D01*
X11389286Y-16570286D01*
X11389286Y-16522667D01*
X11398809Y-16484571D01*
X11408333Y-16465524D01*
X11417857Y-16456000D01*
X11436905Y-16446476D01*
X11627381Y-16446476D02*
X11646428Y-16446476D01*
X11665476Y-16456000D01*
X11675000Y-16465524D01*
X11684524Y-16484571D01*
X11694048Y-16522667D01*
X11694048Y-16570286D01*
X11684524Y-16608381D01*
X11675000Y-16627428D01*
X11665476Y-16636952D01*
X11646428Y-16646476D01*
X11627381Y-16646476D01*
X11608333Y-16636952D01*
X11598809Y-16627428D01*
X11589286Y-16608381D01*
X11579762Y-16570286D01*
X11579762Y-16522667D01*
X11589286Y-16484571D01*
X11598809Y-16465524D01*
X11608333Y-16456000D01*
X11627381Y-16446476D01*
X11779762Y-16646476D02*
X11779762Y-16513143D01*
X11779762Y-16532190D02*
X11789286Y-16522667D01*
X11808333Y-16513143D01*
X11836905Y-16513143D01*
X11855952Y-16522667D01*
X11865476Y-16541714D01*
X11865476Y-16646476D01*
X11865476Y-16541714D02*
X11875000Y-16522667D01*
X11894048Y-16513143D01*
X11922619Y-16513143D01*
X11941667Y-16522667D01*
X11951190Y-16541714D01*
X11951190Y-16646476D01*
X12046428Y-16646476D02*
X12046428Y-16513143D01*
X12046428Y-16532190D02*
X12055952Y-16522667D01*
X12075000Y-16513143D01*
X12103571Y-16513143D01*
X12122619Y-16522667D01*
X12132143Y-16541714D01*
X12132143Y-16646476D01*
X12132143Y-16541714D02*
X12141667Y-16522667D01*
X12160714Y-16513143D01*
X12189286Y-16513143D01*
X12208333Y-16522667D01*
X12217857Y-16541714D01*
X12217857Y-16646476D01*
X12608333Y-16436952D02*
X12436905Y-16694095D01*
X12865476Y-16446476D02*
X12884524Y-16446476D01*
X12903571Y-16456000D01*
X12913095Y-16465524D01*
X12922619Y-16484571D01*
X12932143Y-16522667D01*
X12932143Y-16570286D01*
X12922619Y-16608381D01*
X12913095Y-16627428D01*
X12903571Y-16636952D01*
X12884524Y-16646476D01*
X12865476Y-16646476D01*
X12846428Y-16636952D01*
X12836905Y-16627428D01*
X12827381Y-16608381D01*
X12817857Y-16570286D01*
X12817857Y-16522667D01*
X12827381Y-16484571D01*
X12836905Y-16465524D01*
X12846428Y-16456000D01*
X12865476Y-16446476D01*
X13017857Y-16627428D02*
X13027381Y-16636952D01*
X13017857Y-16646476D01*
X13008333Y-16636952D01*
X13017857Y-16627428D01*
X13017857Y-16646476D01*
X13151190Y-16446476D02*
X13170238Y-16446476D01*
X13189286Y-16456000D01*
X13198809Y-16465524D01*
X13208333Y-16484571D01*
X13217857Y-16522667D01*
X13217857Y-16570286D01*
X13208333Y-16608381D01*
X13198809Y-16627428D01*
X13189286Y-16636952D01*
X13170238Y-16646476D01*
X13151190Y-16646476D01*
X13132143Y-16636952D01*
X13122619Y-16627428D01*
X13113095Y-16608381D01*
X13103571Y-16570286D01*
X13103571Y-16522667D01*
X13113095Y-16484571D01*
X13122619Y-16465524D01*
X13132143Y-16456000D01*
X13151190Y-16446476D01*
X13389286Y-16513143D02*
X13389286Y-16646476D01*
X13341667Y-16436952D02*
X13294048Y-16579809D01*
X13417857Y-16579809D01*
X13475000Y-16446476D02*
X13598809Y-16446476D01*
X13532143Y-16522667D01*
X13560714Y-16522667D01*
X13579762Y-16532190D01*
X13589286Y-16541714D01*
X13598809Y-16560762D01*
X13598809Y-16608381D01*
X13589286Y-16627428D01*
X13579762Y-16636952D01*
X13560714Y-16646476D01*
X13503571Y-16646476D01*
X13484524Y-16636952D01*
X13475000Y-16627428D01*
X13665476Y-16446476D02*
X13789286Y-16446476D01*
X13722619Y-16522667D01*
X13751190Y-16522667D01*
X13770238Y-16532190D01*
X13779762Y-16541714D01*
X13789286Y-16560762D01*
X13789286Y-16608381D01*
X13779762Y-16627428D01*
X13770238Y-16636952D01*
X13751190Y-16646476D01*
X13694048Y-16646476D01*
X13675000Y-16636952D01*
X13665476Y-16627428D01*
X13865476Y-16446476D02*
X13865476Y-16484571D01*
X13941667Y-16446476D02*
X13941667Y-16484571D01*
X14236905Y-16722667D02*
X14227381Y-16713143D01*
X14208333Y-16684571D01*
X14198809Y-16665524D01*
X14189286Y-16636952D01*
X14179762Y-16589333D01*
X14179762Y-16551238D01*
X14189286Y-16503619D01*
X14198809Y-16475048D01*
X14208333Y-16456000D01*
X14227381Y-16427428D01*
X14236905Y-16417905D01*
X14417857Y-16646476D02*
X14303571Y-16646476D01*
X14360714Y-16646476D02*
X14360714Y-16446476D01*
X14341667Y-16475048D01*
X14322619Y-16494095D01*
X14303571Y-16503619D01*
X14494048Y-16465524D02*
X14503571Y-16456000D01*
X14522619Y-16446476D01*
X14570238Y-16446476D01*
X14589286Y-16456000D01*
X14598809Y-16465524D01*
X14608333Y-16484571D01*
X14608333Y-16503619D01*
X14598809Y-16532190D01*
X14484524Y-16646476D01*
X14608333Y-16646476D01*
X14846428Y-16646476D02*
X14846428Y-16446476D01*
X14932143Y-16646476D02*
X14932143Y-16541714D01*
X14922619Y-16522667D01*
X14903571Y-16513143D01*
X14875000Y-16513143D01*
X14855952Y-16522667D01*
X14846428Y-16532190D01*
X15055952Y-16646476D02*
X15036905Y-16636952D01*
X15027381Y-16627428D01*
X15017857Y-16608381D01*
X15017857Y-16551238D01*
X15027381Y-16532190D01*
X15036905Y-16522667D01*
X15055952Y-16513143D01*
X15084524Y-16513143D01*
X15103571Y-16522667D01*
X15113095Y-16532190D01*
X15122619Y-16551238D01*
X15122619Y-16608381D01*
X15113095Y-16627428D01*
X15103571Y-16636952D01*
X15084524Y-16646476D01*
X15055952Y-16646476D01*
X15236905Y-16646476D02*
X15217857Y-16636952D01*
X15208333Y-16617905D01*
X15208333Y-16446476D01*
X15389286Y-16636952D02*
X15370238Y-16646476D01*
X15332143Y-16646476D01*
X15313095Y-16636952D01*
X15303571Y-16617905D01*
X15303571Y-16541714D01*
X15313095Y-16522667D01*
X15332143Y-16513143D01*
X15370238Y-16513143D01*
X15389286Y-16522667D01*
X15398809Y-16541714D01*
X15398809Y-16560762D01*
X15303571Y-16579809D01*
X15475000Y-16636952D02*
X15494048Y-16646476D01*
X15532143Y-16646476D01*
X15551190Y-16636952D01*
X15560714Y-16617905D01*
X15560714Y-16608381D01*
X15551190Y-16589333D01*
X15532143Y-16579809D01*
X15503571Y-16579809D01*
X15484524Y-16570286D01*
X15475000Y-16551238D01*
X15475000Y-16541714D01*
X15484524Y-16522667D01*
X15503571Y-16513143D01*
X15532143Y-16513143D01*
X15551190Y-16522667D01*
X15627381Y-16722667D02*
X15636905Y-16713143D01*
X15655952Y-16684571D01*
X15665476Y-16665524D01*
X15675000Y-16636952D01*
X15684524Y-16589333D01*
X15684524Y-16551238D01*
X15675000Y-16503619D01*
X15665476Y-16475048D01*
X15655952Y-16456000D01*
X15636905Y-16427428D01*
X15627381Y-16417905D01*
D17*
X10545000Y-16760000D02*
X10665000Y-16880000D01*
X10665000Y-16760000D02*
X10545000Y-16880000D01*
X10665000Y-16820000D02*
G75*
G03*
X10665000Y-16820000I-60000J0D01*
G01*
D10*
X11027381Y-16910476D02*
X10913095Y-16910476D01*
X10970238Y-16910476D02*
X10970238Y-16710476D01*
X10951190Y-16739048D01*
X10932143Y-16758095D01*
X10913095Y-16767619D01*
X11113095Y-16891429D02*
X11122619Y-16900952D01*
X11113095Y-16910476D01*
X11103571Y-16900952D01*
X11113095Y-16891429D01*
X11113095Y-16910476D01*
X11198809Y-16729524D02*
X11208333Y-16720000D01*
X11227381Y-16710476D01*
X11275000Y-16710476D01*
X11294048Y-16720000D01*
X11303571Y-16729524D01*
X11313095Y-16748571D01*
X11313095Y-16767619D01*
X11303571Y-16796190D01*
X11189286Y-16910476D01*
X11313095Y-16910476D01*
X11436905Y-16710476D02*
X11455952Y-16710476D01*
X11475000Y-16720000D01*
X11484524Y-16729524D01*
X11494048Y-16748571D01*
X11503571Y-16786667D01*
X11503571Y-16834286D01*
X11494048Y-16872381D01*
X11484524Y-16891429D01*
X11475000Y-16900952D01*
X11455952Y-16910476D01*
X11436905Y-16910476D01*
X11417857Y-16900952D01*
X11408333Y-16891429D01*
X11398809Y-16872381D01*
X11389286Y-16834286D01*
X11389286Y-16786667D01*
X11398809Y-16748571D01*
X11408333Y-16729524D01*
X11417857Y-16720000D01*
X11436905Y-16710476D01*
X11627381Y-16710476D02*
X11646428Y-16710476D01*
X11665476Y-16720000D01*
X11675000Y-16729524D01*
X11684524Y-16748571D01*
X11694048Y-16786667D01*
X11694048Y-16834286D01*
X11684524Y-16872381D01*
X11675000Y-16891429D01*
X11665476Y-16900952D01*
X11646428Y-16910476D01*
X11627381Y-16910476D01*
X11608333Y-16900952D01*
X11598809Y-16891429D01*
X11589286Y-16872381D01*
X11579762Y-16834286D01*
X11579762Y-16786667D01*
X11589286Y-16748571D01*
X11598809Y-16729524D01*
X11608333Y-16720000D01*
X11627381Y-16710476D01*
X11779762Y-16910476D02*
X11779762Y-16777143D01*
X11779762Y-16796190D02*
X11789286Y-16786667D01*
X11808333Y-16777143D01*
X11836905Y-16777143D01*
X11855952Y-16786667D01*
X11865476Y-16805714D01*
X11865476Y-16910476D01*
X11865476Y-16805714D02*
X11875000Y-16786667D01*
X11894048Y-16777143D01*
X11922619Y-16777143D01*
X11941667Y-16786667D01*
X11951190Y-16805714D01*
X11951190Y-16910476D01*
X12046428Y-16910476D02*
X12046428Y-16777143D01*
X12046428Y-16796190D02*
X12055952Y-16786667D01*
X12075000Y-16777143D01*
X12103571Y-16777143D01*
X12122619Y-16786667D01*
X12132143Y-16805714D01*
X12132143Y-16910476D01*
X12132143Y-16805714D02*
X12141667Y-16786667D01*
X12160714Y-16777143D01*
X12189286Y-16777143D01*
X12208333Y-16786667D01*
X12217857Y-16805714D01*
X12217857Y-16910476D01*
X12608333Y-16700952D02*
X12436905Y-16958095D01*
X12865476Y-16710476D02*
X12884524Y-16710476D01*
X12903571Y-16720000D01*
X12913095Y-16729524D01*
X12922619Y-16748571D01*
X12932143Y-16786667D01*
X12932143Y-16834286D01*
X12922619Y-16872381D01*
X12913095Y-16891429D01*
X12903571Y-16900952D01*
X12884524Y-16910476D01*
X12865476Y-16910476D01*
X12846428Y-16900952D01*
X12836905Y-16891429D01*
X12827381Y-16872381D01*
X12817857Y-16834286D01*
X12817857Y-16786667D01*
X12827381Y-16748571D01*
X12836905Y-16729524D01*
X12846428Y-16720000D01*
X12865476Y-16710476D01*
X13017857Y-16891429D02*
X13027381Y-16900952D01*
X13017857Y-16910476D01*
X13008333Y-16900952D01*
X13017857Y-16891429D01*
X13017857Y-16910476D01*
X13151190Y-16710476D02*
X13170238Y-16710476D01*
X13189286Y-16720000D01*
X13198809Y-16729524D01*
X13208333Y-16748571D01*
X13217857Y-16786667D01*
X13217857Y-16834286D01*
X13208333Y-16872381D01*
X13198809Y-16891429D01*
X13189286Y-16900952D01*
X13170238Y-16910476D01*
X13151190Y-16910476D01*
X13132143Y-16900952D01*
X13122619Y-16891429D01*
X13113095Y-16872381D01*
X13103571Y-16834286D01*
X13103571Y-16786667D01*
X13113095Y-16748571D01*
X13122619Y-16729524D01*
X13132143Y-16720000D01*
X13151190Y-16710476D01*
X13389286Y-16777143D02*
X13389286Y-16910476D01*
X13341667Y-16700952D02*
X13294048Y-16843810D01*
X13417857Y-16843810D01*
X13475000Y-16710476D02*
X13608333Y-16710476D01*
X13522619Y-16910476D01*
X13675000Y-16729524D02*
X13684524Y-16720000D01*
X13703571Y-16710476D01*
X13751190Y-16710476D01*
X13770238Y-16720000D01*
X13779762Y-16729524D01*
X13789286Y-16748571D01*
X13789286Y-16767619D01*
X13779762Y-16796190D01*
X13665476Y-16910476D01*
X13789286Y-16910476D01*
X13865476Y-16710476D02*
X13865476Y-16748571D01*
X13941667Y-16710476D02*
X13941667Y-16748571D01*
X14236905Y-16986667D02*
X14227381Y-16977143D01*
X14208333Y-16948571D01*
X14198809Y-16929524D01*
X14189286Y-16900952D01*
X14179762Y-16853333D01*
X14179762Y-16815238D01*
X14189286Y-16767619D01*
X14198809Y-16739048D01*
X14208333Y-16720000D01*
X14227381Y-16691428D01*
X14236905Y-16681905D01*
X14294048Y-16710476D02*
X14417857Y-16710476D01*
X14351190Y-16786667D01*
X14379762Y-16786667D01*
X14398809Y-16796190D01*
X14408333Y-16805714D01*
X14417857Y-16824762D01*
X14417857Y-16872381D01*
X14408333Y-16891429D01*
X14398809Y-16900952D01*
X14379762Y-16910476D01*
X14322619Y-16910476D01*
X14303571Y-16900952D01*
X14294048Y-16891429D01*
X14655952Y-16910476D02*
X14655952Y-16710476D01*
X14741667Y-16910476D02*
X14741667Y-16805714D01*
X14732143Y-16786667D01*
X14713095Y-16777143D01*
X14684524Y-16777143D01*
X14665476Y-16786667D01*
X14655952Y-16796190D01*
X14865476Y-16910476D02*
X14846428Y-16900952D01*
X14836905Y-16891429D01*
X14827381Y-16872381D01*
X14827381Y-16815238D01*
X14836905Y-16796190D01*
X14846428Y-16786667D01*
X14865476Y-16777143D01*
X14894048Y-16777143D01*
X14913095Y-16786667D01*
X14922619Y-16796190D01*
X14932143Y-16815238D01*
X14932143Y-16872381D01*
X14922619Y-16891429D01*
X14913095Y-16900952D01*
X14894048Y-16910476D01*
X14865476Y-16910476D01*
X15046428Y-16910476D02*
X15027381Y-16900952D01*
X15017857Y-16881905D01*
X15017857Y-16710476D01*
X15198809Y-16900952D02*
X15179762Y-16910476D01*
X15141667Y-16910476D01*
X15122619Y-16900952D01*
X15113095Y-16881905D01*
X15113095Y-16805714D01*
X15122619Y-16786667D01*
X15141667Y-16777143D01*
X15179762Y-16777143D01*
X15198809Y-16786667D01*
X15208333Y-16805714D01*
X15208333Y-16824762D01*
X15113095Y-16843810D01*
X15284524Y-16900952D02*
X15303571Y-16910476D01*
X15341667Y-16910476D01*
X15360714Y-16900952D01*
X15370238Y-16881905D01*
X15370238Y-16872381D01*
X15360714Y-16853333D01*
X15341667Y-16843810D01*
X15313095Y-16843810D01*
X15294048Y-16834286D01*
X15284524Y-16815238D01*
X15284524Y-16805714D01*
X15294048Y-16786667D01*
X15313095Y-16777143D01*
X15341667Y-16777143D01*
X15360714Y-16786667D01*
X15436905Y-16986667D02*
X15446428Y-16977143D01*
X15465476Y-16948571D01*
X15475000Y-16929524D01*
X15484524Y-16900952D01*
X15494048Y-16853333D01*
X15494048Y-16815238D01*
X15484524Y-16767619D01*
X15475000Y-16739048D01*
X15465476Y-16720000D01*
X15446428Y-16691428D01*
X15436905Y-16681905D01*
D11*
X10515000Y-17009000D02*
X10665000Y-17159000D01*
X10665000Y-17009000D02*
X10515000Y-17159000D01*
X10590000Y-17009000D02*
X10590000Y-17159000D01*
X10515000Y-17084000D02*
X10665000Y-17084000D01*
D10*
X11027381Y-17174476D02*
X10913095Y-17174476D01*
X10970238Y-17174476D02*
X10970238Y-16974476D01*
X10951190Y-17003048D01*
X10932143Y-17022095D01*
X10913095Y-17031619D01*
X11113095Y-17155429D02*
X11122619Y-17164952D01*
X11113095Y-17174476D01*
X11103571Y-17164952D01*
X11113095Y-17155429D01*
X11113095Y-17174476D01*
X11303571Y-16974476D02*
X11208333Y-16974476D01*
X11198809Y-17069714D01*
X11208333Y-17060190D01*
X11227381Y-17050667D01*
X11275000Y-17050667D01*
X11294048Y-17060190D01*
X11303571Y-17069714D01*
X11313095Y-17088762D01*
X11313095Y-17136381D01*
X11303571Y-17155429D01*
X11294048Y-17164952D01*
X11275000Y-17174476D01*
X11227381Y-17174476D01*
X11208333Y-17164952D01*
X11198809Y-17155429D01*
X11436905Y-16974476D02*
X11455952Y-16974476D01*
X11475000Y-16984000D01*
X11484524Y-16993524D01*
X11494048Y-17012571D01*
X11503571Y-17050667D01*
X11503571Y-17098286D01*
X11494048Y-17136381D01*
X11484524Y-17155429D01*
X11475000Y-17164952D01*
X11455952Y-17174476D01*
X11436905Y-17174476D01*
X11417857Y-17164952D01*
X11408333Y-17155429D01*
X11398809Y-17136381D01*
X11389286Y-17098286D01*
X11389286Y-17050667D01*
X11398809Y-17012571D01*
X11408333Y-16993524D01*
X11417857Y-16984000D01*
X11436905Y-16974476D01*
X11627381Y-16974476D02*
X11646428Y-16974476D01*
X11665476Y-16984000D01*
X11675000Y-16993524D01*
X11684524Y-17012571D01*
X11694048Y-17050667D01*
X11694048Y-17098286D01*
X11684524Y-17136381D01*
X11675000Y-17155429D01*
X11665476Y-17164952D01*
X11646428Y-17174476D01*
X11627381Y-17174476D01*
X11608333Y-17164952D01*
X11598809Y-17155429D01*
X11589286Y-17136381D01*
X11579762Y-17098286D01*
X11579762Y-17050667D01*
X11589286Y-17012571D01*
X11598809Y-16993524D01*
X11608333Y-16984000D01*
X11627381Y-16974476D01*
X11779762Y-17174476D02*
X11779762Y-17041143D01*
X11779762Y-17060190D02*
X11789286Y-17050667D01*
X11808333Y-17041143D01*
X11836905Y-17041143D01*
X11855952Y-17050667D01*
X11865476Y-17069714D01*
X11865476Y-17174476D01*
X11865476Y-17069714D02*
X11875000Y-17050667D01*
X11894048Y-17041143D01*
X11922619Y-17041143D01*
X11941667Y-17050667D01*
X11951190Y-17069714D01*
X11951190Y-17174476D01*
X12046428Y-17174476D02*
X12046428Y-17041143D01*
X12046428Y-17060190D02*
X12055952Y-17050667D01*
X12075000Y-17041143D01*
X12103571Y-17041143D01*
X12122619Y-17050667D01*
X12132143Y-17069714D01*
X12132143Y-17174476D01*
X12132143Y-17069714D02*
X12141667Y-17050667D01*
X12160714Y-17041143D01*
X12189286Y-17041143D01*
X12208333Y-17050667D01*
X12217857Y-17069714D01*
X12217857Y-17174476D01*
X12608333Y-16964952D02*
X12436905Y-17222095D01*
X12865476Y-16974476D02*
X12884524Y-16974476D01*
X12903571Y-16984000D01*
X12913095Y-16993524D01*
X12922619Y-17012571D01*
X12932143Y-17050667D01*
X12932143Y-17098286D01*
X12922619Y-17136381D01*
X12913095Y-17155429D01*
X12903571Y-17164952D01*
X12884524Y-17174476D01*
X12865476Y-17174476D01*
X12846428Y-17164952D01*
X12836905Y-17155429D01*
X12827381Y-17136381D01*
X12817857Y-17098286D01*
X12817857Y-17050667D01*
X12827381Y-17012571D01*
X12836905Y-16993524D01*
X12846428Y-16984000D01*
X12865476Y-16974476D01*
X13017857Y-17155429D02*
X13027381Y-17164952D01*
X13017857Y-17174476D01*
X13008333Y-17164952D01*
X13017857Y-17155429D01*
X13017857Y-17174476D01*
X13151190Y-16974476D02*
X13170238Y-16974476D01*
X13189286Y-16984000D01*
X13198809Y-16993524D01*
X13208333Y-17012571D01*
X13217857Y-17050667D01*
X13217857Y-17098286D01*
X13208333Y-17136381D01*
X13198809Y-17155429D01*
X13189286Y-17164952D01*
X13170238Y-17174476D01*
X13151190Y-17174476D01*
X13132143Y-17164952D01*
X13122619Y-17155429D01*
X13113095Y-17136381D01*
X13103571Y-17098286D01*
X13103571Y-17050667D01*
X13113095Y-17012571D01*
X13122619Y-16993524D01*
X13132143Y-16984000D01*
X13151190Y-16974476D01*
X13398809Y-16974476D02*
X13303571Y-16974476D01*
X13294048Y-17069714D01*
X13303571Y-17060190D01*
X13322619Y-17050667D01*
X13370238Y-17050667D01*
X13389286Y-17060190D01*
X13398809Y-17069714D01*
X13408333Y-17088762D01*
X13408333Y-17136381D01*
X13398809Y-17155429D01*
X13389286Y-17164952D01*
X13370238Y-17174476D01*
X13322619Y-17174476D01*
X13303571Y-17164952D01*
X13294048Y-17155429D01*
X13503571Y-17174476D02*
X13541667Y-17174476D01*
X13560714Y-17164952D01*
X13570238Y-17155429D01*
X13589286Y-17126857D01*
X13598809Y-17088762D01*
X13598809Y-17012571D01*
X13589286Y-16993524D01*
X13579762Y-16984000D01*
X13560714Y-16974476D01*
X13522619Y-16974476D01*
X13503571Y-16984000D01*
X13494048Y-16993524D01*
X13484524Y-17012571D01*
X13484524Y-17060190D01*
X13494048Y-17079238D01*
X13503571Y-17088762D01*
X13522619Y-17098286D01*
X13560714Y-17098286D01*
X13579762Y-17088762D01*
X13589286Y-17079238D01*
X13598809Y-17060190D01*
X13789286Y-17174476D02*
X13675000Y-17174476D01*
X13732143Y-17174476D02*
X13732143Y-16974476D01*
X13713095Y-17003048D01*
X13694048Y-17022095D01*
X13675000Y-17031619D01*
X13865476Y-16974476D02*
X13865476Y-17012571D01*
X13941667Y-16974476D02*
X13941667Y-17012571D01*
X14236905Y-17250667D02*
X14227381Y-17241143D01*
X14208333Y-17212571D01*
X14198809Y-17193524D01*
X14189286Y-17164952D01*
X14179762Y-17117333D01*
X14179762Y-17079238D01*
X14189286Y-17031619D01*
X14198809Y-17003048D01*
X14208333Y-16984000D01*
X14227381Y-16955429D01*
X14236905Y-16945905D01*
X14417857Y-17174476D02*
X14303571Y-17174476D01*
X14360714Y-17174476D02*
X14360714Y-16974476D01*
X14341667Y-17003048D01*
X14322619Y-17022095D01*
X14303571Y-17031619D01*
X14655952Y-17174476D02*
X14655952Y-16974476D01*
X14741667Y-17174476D02*
X14741667Y-17069714D01*
X14732143Y-17050667D01*
X14713095Y-17041143D01*
X14684524Y-17041143D01*
X14665476Y-17050667D01*
X14655952Y-17060190D01*
X14865476Y-17174476D02*
X14846428Y-17164952D01*
X14836905Y-17155429D01*
X14827381Y-17136381D01*
X14827381Y-17079238D01*
X14836905Y-17060190D01*
X14846428Y-17050667D01*
X14865476Y-17041143D01*
X14894048Y-17041143D01*
X14913095Y-17050667D01*
X14922619Y-17060190D01*
X14932143Y-17079238D01*
X14932143Y-17136381D01*
X14922619Y-17155429D01*
X14913095Y-17164952D01*
X14894048Y-17174476D01*
X14865476Y-17174476D01*
X15046428Y-17174476D02*
X15027381Y-17164952D01*
X15017857Y-17145905D01*
X15017857Y-16974476D01*
X15198809Y-17164952D02*
X15179762Y-17174476D01*
X15141667Y-17174476D01*
X15122619Y-17164952D01*
X15113095Y-17145905D01*
X15113095Y-17069714D01*
X15122619Y-17050667D01*
X15141667Y-17041143D01*
X15179762Y-17041143D01*
X15198809Y-17050667D01*
X15208333Y-17069714D01*
X15208333Y-17088762D01*
X15113095Y-17107810D01*
X15275000Y-17250667D02*
X15284524Y-17241143D01*
X15303571Y-17212571D01*
X15313095Y-17193524D01*
X15322619Y-17164952D01*
X15332143Y-17117333D01*
X15332143Y-17079238D01*
X15322619Y-17031619D01*
X15313095Y-17003048D01*
X15303571Y-16984000D01*
X15284524Y-16955429D01*
X15275000Y-16945905D01*
X10465000Y-17254000D02*
X10665000Y-17454000D01*
X10665000Y-17254000D02*
X10465000Y-17454000D01*
X10635711Y-17424711D02*
X10635711Y-17283289D01*
X10494289Y-17283289D01*
X10494289Y-17424711D01*
X10635711Y-17424711D01*
X10913095Y-17263524D02*
X10922619Y-17254000D01*
X10941667Y-17244476D01*
X10989286Y-17244476D01*
X11008333Y-17254000D01*
X11017857Y-17263524D01*
X11027381Y-17282571D01*
X11027381Y-17301619D01*
X11017857Y-17330190D01*
X10903571Y-17444476D01*
X11027381Y-17444476D01*
X11113095Y-17425429D02*
X11122619Y-17434952D01*
X11113095Y-17444476D01*
X11103571Y-17434952D01*
X11113095Y-17425429D01*
X11113095Y-17444476D01*
X11303571Y-17244476D02*
X11208333Y-17244476D01*
X11198809Y-17339714D01*
X11208333Y-17330190D01*
X11227381Y-17320667D01*
X11275000Y-17320667D01*
X11294048Y-17330190D01*
X11303571Y-17339714D01*
X11313095Y-17358762D01*
X11313095Y-17406381D01*
X11303571Y-17425429D01*
X11294048Y-17434952D01*
X11275000Y-17444476D01*
X11227381Y-17444476D01*
X11208333Y-17434952D01*
X11198809Y-17425429D01*
X11436905Y-17244476D02*
X11455952Y-17244476D01*
X11475000Y-17254000D01*
X11484524Y-17263524D01*
X11494048Y-17282571D01*
X11503571Y-17320667D01*
X11503571Y-17368286D01*
X11494048Y-17406381D01*
X11484524Y-17425429D01*
X11475000Y-17434952D01*
X11455952Y-17444476D01*
X11436905Y-17444476D01*
X11417857Y-17434952D01*
X11408333Y-17425429D01*
X11398809Y-17406381D01*
X11389286Y-17368286D01*
X11389286Y-17320667D01*
X11398809Y-17282571D01*
X11408333Y-17263524D01*
X11417857Y-17254000D01*
X11436905Y-17244476D01*
X11627381Y-17244476D02*
X11646428Y-17244476D01*
X11665476Y-17254000D01*
X11675000Y-17263524D01*
X11684524Y-17282571D01*
X11694048Y-17320667D01*
X11694048Y-17368286D01*
X11684524Y-17406381D01*
X11675000Y-17425429D01*
X11665476Y-17434952D01*
X11646428Y-17444476D01*
X11627381Y-17444476D01*
X11608333Y-17434952D01*
X11598809Y-17425429D01*
X11589286Y-17406381D01*
X11579762Y-17368286D01*
X11579762Y-17320667D01*
X11589286Y-17282571D01*
X11598809Y-17263524D01*
X11608333Y-17254000D01*
X11627381Y-17244476D01*
X11779762Y-17444476D02*
X11779762Y-17311143D01*
X11779762Y-17330190D02*
X11789286Y-17320667D01*
X11808333Y-17311143D01*
X11836905Y-17311143D01*
X11855952Y-17320667D01*
X11865476Y-17339714D01*
X11865476Y-17444476D01*
X11865476Y-17339714D02*
X11875000Y-17320667D01*
X11894048Y-17311143D01*
X11922619Y-17311143D01*
X11941667Y-17320667D01*
X11951190Y-17339714D01*
X11951190Y-17444476D01*
X12046428Y-17444476D02*
X12046428Y-17311143D01*
X12046428Y-17330190D02*
X12055952Y-17320667D01*
X12075000Y-17311143D01*
X12103571Y-17311143D01*
X12122619Y-17320667D01*
X12132143Y-17339714D01*
X12132143Y-17444476D01*
X12132143Y-17339714D02*
X12141667Y-17320667D01*
X12160714Y-17311143D01*
X12189286Y-17311143D01*
X12208333Y-17320667D01*
X12217857Y-17339714D01*
X12217857Y-17444476D01*
X12608333Y-17234952D02*
X12436905Y-17492095D01*
X12865476Y-17244476D02*
X12884524Y-17244476D01*
X12903571Y-17254000D01*
X12913095Y-17263524D01*
X12922619Y-17282571D01*
X12932143Y-17320667D01*
X12932143Y-17368286D01*
X12922619Y-17406381D01*
X12913095Y-17425429D01*
X12903571Y-17434952D01*
X12884524Y-17444476D01*
X12865476Y-17444476D01*
X12846428Y-17434952D01*
X12836905Y-17425429D01*
X12827381Y-17406381D01*
X12817857Y-17368286D01*
X12817857Y-17320667D01*
X12827381Y-17282571D01*
X12836905Y-17263524D01*
X12846428Y-17254000D01*
X12865476Y-17244476D01*
X13017857Y-17425429D02*
X13027381Y-17434952D01*
X13017857Y-17444476D01*
X13008333Y-17434952D01*
X13017857Y-17425429D01*
X13017857Y-17444476D01*
X13151190Y-17244476D02*
X13170238Y-17244476D01*
X13189286Y-17254000D01*
X13198809Y-17263524D01*
X13208333Y-17282571D01*
X13217857Y-17320667D01*
X13217857Y-17368286D01*
X13208333Y-17406381D01*
X13198809Y-17425429D01*
X13189286Y-17434952D01*
X13170238Y-17444476D01*
X13151190Y-17444476D01*
X13132143Y-17434952D01*
X13122619Y-17425429D01*
X13113095Y-17406381D01*
X13103571Y-17368286D01*
X13103571Y-17320667D01*
X13113095Y-17282571D01*
X13122619Y-17263524D01*
X13132143Y-17254000D01*
X13151190Y-17244476D01*
X13313095Y-17444476D02*
X13351190Y-17444476D01*
X13370238Y-17434952D01*
X13379762Y-17425429D01*
X13398809Y-17396857D01*
X13408333Y-17358762D01*
X13408333Y-17282571D01*
X13398809Y-17263524D01*
X13389286Y-17254000D01*
X13370238Y-17244476D01*
X13332143Y-17244476D01*
X13313095Y-17254000D01*
X13303571Y-17263524D01*
X13294048Y-17282571D01*
X13294048Y-17330190D01*
X13303571Y-17349238D01*
X13313095Y-17358762D01*
X13332143Y-17368286D01*
X13370238Y-17368286D01*
X13389286Y-17358762D01*
X13398809Y-17349238D01*
X13408333Y-17330190D01*
X13522619Y-17330190D02*
X13503571Y-17320667D01*
X13494048Y-17311143D01*
X13484524Y-17292095D01*
X13484524Y-17282571D01*
X13494048Y-17263524D01*
X13503571Y-17254000D01*
X13522619Y-17244476D01*
X13560714Y-17244476D01*
X13579762Y-17254000D01*
X13589286Y-17263524D01*
X13598809Y-17282571D01*
X13598809Y-17292095D01*
X13589286Y-17311143D01*
X13579762Y-17320667D01*
X13560714Y-17330190D01*
X13522619Y-17330190D01*
X13503571Y-17339714D01*
X13494048Y-17349238D01*
X13484524Y-17368286D01*
X13484524Y-17406381D01*
X13494048Y-17425429D01*
X13503571Y-17434952D01*
X13522619Y-17444476D01*
X13560714Y-17444476D01*
X13579762Y-17434952D01*
X13589286Y-17425429D01*
X13598809Y-17406381D01*
X13598809Y-17368286D01*
X13589286Y-17349238D01*
X13579762Y-17339714D01*
X13560714Y-17330190D01*
X13770238Y-17311143D02*
X13770238Y-17444476D01*
X13722619Y-17234952D02*
X13675000Y-17377810D01*
X13798809Y-17377810D01*
X13865476Y-17244476D02*
X13865476Y-17282571D01*
X13941667Y-17244476D02*
X13941667Y-17282571D01*
X14236905Y-17520667D02*
X14227381Y-17511143D01*
X14208333Y-17482571D01*
X14198809Y-17463524D01*
X14189286Y-17434952D01*
X14179762Y-17387333D01*
X14179762Y-17349238D01*
X14189286Y-17301619D01*
X14198809Y-17273048D01*
X14208333Y-17254000D01*
X14227381Y-17225429D01*
X14236905Y-17215905D01*
X14294048Y-17244476D02*
X14417857Y-17244476D01*
X14351190Y-17320667D01*
X14379762Y-17320667D01*
X14398809Y-17330190D01*
X14408333Y-17339714D01*
X14417857Y-17358762D01*
X14417857Y-17406381D01*
X14408333Y-17425429D01*
X14398809Y-17434952D01*
X14379762Y-17444476D01*
X14322619Y-17444476D01*
X14303571Y-17434952D01*
X14294048Y-17425429D01*
X14655952Y-17444476D02*
X14655952Y-17244476D01*
X14741667Y-17444476D02*
X14741667Y-17339714D01*
X14732143Y-17320667D01*
X14713095Y-17311143D01*
X14684524Y-17311143D01*
X14665476Y-17320667D01*
X14655952Y-17330190D01*
X14865476Y-17444476D02*
X14846428Y-17434952D01*
X14836905Y-17425429D01*
X14827381Y-17406381D01*
X14827381Y-17349238D01*
X14836905Y-17330190D01*
X14846428Y-17320667D01*
X14865476Y-17311143D01*
X14894048Y-17311143D01*
X14913095Y-17320667D01*
X14922619Y-17330190D01*
X14932143Y-17349238D01*
X14932143Y-17406381D01*
X14922619Y-17425429D01*
X14913095Y-17434952D01*
X14894048Y-17444476D01*
X14865476Y-17444476D01*
X15046428Y-17444476D02*
X15027381Y-17434952D01*
X15017857Y-17415905D01*
X15017857Y-17244476D01*
X15198809Y-17434952D02*
X15179762Y-17444476D01*
X15141667Y-17444476D01*
X15122619Y-17434952D01*
X15113095Y-17415905D01*
X15113095Y-17339714D01*
X15122619Y-17320667D01*
X15141667Y-17311143D01*
X15179762Y-17311143D01*
X15198809Y-17320667D01*
X15208333Y-17339714D01*
X15208333Y-17358762D01*
X15113095Y-17377810D01*
X15284524Y-17434952D02*
X15303571Y-17444476D01*
X15341667Y-17444476D01*
X15360714Y-17434952D01*
X15370238Y-17415905D01*
X15370238Y-17406381D01*
X15360714Y-17387333D01*
X15341667Y-17377810D01*
X15313095Y-17377810D01*
X15294048Y-17368286D01*
X15284524Y-17349238D01*
X15284524Y-17339714D01*
X15294048Y-17320667D01*
X15313095Y-17311143D01*
X15341667Y-17311143D01*
X15360714Y-17320667D01*
X15436905Y-17520667D02*
X15446428Y-17511143D01*
X15465476Y-17482571D01*
X15475000Y-17463524D01*
X15484524Y-17434952D01*
X15494048Y-17387333D01*
X15494048Y-17349238D01*
X15484524Y-17301619D01*
X15475000Y-17273048D01*
X15465476Y-17254000D01*
X15446428Y-17225429D01*
X15436905Y-17215905D01*
M02*
