M48
; DRILL file {KiCad (6.0.8)} date Tue Nov  8 19:15:39 2022
; FORMAT={-:-/ absolute / metric / decimal}
; #@! TF.CreationDate,2022-11-08T19:15:39+01:00
; #@! TF.GenerationSoftware,Kicad,Pcbnew,(6.0.8)
; #@! TF.FileFunction,Plated,1,2,PTH
FMAT,2
METRIC
; #@! TA.AperFunction,Plated,PTH,ComponentDrill
T1C0.700
; #@! TA.AperFunction,Plated,PTH,ComponentDrill
T2C0.800
; #@! TA.AperFunction,Plated,PTH,ComponentDrill
T3C0.900
; #@! TA.AperFunction,Plated,PTH,ComponentDrill
T4C1.000
; #@! TA.AperFunction,Plated,PTH,ComponentDrill
T5C1.100
; #@! TA.AperFunction,Plated,PTH,ComponentDrill
T6C1.200
; #@! TA.AperFunction,Plated,PTH,ComponentDrill
T7C1.500
; #@! TA.AperFunction,Plated,PTH,ComponentDrill
T8C2.500
%
G90
G05
T1
X148.28Y-91.5
X150.82Y-91.5
T2
X114.5Y-88.818
X114.5Y-91.318
X124.19Y-82.75
X124.69Y-73.5
X131.81Y-82.75
X132.31Y-73.5
X135.75Y-86.0
X135.75Y-88.5
X139.48Y-84.46
X139.48Y-89.54
X142.02Y-87.0
X142.18Y-73.18
X142.18Y-75.72
X142.18Y-78.26
X142.18Y-80.8
X144.44Y-84.0
X144.75Y-87.25
X144.75Y-89.75
X149.8Y-73.18
X149.8Y-75.72
X149.8Y-78.26
X149.8Y-80.8
X152.06Y-84.0
X155.19Y-75.75
X162.5Y-78.44
X162.5Y-86.06
X162.69Y-89.25
X162.81Y-75.75
X165.75Y-78.44
X165.75Y-86.06
X169.0Y-78.44
X169.0Y-86.06
X170.31Y-89.25
T3
X125.0Y-77.0
X125.0Y-79.54
T4
X135.5Y-73.7
X135.5Y-76.24
X135.5Y-78.78
X135.5Y-81.32
X172.945Y-73.225
X172.945Y-75.765
X175.485Y-73.225
X175.485Y-75.765
X178.025Y-73.225
X178.025Y-75.765
T5
X154.75Y-84.0
X154.75Y-90.5
X159.25Y-84.0
X159.25Y-90.5
X173.75Y-79.5
X173.75Y-84.0
X173.75Y-87.0
X173.75Y-91.5
X180.25Y-79.5
X180.25Y-84.0
X180.25Y-87.0
X180.25Y-91.5
T6
X126.21Y-88.805
X128.75Y-88.805
X131.29Y-88.805
T7
X149.5Y-103.65
T8
X112.8Y-81.5
X117.5Y-78.5
X117.5Y-84.5
T0
M30
