M48
; DRILL file {KiCad (6.0.8)} date Sat Nov 26 12:48:53 2022
; FORMAT={-:-/ absolute / inch / decimal}
; #@! TF.CreationDate,2022-11-26T12:48:53+01:00
; #@! TF.GenerationSoftware,Kicad,Pcbnew,(6.0.8)
; #@! TF.FileFunction,Plated,1,2,PTH
FMAT,2
INCH
; #@! TA.AperFunction,Plated,PTH,ComponentDrill
T1C0.0276
; #@! TA.AperFunction,Plated,PTH,ComponentDrill
T2C0.0315
; #@! TA.AperFunction,Plated,PTH,ComponentDrill
T3C0.0354
; #@! TA.AperFunction,Plated,PTH,ComponentDrill
T4C0.0394
; #@! TA.AperFunction,Plated,PTH,ComponentDrill
T5C0.0433
; #@! TA.AperFunction,Plated,PTH,ComponentDrill
T6C0.0472
; #@! TA.AperFunction,Plated,PTH,ComponentDrill
T7C0.0591
; #@! TA.AperFunction,Plated,PTH,ComponentDrill
T8C0.0984
%
G90
G05
T1
X5.8378Y-3.6024
X5.9378Y-3.6024
T2
X4.5079Y-3.4968
X4.5079Y-3.5952
X4.8894Y-3.2579
X4.9091Y-2.8937
X5.1894Y-3.2579
X5.2091Y-2.8937
X5.3445Y-3.3858
X5.3445Y-3.4843
X5.4913Y-3.3252
X5.4913Y-3.5252
X5.5913Y-3.4252
X5.5976Y-2.8811
X5.5976Y-2.9811
X5.5976Y-3.0811
X5.5976Y-3.1811
X5.6866Y-3.3071
X5.6988Y-3.435
X5.6988Y-3.5335
X5.8976Y-2.8811
X5.8976Y-2.9811
X5.8976Y-3.0811
X5.8976Y-3.1811
X5.9866Y-3.3071
X6.1098Y-2.9823
X6.3976Y-3.0882
X6.3976Y-3.3882
X6.4051Y-3.5138
X6.4098Y-2.9823
X6.5256Y-3.0882
X6.5256Y-3.3882
X6.6535Y-3.0882
X6.6535Y-3.3882
X6.7051Y-3.5138
T3
X4.9213Y-3.0315
X4.9213Y-3.1315
T4
X5.3346Y-2.9016
X5.3346Y-3.0016
X5.3346Y-3.1016
X5.3346Y-3.2016
X6.8089Y-2.8829
X6.8089Y-2.9829
X6.9089Y-2.8829
X6.9089Y-2.9829
X7.0089Y-2.8829
X7.0089Y-2.9829
T5
X6.0925Y-3.3071
X6.0925Y-3.563
X6.2697Y-3.3071
X6.2697Y-3.563
X6.8406Y-3.1299
X6.8406Y-3.3071
X6.8406Y-3.4252
X6.8406Y-3.6024
X7.0965Y-3.1299
X7.0965Y-3.3071
X7.0965Y-3.4252
X7.0965Y-3.6024
T6
X4.9689Y-3.4963
X5.0689Y-3.4963
X5.1689Y-3.4963
T7
X5.8858Y-4.0807
T8
X4.4409Y-3.2087
X4.626Y-3.0906
X4.626Y-3.3268
T0
M30
