%TF.GenerationSoftware,KiCad,Pcbnew,(6.0.8)*%
%TF.CreationDate,2022-11-08T21:21:11+01:00*%
%TF.ProjectId,50x70_tiny,35307837-305f-4746-996e-792e6b696361,rev?*%
%TF.SameCoordinates,Original*%
%TF.FileFunction,Drillmap*%
%TF.FilePolarity,Positive*%
%FSLAX45Y45*%
G04 Gerber Fmt 4.5, Leading zero omitted, Abs format (unit mm)*
G04 Created by KiCad (PCBNEW (6.0.8)) date 2022-11-08 21:21:11*
%MOMM*%
%LPD*%
G01*
G04 APERTURE LIST*
%ADD10C,0.200000*%
%ADD11C,0.150000*%
G04 APERTURE END LIST*
D10*
X10675000Y-7275000D02*
X10675000Y-7000000D01*
X18345000Y-14275000D02*
G75*
G03*
X18345000Y-14575000I0J-150000D01*
G01*
X18350000Y-7275000D02*
G75*
G03*
X18350000Y-7575000I0J-150000D01*
G01*
D11*
X15412500Y-9550000D02*
G75*
G03*
X15412500Y-9550000I-175000J0D01*
G01*
D10*
X18350000Y-7575000D02*
X18500000Y-7575000D01*
D11*
X12041667Y-9550000D02*
G75*
G03*
X12041667Y-9550000I-175000J0D01*
G01*
X13762500Y-9550000D02*
G75*
G03*
X13762500Y-9550000I-175000J0D01*
G01*
X13350000Y-9550000D02*
G75*
G03*
X13350000Y-9550000I-175000J0D01*
G01*
D10*
X18350000Y-7275000D02*
X18500000Y-7275000D01*
X18495000Y-14575000D02*
X18495000Y-14850000D01*
X10825000Y-7575000D02*
G75*
G03*
X10825000Y-7275000I0J150000D01*
G01*
D11*
X14587500Y-9550000D02*
G75*
G03*
X14587500Y-9550000I-175000J0D01*
G01*
X15000000Y-9550000D02*
G75*
G03*
X15000000Y-9550000I-175000J0D01*
G01*
D10*
X10675000Y-7000000D02*
X18500000Y-7000000D01*
X18345000Y-14275000D02*
X18495000Y-14275000D01*
D11*
X11633333Y-9550000D02*
G75*
G03*
X11633333Y-9550000I-175000J0D01*
G01*
D10*
X10675000Y-14275000D02*
X10675000Y-7575000D01*
D11*
X17887500Y-9550000D02*
G75*
G03*
X17887500Y-9550000I-175000J0D01*
G01*
D10*
X10825000Y-14575000D02*
G75*
G03*
X10825000Y-14275000I0J150000D01*
G01*
D11*
X18300000Y-9550000D02*
G75*
G03*
X18300000Y-9550000I-175000J0D01*
G01*
D10*
X10825000Y-7575000D02*
X10675000Y-7575000D01*
X18345000Y-14575000D02*
X18495000Y-14575000D01*
X10825000Y-14275000D02*
X10675000Y-14275000D01*
X18500000Y-7000000D02*
X18500000Y-7275000D01*
X18495000Y-14850000D02*
X10675000Y-14850000D01*
X18500000Y-7575000D02*
X18495000Y-14275000D01*
X10675000Y-14850000D02*
X10675000Y-14575000D01*
X10825000Y-14575000D02*
X10675000Y-14575000D01*
D11*
X16237500Y-9550000D02*
G75*
G03*
X16237500Y-9550000I-175000J0D01*
G01*
X11225000Y-9550000D02*
G75*
G03*
X11225000Y-9550000I-175000J0D01*
G01*
X17062500Y-9550000D02*
G75*
G03*
X17062500Y-9550000I-175000J0D01*
G01*
X14175000Y-9550000D02*
G75*
G03*
X14175000Y-9550000I-175000J0D01*
G01*
X17475000Y-9550000D02*
G75*
G03*
X17475000Y-9550000I-175000J0D01*
G01*
X12450000Y-9550000D02*
G75*
G03*
X12450000Y-9550000I-175000J0D01*
G01*
X16650000Y-9550000D02*
G75*
G03*
X16650000Y-9550000I-175000J0D01*
G01*
D10*
X10825000Y-7275000D02*
X10675000Y-7275000D01*
D11*
X15825000Y-9550000D02*
G75*
G03*
X15825000Y-9550000I-175000J0D01*
G01*
D10*
X10922619Y-15170476D02*
X10922619Y-14970476D01*
X10970238Y-14970476D01*
X10998810Y-14980000D01*
X11017857Y-14999048D01*
X11027381Y-15018095D01*
X11036905Y-15056190D01*
X11036905Y-15084762D01*
X11027381Y-15122857D01*
X11017857Y-15141905D01*
X10998810Y-15160952D01*
X10970238Y-15170476D01*
X10922619Y-15170476D01*
X11122619Y-15170476D02*
X11122619Y-15037143D01*
X11122619Y-15075238D02*
X11132143Y-15056190D01*
X11141667Y-15046667D01*
X11160714Y-15037143D01*
X11179762Y-15037143D01*
X11246428Y-15170476D02*
X11246428Y-15037143D01*
X11246428Y-14970476D02*
X11236905Y-14980000D01*
X11246428Y-14989524D01*
X11255952Y-14980000D01*
X11246428Y-14970476D01*
X11246428Y-14989524D01*
X11370238Y-15170476D02*
X11351190Y-15160952D01*
X11341667Y-15141905D01*
X11341667Y-14970476D01*
X11475000Y-15170476D02*
X11455952Y-15160952D01*
X11446428Y-15141905D01*
X11446428Y-14970476D01*
X11703571Y-15170476D02*
X11703571Y-14970476D01*
X11770238Y-15113333D01*
X11836905Y-14970476D01*
X11836905Y-15170476D01*
X12017857Y-15170476D02*
X12017857Y-15065714D01*
X12008333Y-15046667D01*
X11989286Y-15037143D01*
X11951190Y-15037143D01*
X11932143Y-15046667D01*
X12017857Y-15160952D02*
X11998809Y-15170476D01*
X11951190Y-15170476D01*
X11932143Y-15160952D01*
X11922619Y-15141905D01*
X11922619Y-15122857D01*
X11932143Y-15103809D01*
X11951190Y-15094286D01*
X11998809Y-15094286D01*
X12017857Y-15084762D01*
X12113095Y-15037143D02*
X12113095Y-15237143D01*
X12113095Y-15046667D02*
X12132143Y-15037143D01*
X12170238Y-15037143D01*
X12189286Y-15046667D01*
X12198809Y-15056190D01*
X12208333Y-15075238D01*
X12208333Y-15132381D01*
X12198809Y-15151428D01*
X12189286Y-15160952D01*
X12170238Y-15170476D01*
X12132143Y-15170476D01*
X12113095Y-15160952D01*
X12294048Y-15151428D02*
X12303571Y-15160952D01*
X12294048Y-15170476D01*
X12284524Y-15160952D01*
X12294048Y-15151428D01*
X12294048Y-15170476D01*
X12294048Y-15046667D02*
X12303571Y-15056190D01*
X12294048Y-15065714D01*
X12284524Y-15056190D01*
X12294048Y-15046667D01*
X12294048Y-15065714D01*
M02*
